<?xml version="1.0" encoding="utf-8"?>
<!-- Generator: Adobe Illustrator 19.1.1, SVG Export Plug-In . SVG Version: 6.00 Build 0)  -->
<svg version="1.1" id="Layer_1" xmlns="http://www.w3.org/2000/svg" xmlns:xlink="http://www.w3.org/1999/xlink" x="0px" y="0px"
	 viewBox="-211 343.7 188 106.3" style="enable-background:new -211 343.7 188 106.3;" xml:space="preserve">
<style type="text/css">
	.st0{fill:#FFFFFF;}
</style>
<g>
	<g>
		<g>
			<path class="st0" d="M-173.1,390.3h-4l6-8.2l-5.1,3.1v-3.4l-4.3,5.1c0,0-1.3,1.5-1.8,2.2s-0.7,1.1-0.7,1.1l-5.8,2.4
				c0,0,0.2-0.7,1.2-2s3.2-3.7,3.2-3.7l8-9.1h3.4l-0.1,3.3l5.3-3.2h3.4L-173.1,390.3z"/>
			<path class="st0" d="M-155.8,380.1h-5.1l-1.1,1.9h4.7l-2.3,2.8h-4.1l-2,3.4c-0.3,0.5-0.5,0.9-0.7,1.2c-0.2,0.3-0.3,0.6-0.4,0.9
				l-5.1,2.4c0.1-0.5,0.3-1.1,0.5-1.6c0.3-0.6,0.6-1.1,1-1.8l7.5-11.6h7.4L-155.8,380.1z"/>
			<path class="st0" d="M-154,387h4.9l-2.2,3.3h-8.2l6.3-12.6h3.3L-154,387z"/>
		</g>
		<path class="st0" d="M-174.4,369.5c-0.2,0.6-0.6,1.2-1,1.7s-0.8,0.9-1.2,1.4c-0.8,0.9-1.6,1.9-2.5,2.9c-1.7,2-3.6,4.2-5.5,6.4
			c-1.9,2.2-3.7,4.3-5.5,6.4c-0.4,0.5-0.9,1-1.3,1.5c-0.1,0.1-0.2,0.3-0.4,0.4c-0.2,0.1-0.3,0.3-0.4,0.4c-0.3,0.2-0.6,0.5-0.9,0.7
			c-1.2,0.8-2.6,1.3-3.9,1.4c-0.3,0-0.6,0.1-1,0.1c-0.3,0-0.5,0-0.8,0c-0.5,0-0.9,0-1.4,0c-0.8,0-1.4,0-2,0c0.4-1.1,0.9-2.3,1.5-3.4
			c0.2,0,0.3,0,0.5,0c0.4,0,0.9,0,1.4,0c0.2,0,0.5,0,0.7,0c0.2,0,0.4,0,0.6,0c0.8-0.1,1.7-0.3,2.6-0.8c0.2-0.1,0.4-0.3,0.6-0.4
			c0.1-0.1,0.2-0.2,0.3-0.2c0.1-0.1,0.2-0.1,0.3-0.3c0.4-0.5,0.9-0.9,1.3-1.4c1.8-2,3.7-4.1,5.7-6.2c1.9-2.1,3.9-4.2,5.7-6.2
			c0.9-1,1.8-1.9,2.6-2.8c0.4-0.4,0.8-0.9,1.2-1.3c0.3-0.3,0.6-0.7,0.7-1.1c0.4-0.8,0.5-1.6,0.5-2.4s-0.1-1.4-0.3-1.9
			c-0.1-0.3-0.2-0.5-0.2-0.7c-0.1-0.2-0.1-0.3-0.2-0.5c0,0,0-0.1-0.1-0.1c-0.1-0.2-0.2-0.3-0.2-0.3l1.7-0.9c0,0,0,0,0,0.1
			s0.1,0.2,0.2,0.4c0.1,0.1,0.2,0.4,0.3,0.6c0.1,0.3,0.2,0.5,0.3,0.9c0.2,0.7,0.4,1.5,0.5,2.5C-173.8,367.2-173.9,368.3-174.4,369.5
			"/>
		<path class="st0" d="M-165.8,357.2c0,0,0.1,0.2,0.3,0.4c0.2,0.2,0.5,0.6,0.9,1s1,0.8,1.8,1.1c0.7,0.3,1.7,0.5,2.7,0.5
			c4.6-0.1,10.7-0.3,16.8-0.5c3.1-0.1,6.1-0.2,9-0.3c0.4,0,0.7,0,1.1,0s0.7,0,1,0c0.6-0.1,1.1-0.2,1.6-0.4c0.5-0.2,1-0.4,1.4-0.7
			c0.4-0.3,0.9-0.7,1.3-1c3.6-2.9,5.9-4.8,5.9-4.8l2.2,1.5c0,0-2.9,2.6-6.5,5.5c-0.5,0.4-0.9,0.7-1.5,1.1s-1.3,0.7-2,1
			c-0.7,0.3-1.5,0.4-2.3,0.5c-0.4,0-0.8,0-1.1,0c-0.4,0-0.7,0-1.1,0c-2.9,0-5.9,0.1-9,0.1c-6.1,0.1-12.3,0.1-16.9,0.2
			c-1.3,0-2.5-0.3-3.4-0.8c-1-0.4-1.7-1-2.3-1.5s-0.9-1-1.2-1.3c-0.2-0.3-0.6-0.7-0.6-0.7L-165.8,357.2z"/>
		<path class="st0" d="M-111.6,362.3c-0.8,0.7-2.2,1.9-4.5,4.1c-0.8,0.7-1.4,1.8-1.7,3c-0.1,0.5-0.2,1.4-0.4,2.2
			c-0.1,0.8-0.2,1.6-0.4,2.5c-0.5,3.4-1,6.9-1.5,10.5s-1,7.2-1.5,10.5c-0.2,1.7-0.5,3.3-0.7,4.8c-0.1,0.4-0.1,0.8-0.2,1.1
			c0,0.2-0.1,0.4-0.1,0.6c0,0.1,0,0.4,0,0.5c0,0.2,0,0.5,0,0.8s0.1,0.5,0.1,0.8c0.2,1,0.7,1.9,1.2,2.6c0.1,0.2,0.3,0.3,0.4,0.5
			c0.2,0.2,0.3,0.4,0.5,0.5c0.3,0.3,1.3,1.4,1.6,1.6c0.3,0.3,0.4,0.4,0.5,0.6l-1.7,3.3l-1.4-1.4c-0.3-0.3-1.3-1.3-1.6-1.7
			c-0.2-0.2-0.3-0.4-0.5-0.5c-0.2-0.2-0.4-0.5-0.6-0.7c-0.8-1.1-1.5-2.5-1.8-4.1c-0.1-0.8-0.2-1.6-0.1-2.6c0-0.2,0-0.3,0.1-0.6
			c0-0.2,0.1-0.4,0.1-0.6c0.1-0.4,0.1-0.8,0.2-1.1c0.2-1.5,0.5-3.2,0.8-4.8c0.5-3.4,1.1-6.9,1.7-10.5s1.1-7.1,1.7-10.5
			c0.1-0.8,0.3-1.7,0.4-2.5c0.1-0.4,0.1-0.8,0.2-1.2c0.1-0.4,0.1-0.9,0.2-1.3c0.5-1.8,1.4-3.3,2.6-4.5c2.9-2.6,4.4-3.9,5-4.4
			C-112.7,360.6-112.1,361.4-111.6,362.3"/>
		<path class="st0" d="M-123.1,417.7l-2.6,2.6l-0.4-0.2l-3-1.8c-1.6-0.9-3.6-1-5.3-0.2l-27.8,12.4c-1.8,0.8-4.3,3.1-4.7,4.7
			l-0.1,0.2l-2.3,5.8c-1.3,0-2.5-0.1-3.8-0.2l2.8-6.8c0.9-3.1,4.4-5.9,6.7-7l27.8-12.4c2.7-1.2,5.9-1.1,8.5,0.3l3.7,2.1
			L-123.1,417.7z"/>
		<path class="st0" d="M-178.8,429.4l-0.1,0.2l-3.3,9.7c-1.1-0.4-2.2-0.8-3.3-1.4l3.2-9.3c0.3-1.4,0-2.9-0.8-4.1l-12-20.1
			c-1-1.6-2.8-2.6-4.7-2.6h-5c0.1-1.1,0.2-2.3,0.3-3.5h4.7c3.1,0,6,1.6,7.7,4.2l12,20.1C-178.8,424.6-178.3,427-178.8,429.4"/>
		<path class="st0" d="M-125.1,371.9c-0.1-2.2-1.3-4.2-3.1-5.4c-0.9-0.6-1.9-0.9-3-1c-0.3,0-0.5,0-0.8,0h-0.6h-1.2h-5h-9.9h-10h-2.5
			h-0.7c-0.2,0-0.4,0-0.7,0.1c-0.5,0.1-1,0.1-1.4,0.3c-1.9,0.5-3.6,1.5-4.9,2.8l0,0l-6.3,7.4h3.8l4.6-5.5c1-1,2.2-1.7,3.6-2
			c0.3-0.1,0.7-0.2,1-0.2c0.1,0,0.3,0,0.5,0h0.6h2.5h10h10h5h1.2h0.3h0.3c0.1,0,0.3,0,0.4,0c0.6,0.1,1.1,0.3,1.6,0.6
			c1,0.6,1.6,1.8,1.7,2.9c0.1,0.4-0.1,1.3-0.3,2.1l-0.4,2.4l-1.8,9.8l-1.8,9.8l-0.9,4.9l-0.2,1.2c-0.1,0.3-0.1,0.7-0.2,1
			c-0.2,0.6-0.5,1.3-0.9,1.8c-0.7,1.1-1.8,2.1-2.9,2.6l-0.3,0.1h-0.1l0,0l0,0h-0.1l-0.6,0.2l-1.1,0.5l-2.3,1l-9.1,4l-9.1,4l-4.6,2
			c-0.6,0.3-1.3,0.4-1.9,0.5c-0.7,0.1-1.3,0.1-2,0c-1.3-0.2-2.6-0.7-3.7-1.5c-1-0.8-1.8-2.1-2.8-3.5l-5.8-8.1l-2.9-4.1l-0.7-1
			c-0.2-0.3-0.5-0.7-0.7-1c-0.4-0.6-0.7-1.2-0.9-1.9c-0.6-1.8-0.5-3.7,0.3-5.4h-3.2c-0.1,0.2-0.1,0.4-0.2,0.6
			c-0.5,1.9-0.4,3.9,0.2,5.7c0.3,0.9,0.7,1.8,1.2,2.6c0.3,0.4,0.5,0.7,0.7,1.1l0.7,1l2.8,4.1l5.7,8.2c0.9,1.3,1.8,2.9,3.5,4.2
			c1.5,1.2,3.4,2,5.3,2.3c1.9,0.3,4,0,5.8-0.8l4.6-2l9.1-3.9l9.1-3.9l2.3-1l1.1-0.5l0.6-0.2l0.3-0.1l0.3-0.1
			c1.8-0.9,3.3-2.2,4.4-3.9c0.5-0.8,0.9-1.7,1.2-2.7c0.1-0.5,0.3-1,0.3-1.4l0.2-1.2l0.8-4.9l1.7-9.8l1.6-9.8l0.4-2.5l0.2-1.2V373
			v-0.2v-0.3C-125.1,372.5-125.1,372.2-125.1,371.9"/>
		<path class="st0" d="M-159.3,392.6c0.1,0,0.2,0,0.3,0.1c0.1,0,0.1,0.1,0.2,0.1c0,0.1,0.1,0.1,0.1,0.2s0,0.1,0,0.2
			s-0.1,0.2-0.2,0.3c-0.1,0.1-0.2,0.2-0.3,0.4l-0.9,1h0.9l-0.4,0.7h-2l1.8-2c0.1-0.1,0.2-0.2,0.2-0.2c0-0.1,0-0.1,0-0.1
			s-0.1,0-0.2,0h-0.7l0.4-0.7H-159.3z"/>
		<path class="st0" d="M-158.8,393.7c0.1-0.3,0.3-0.6,0.6-0.8c0.3-0.2,0.7-0.3,1.2-0.3s0.8,0.1,1,0.3c0.1,0.2,0.1,0.5,0,0.8
			c-0.1,0.2-0.2,0.4-0.3,0.6s-0.3,0.4-0.5,0.6c-0.2,0.2-0.4,0.4-0.6,0.5c-0.2,0.1-0.4,0.2-0.7,0.2c-0.2,0-0.4-0.1-0.5-0.2
			s-0.2-0.3-0.3-0.5c0-0.2-0.1-0.4,0-0.6C-158.8,394.1-158.8,393.9-158.8,393.7 M-156.8,393.7c0.1-0.2,0.1-0.3,0-0.4
			c0-0.1-0.2-0.1-0.3-0.1c-0.2,0-0.3,0-0.4,0.1s-0.2,0.2-0.3,0.4c0,0.1-0.1,0.2-0.1,0.3c0,0.1,0,0.1,0,0.2s0,0.1,0,0.2
			s0,0.2,0.1,0.3c0,0.1,0.1,0.1,0.2,0.1c0.1,0,0.2,0,0.3-0.1l0.1-0.1c0,0,0.1-0.1,0.1-0.2c0.1-0.1,0.2-0.2,0.2-0.4
			C-156.9,393.9-156.8,393.9-156.8,393.7C-156.8,393.8-156.8,393.8-156.8,393.7"/>
		<polygon class="st0" points="-154.3,392.6 -155.1,395.5 -155.9,395.5 -155.3,393.3 -155.8,393.2 -155.3,392.6 		"/>
		<path class="st0" d="M-151.9,392.6c0,0-0.1,0.1-0.2,0.2s-0.1,0.1-0.2,0.2c-0.1,0.1-0.1,0.1-0.2,0.2s-0.1,0.1-0.2,0.2
			c-0.1,0.1-0.1,0.1-0.1,0.2c0.2,0,0.3,0,0.4,0.1c0.1,0,0.2,0.1,0.3,0.2s0.1,0.2,0.2,0.3c0,0.1,0,0.3,0,0.4
			c-0.1,0.2-0.1,0.4-0.3,0.5c-0.1,0.2-0.3,0.3-0.5,0.4c-0.2,0.1-0.5,0.1-0.7,0.1c-0.2,0-0.4,0-0.5-0.1c-0.1,0-0.2-0.1-0.3-0.2
			s-0.1-0.2-0.1-0.3c0-0.1,0-0.3,0.1-0.4c0.1-0.2,0.1-0.3,0.2-0.5s0.2-0.3,0.4-0.5c0.1-0.1,0.1-0.2,0.2-0.2c0.1-0.1,0.1-0.1,0.2-0.2
			s0.1-0.1,0.2-0.2c0.1-0.1,0.2-0.2,0.3-0.3L-151.9,392.6z M-153.4,394.2c-0.1,0.1-0.2,0.2-0.2,0.3c0,0.1,0,0.1,0,0.1v0.1l0.1,0.1
			h0.1c0.1,0,0.1,0,0.2,0c0,0,0.1,0,0.1-0.1l0.1-0.1l0.1-0.1c0-0.1,0-0.2-0.1-0.3c-0.1-0.1-0.2-0.1-0.3-0.1L-153.4,394.2z"/>
		<g>
			<path class="st0" d="M-101.7,389.7c0-0.1,0.1-0.2,0.3-0.2h4.2c0.2,0,0.2,0.1,0.2,0.2l-0.1,1c0,0.1-0.1,0.2-0.3,0.2h-2.7l-0.1,1.3
				h2.3c0.2,0,0.2,0.1,0.2,0.2l-0.1,1c0,0.1-0.1,0.2-0.3,0.2h-2.3l-0.3,2.9c0,0.1,0,0.2-0.3,0.2h-1.1c-0.2,0-0.2-0.1-0.2-0.2
				L-101.7,389.7z"/>
			<path class="st0" d="M-92.4,394.1l0.3-4.3c0-0.1,0.1-0.3,0.3-0.3h1.2c0.2,0,0.2,0.1,0.2,0.3l-0.4,4.4c0,0.4-0.1,0.9-0.3,1.3
				c-0.5,1.1-1.7,1.5-2.8,1.5c-1.8,0-2.7-1.2-2.6-2.9l0.4-4.4c0-0.1,0.1-0.3,0.3-0.3h1.2c0.2,0,0.2,0.1,0.2,0.3l-0.4,4.3
				c-0.1,0.9,0.3,1.4,1,1.4C-92.9,395.4-92.5,395-92.4,394.1z"/>
			<path class="st0" d="M-84.2,390.7c0,0.1-0.1,0.2-0.3,0.2h-1.6l-0.4,5.7c0,0.1,0,0.2-0.2,0.2H-88c-0.2,0-0.2-0.1-0.2-0.2l0.4-5.7
				h-1.6c-0.2,0-0.2-0.1-0.2-0.2l0.1-1c0-0.1,0.1-0.2,0.3-0.2h4.9c0.2,0,0.2,0.1,0.2,0.2L-84.2,390.7z"/>
			<path class="st0" d="M-80.6,396.9h-3c-0.2,0-0.2-0.1-0.2-0.2l0.5-6.9c0-0.1,0.1-0.2,0.3-0.2h2.7c1.5,0,2.2,0.8,2.1,2
				c0,0.4-0.2,1.1-0.9,1.4l0,0c0.8,0.3,0.9,1.2,0.9,1.7C-78.2,396.1-79.4,396.9-80.6,396.9z M-80.6,390.9h-1l-0.1,1.4h1
				c0.4,0,0.7-0.3,0.8-0.7C-79.9,391.2-80.1,390.9-80.6,390.9z M-80.7,393.7h-1.1l-0.1,1.6h1.1c0.6,0,0.9-0.4,0.9-0.8
				C-79.9,394.1-80.1,393.7-80.7,393.7z"/>
			<path class="st0" d="M-74,397c-2.8,0-3-2.2-2.9-3.9c0.1-1.3,0.6-3.7,3.3-3.7s3,1.9,2.9,3.7C-70.7,394.7-71.2,397-74,397z
				 M-73.6,390.9c-1,0-1.3,0.7-1.4,2.3c-0.1,1.5,0.1,2.3,1.2,2.3c1,0,1.4-0.7,1.5-2.3C-72.3,391.6-72.6,390.9-73.6,390.9z"/>
			<path class="st0" d="M-67.7,395.4h2.9c0.1,0,0.2,0.1,0.2,0.2v1.1c0,0.1-0.1,0.2-0.3,0.2h-4.4c-0.2,0-0.2-0.1-0.2-0.2l0.4-6.9
				c0-0.1,0.1-0.3,0.3-0.3h1.2c0.2,0,0.2,0.1,0.2,0.3L-67.7,395.4z"/>
			<path class="st0" d="M-58.7,395.4h2.9c0.1,0,0.2,0.1,0.2,0.2v1.1c0,0.1-0.1,0.2-0.2,0.2h-4.4c-0.2,0-0.2-0.1-0.2-0.2l0.3-6.9
				c0-0.1,0.1-0.3,0.2-0.3h1.2c0.2,0,0.2,0.1,0.2,0.3L-58.7,395.4z"/>
			<path class="st0" d="M-54.5,389.7c0-0.1,0.1-0.3,0.2-0.3h1.3c0.2,0,0.2,0.1,0.2,0.3l-0.2,6.9c0,0.1,0,0.2-0.2,0.2h-1.3
				c-0.2,0-0.2-0.1-0.2-0.2L-54.5,389.7z M-53.6,388.8c-0.7,0-0.8-0.4-0.8-0.8s0.2-0.8,0.9-0.8s0.8,0.3,0.8,0.8
				C-52.7,388.4-52.9,388.8-53.6,388.8z"/>
			<path class="st0" d="M-46.3,396.2l1.1,0.3c0.2,0.1,0.2,0.2,0.1,0.4l-0.4,1c-0.1,0.2-0.2,0.3-0.5,0.2l-2.4-1.1c0,0-0.1,0-0.2,0
				c-2.8,0-3-2.2-3-3.9c0-1.3,0.4-3.7,3.2-3.7c2.7,0,3.1,1.9,3.1,3.7C-45.3,394.1-45.4,395.4-46.3,396.2z M-48.3,390.9
				c-1,0-1.3,0.7-1.3,2.3c0,1.5,0.2,2.3,1.2,2.3s1.4-0.7,1.4-2.3C-47,391.6-47.3,390.9-48.3,390.9z"/>
			<path class="st0" d="M-42.8,396.6c-0.1,0.2-0.2,0.3-0.4,0.3h-1.2c-0.2,0-0.2,0-0.1-0.3l2.2-6.8c0.1-0.2,0.1-0.3,0.4-0.3h1.4
				c0.3,0,0.3,0.1,0.4,0.3l2.1,6.8c0,0.2,0,0.3-0.1,0.3h-1.4c-0.3,0-0.3-0.1-0.4-0.3l-0.3-1.3h-2.2L-42.8,396.6z M-40.9,392.6
				l-0.3-1.4h-0.1l-0.4,1.3l-0.3,1.2h1.4L-40.9,392.6z"/>
			<path class="st0" d="M-37.1,396.6c-0.4-0.1-0.3-0.3-0.3-0.5l0.1-0.7c0.1-0.3,0.1-0.3,0.4-0.2c0.5,0.1,1.3,0.2,1.9,0.2
				c0.7,0,1.1-0.2,1.1-0.7s-0.3-0.7-1-0.8c-1.2-0.3-2.5-0.6-2.5-2.2c0-1.5,1-2.2,2.6-2.2c0.4,0,1.4,0,2.1,0.3
				c0.4,0.1,0.3,0.3,0.3,0.5l-0.2,0.7c-0.1,0.3-0.2,0.3-0.5,0.2c-0.5-0.1-1-0.1-1.6-0.1c-0.6,0-0.9,0.2-0.9,0.7s0.2,0.6,1,0.7
				c1.2,0.3,2.5,0.6,2.5,2.3c0,1.8-1.4,2.3-2.9,2.3C-35.4,397-36.4,396.9-37.1,396.6z"/>
			<path class="st0" d="M-30.8,389.7c0-0.1,0.1-0.3,0.2-0.3h1.3c0.2,0,0.2,0.1,0.2,0.3v6.9c0,0.1,0,0.2-0.2,0.2h-1.3
				c-0.2,0-0.2-0.1-0.2-0.2V389.7z"/>
		</g>
		<g>
			<path class="st0" d="M-96,381l1.3-2.3l1.7-2.9c0.2-0.2,0.3-0.4,0.7-0.4h1.2c0.3,0,0.3,0.2,0.3,0.3l-0.8,9.2c0,0.2,0,0.3-0.3,0.3
				h-1.6c-0.2,0-0.3-0.1-0.3-0.3l0.4-4.5l0,0l-0.6,1.2l-1.1,1.9c-0.2,0.2-0.3,0.4-0.6,0.4h-0.7c-0.3,0-0.5-0.1-0.6-0.4l-0.8-2
				l-0.4-1.1l0,0l-0.4,4.5c0,0.2-0.1,0.3-0.3,0.3h-1.6c-0.2,0-0.3-0.1-0.3-0.3l0.8-9.2c0-0.2,0.1-0.3,0.3-0.3h1.3
				c0.4,0,0.5,0.1,0.6,0.4l1.2,2.9L-96,381L-96,381z"/>
			<path class="st0" d="M-88.9,375.8c0-0.2,0.1-0.3,0.3-0.3h1.7c0.3,0,0.3,0.2,0.3,0.3l-0.8,9.2c0,0.2-0.1,0.3-0.3,0.3h-1.7
				c-0.2,0-0.3-0.1-0.3-0.3L-88.9,375.8z M-87.6,374.6c-1,0-1.1-0.6-1.1-1.1c0.1-0.6,0.3-1.1,1.2-1.1c0.9,0,1.1,0.5,1.1,1.1
				S-86.6,374.6-87.6,374.6z"/>
			<path class="st0" d="M-82.6,379.8L-82.6,379.8l-0.5,5.2c0,0.2-0.1,0.3-0.3,0.3H-85c-0.2,0-0.3-0.1-0.3-0.3l0.8-9.2
				c0-0.2,0.1-0.3,0.3-0.3h1.2c0.5,0,0.5,0.2,0.7,0.4c0.4,0.8,2.4,4.4,2.9,5.1l0,0l0.4-5.2c0-0.2,0.1-0.3,0.3-0.3h1.6
				c0.2,0,0.3,0.1,0.3,0.3l-0.8,9.2c0,0.2-0.1,0.3-0.3,0.3h-1.2c-0.3,0-0.5-0.1-0.6-0.3l-1.9-3.4L-82.6,379.8z"/>
			<path class="st0" d="M-74.7,375.8c0-0.2,0.1-0.3,0.3-0.3h1.7c0.3,0,0.3,0.2,0.3,0.3l-0.8,9.2c0,0.2-0.1,0.3-0.3,0.3h-1.7
				c-0.2,0-0.3-0.1-0.3-0.3L-74.7,375.8z M-73.4,374.6c-1,0-1.1-0.6-1.1-1.1c0.1-0.6,0.3-1.1,1.2-1.1c0.9,0,1.1,0.5,1.1,1.1
				C-72.2,374.1-72.4,374.6-73.4,374.6z"/>
		</g>
	</g>
</g>
</svg>
