<?xml version="1.0" encoding="utf-8"?>
<!-- Generator: Adobe Illustrator 19.1.1, SVG Export Plug-In . SVG Version: 6.00 Build 0)  -->
<svg version="1.1" id="Layer_1" xmlns="http://www.w3.org/2000/svg" xmlns:xlink="http://www.w3.org/1999/xlink" x="0px" y="0px"
	 viewBox="-245 357 120 80" style="enable-background:new -245 357 120 80;" xml:space="preserve">
<style type="text/css">
	.st0{fill:#FFFFFF;}
</style>
<g>
	<g>
		<g>
			<path class="st0" d="M-228.7,393.9c-2.3,0-4.7,0.1-7,0.1c0.3,0.7,0.6,1.3,0.9,2c2,0,4,0,6,0c0.2,0,0.4-0.1,0.5-0.3
				c0-0.6,0.1-1.1,0.1-1.6C-228.2,394-228.4,393.9-228.7,393.9L-228.7,393.9z"/>
			<path class="st0" d="M-220.4,393.8c-2.4,0-4.8,0.1-7.2,0.1c-0.3,0-0.5,0.1-0.5,0.3c-0.1,0.6-0.1,1.1-0.1,1.6
				c0,0.2,0.2,0.3,0.4,0.3c2.3,0,4.7,0,7,0c0.2,0,0.4-0.1,0.5-0.3c0.1-0.6,0.1-1.2,0.2-1.7C-220,393.9-220.2,393.8-220.4,393.8
				L-220.4,393.8z"/>
			<path class="st0" d="M-212.1,393.7c-2.4,0-4.8,0.1-7.2,0.1c-0.2,0-0.5,0.1-0.5,0.3c-0.1,0.6-0.2,1.2-0.2,1.7
				c0,0.2,0.2,0.3,0.4,0.3c2.3,0,4.7,0,7,0c0.2,0,0.5-0.1,0.5-0.3c0.1-0.6,0.2-1.2,0.3-1.7C-211.6,393.8-211.8,393.7-212.1,393.7
				L-212.1,393.7z"/>
			<path class="st0" d="M-203.8,393.6c-2.4,0-4.8,0-7.2,0.1c-0.2,0-0.5,0.1-0.5,0.3c-0.1,0.6-0.2,1.2-0.3,1.7c0,0.2,0.1,0.3,0.4,0.3
				c2.3,0,4.7,0,7,0c0.2,0,0.5-0.1,0.5-0.3c0.1-0.6,0.3-1.2,0.4-1.8C-203.4,393.7-203.5,393.6-203.8,393.6L-203.8,393.6z"/>
			<path class="st0" d="M-195.4,393.6c-2.4,0-4.8,0-7.2,0c-0.2,0-0.5,0.1-0.5,0.3c-0.2,0.6-0.3,1.2-0.5,1.8c0,0.2,0.1,0.3,0.4,0.3
				c2.3,0,4.7,0,7.1,0c0.2,0,0.5-0.1,0.5-0.3c0.2-0.6,0.4-1.2,0.6-1.8C-195.1,393.7-195.3,393.6-195.4,393.6L-195.4,393.6z"/>
			<path class="st0" d="M-187.1,393.5c-2.4,0-4.8,0-7.2,0c-0.2,0-0.5,0.1-0.5,0.3c-0.2,0.6-0.4,1.2-0.6,1.8
				c-0.1,0.2,0.1,0.3,0.3,0.3c2.3,0,4.7,0,7,0c0.2,0,0.5-0.1,0.5-0.3c0.2-0.6,0.5-1.2,0.7-1.8C-186.7,393.7-186.9,393.5-187.1,393.5
				L-187.1,393.5z"/>
			<path class="st0" d="M-178.9,393.5c-2.4,0-4.8,0-7.2,0c-0.2,0-0.5,0.1-0.6,0.3c-0.2,0.6-0.5,1.2-0.7,1.8
				c-0.1,0.2,0.1,0.3,0.3,0.3c2.3,0,4.7,0,7,0c0.2,0,0.5-0.1,0.6-0.3c0.3-0.6,0.5-1.2,0.8-1.8C-178.5,393.7-178.6,393.5-178.9,393.5
				L-178.9,393.5z"/>
			<path class="st0" d="M-170.5,393.6c-2.4,0-4.8,0-7.2,0c-0.3,0-0.5,0.1-0.6,0.3c-0.3,0.6-0.5,1.2-0.8,1.8
				c-0.1,0.2,0.1,0.3,0.3,0.3c2.3,0,4.7,0,7,0c0.2,0,0.5-0.1,0.6-0.3c0.3-0.6,0.6-1.2,0.9-1.8C-170.1,393.7-170.2,393.6-170.5,393.6
				L-170.5,393.6z"/>
			<path class="st0" d="M-162.2,393.6c-2.4,0-4.8,0-7.2-0.1c-0.2,0-0.5,0.1-0.6,0.3c-0.3,0.6-0.6,1.2-0.9,1.8
				c-0.1,0.2,0,0.3,0.3,0.3c2.3,0,4.7,0,7,0c0.2,0,0.5-0.1,0.6-0.3c0.3-0.6,0.7-1.2,1-1.8C-161.8,393.8-162,393.6-162.2,393.6
				L-162.2,393.6z"/>
			<path class="st0" d="M-153.8,393.7c-2.4,0-4.8-0.1-7.2-0.1c-0.3,0-0.5,0.1-0.6,0.3c-0.4,0.6-0.7,1.2-1,1.8
				c-0.1,0.2,0,0.3,0.3,0.3c2.3,0,4.7,0,7.1,0c0.2,0,0.5-0.1,0.6-0.3c0.4-0.6,0.8-1.2,1.1-1.7C-153.6,393.9-153.7,393.7-153.8,393.7
				L-153.8,393.7z"/>
			<path class="st0" d="M-145.6,393.8c-2.4,0-4.8-0.1-7.2-0.1c-0.2,0-0.5,0.1-0.6,0.3c-0.4,0.6-0.8,1.2-1.2,1.7
				c-0.1,0.2,0,0.3,0.2,0.3c2.3,0,4.7,0,7,0c0.2,0,0.5-0.1,0.6-0.3c0.4-0.6,0.8-1.1,1.2-1.6C-145.2,394-145.4,393.8-145.6,393.8
				L-145.6,393.8z"/>
			<path class="st0" d="M-137.4,394c-2.4,0-4.8-0.1-7.2-0.1c-0.2,0-0.5,0.1-0.6,0.3c-0.4,0.6-0.8,1.1-1.2,1.6
				c-0.1,0.2,0,0.3,0.2,0.3c2.3,0,4.7,0,7,0c0.2,0,0.5-0.1,0.7-0.3c0.4-0.5,0.9-1.1,1.2-1.5C-137,394.1-137.1,394-137.4,394
				L-137.4,394z"/>
			<path class="st0" d="M-136.2,394c-0.2,0-0.5,0.1-0.7,0.3c-0.4,0.5-0.9,1.1-1.2,1.5c-0.1,0.1,0,0.3,0.2,0.3c0.9,0,1.8,0,2.8,0
				c0.3-0.7,0.6-1.3,0.9-2C-135,394-135.5,394-136.2,394L-136.2,394z"/>
			<path class="st0" d="M-231.6,393.4c0-0.5,0.1-1.1,0.2-1.6c0-0.1-0.2-0.3-0.4-0.3c-1.6,0.1-3.2,0.1-4.8,0.2c0.3,0.7,0.5,1.3,0.8,2
				c1.2,0,2.5-0.1,3.8-0.1C-231.8,393.7-231.6,393.5-231.6,393.4L-231.6,393.4z"/>
			<path class="st0" d="M-230.8,393.6c2.4,0,4.8-0.1,7.2-0.1c0.2,0,0.5-0.1,0.5-0.3c0.1-0.6,0.2-1.2,0.3-1.7c0-0.2-0.1-0.3-0.4-0.3
				c-2.4,0.1-4.9,0.2-7.3,0.2c-0.3,0-0.5,0.1-0.5,0.3c-0.1,0.6-0.1,1.1-0.2,1.6C-231.3,393.5-231.1,393.6-230.8,393.6L-230.8,393.6z
				"/>
			<path class="st0" d="M-222.6,393.5c2.4,0,4.8-0.1,7.2-0.1c0.2,0,0.5-0.1,0.5-0.3c0.1-0.6,0.2-1.2,0.3-1.7c0-0.2-0.1-0.3-0.4-0.3
				c-2.4,0.1-4.9,0.1-7.3,0.2c-0.3,0-0.5,0.1-0.5,0.3c-0.1,0.6-0.2,1.2-0.3,1.7C-223,393.4-222.8,393.5-222.6,393.5L-222.6,393.5z"
				/>
			<path class="st0" d="M-214.2,393.4c2.4,0,4.8-0.1,7.2-0.1c0.3,0,0.5-0.1,0.5-0.3c0.2-0.6,0.3-1.2,0.5-1.8c0-0.2-0.1-0.3-0.4-0.3
				c-2.4,0-4.9,0.1-7.3,0.1c-0.3,0-0.5,0.1-0.5,0.3c-0.1,0.6-0.2,1.2-0.4,1.7C-214.6,393.2-214.4,393.4-214.2,393.4L-214.2,393.4z"
				/>
			<path class="st0" d="M-205.9,393.3c2.4,0,4.8,0,7.2-0.1c0.2,0,0.5-0.1,0.5-0.3c0.2-0.6,0.4-1.2,0.6-1.8c0-0.2-0.1-0.3-0.4-0.3
				c-2.4,0-4.9,0.1-7.3,0.1c-0.2,0-0.5,0.1-0.5,0.3c-0.1,0.6-0.3,1.2-0.5,1.8C-206.3,393.1-206.2,393.3-205.9,393.3L-205.9,393.3z"
				/>
			<path class="st0" d="M-197.6,393.2c2.4,0,4.8,0,7.2,0c0.2,0,0.5-0.1,0.5-0.3c0.2-0.7,0.5-1.2,0.7-1.9c0.1-0.2-0.1-0.3-0.3-0.3
				c-2.4,0-4.9,0-7.3,0c-0.2,0-0.5,0.2-0.5,0.3c-0.2,0.6-0.4,1.2-0.6,1.8C-197.9,393.1-197.8,393.2-197.6,393.2L-197.6,393.2z"/>
			<path class="st0" d="M-189.2,393.2c2.4,0,4.8,0,7.2,0c0.3,0,0.5-0.1,0.6-0.3c0.3-0.7,0.5-1.2,0.8-1.8c0.1-0.2-0.1-0.3-0.3-0.3
				c-2.4,0-4.9,0-7.3,0c-0.2,0-0.5,0.1-0.6,0.3c-0.2,0.7-0.5,1.2-0.7,1.9C-189.6,393-189.5,393.2-189.2,393.2L-189.2,393.2z"/>
			<path class="st0" d="M-180.9,393.2c2.4,0,4.8,0,7.2,0c0.2,0,0.5-0.1,0.6-0.3c0.3-0.6,0.6-1.2,0.9-1.8c0.1-0.2-0.1-0.3-0.3-0.3
				c-2.4,0-4.9,0-7.3-0.1c-0.3,0-0.5,0.1-0.6,0.3c-0.3,0.7-0.5,1.2-0.8,1.8C-181.3,393-181.2,393.2-180.9,393.2L-180.9,393.2z"/>
			<path class="st0" d="M-172.5,393.2c2.4,0,4.8,0,7.2,0.1c0.2,0,0.5-0.1,0.6-0.3c0.3-0.6,0.7-1.2,1-1.8c0.1-0.2,0-0.3-0.3-0.3
				c-2.4,0-4.9-0.1-7.3-0.1c-0.3,0-0.5,0.1-0.6,0.3c-0.3,0.6-0.6,1.2-0.9,1.8C-172.9,393.1-172.8,393.2-172.5,393.2L-172.5,393.2z"
				/>
			<path class="st0" d="M-164.2,393.3c2.4,0,4.8,0,7.2,0.1c0.2,0,0.5-0.1,0.6-0.3c0.4-0.6,0.7-1.2,1.1-1.7c0.1-0.2,0-0.3-0.3-0.3
				c-2.4-0.1-4.9-0.1-7.3-0.2c-0.2,0-0.5,0.1-0.6,0.3c-0.3,0.6-0.7,1.2-1,1.8C-164.6,393.1-164.5,393.3-164.2,393.3L-164.2,393.3z"
				/>
			<path class="st0" d="M-155.9,393.4c2.4,0,4.8,0.1,7.2,0.1c0.2,0,0.5-0.1,0.6-0.3c0.4-0.6,0.8-1.2,1.2-1.6c0.1-0.2,0-0.3-0.2-0.3
				c-2.4-0.1-4.9-0.1-7.3-0.2c-0.2,0-0.5,0.1-0.6,0.3c-0.4,0.6-0.7,1.2-1.1,1.7C-156.2,393.2-156.1,393.4-155.9,393.4L-155.9,393.4z
				"/>
			<path class="st0" d="M-147.6,393.5c2.4,0,4.8,0.1,7.2,0.1c0.2,0,0.5-0.1,0.7-0.3c0.4-0.5,0.8-1.1,1.2-1.5c0.1-0.1,0-0.3-0.2-0.3
				c-2.4-0.1-4.8-0.2-7.3-0.2c-0.2,0-0.5,0.1-0.6,0.3c-0.4,0.6-0.8,1.1-1.2,1.6C-147.9,393.4-147.8,393.5-147.6,393.5L-147.6,393.5z
				"/>
			<path class="st0" d="M-137.6,391.6c-0.3,0-0.5,0.1-0.6,0.2c-0.4,0.5-0.9,1.1-1.2,1.5c-0.1,0.1,0,0.3,0.2,0.3
				c1.7,0,3.4,0.1,5.1,0.1c0.3-0.7,0.5-1.3,0.8-2C-134.9,391.7-136.2,391.6-137.6,391.6L-137.6,391.6z"/>
			<path class="st0" d="M-234.8,391.1c0.1-0.5,0.1-1.1,0.2-1.5c0-0.1-0.2-0.3-0.4-0.2c-0.9,0-1.6,0.1-2.5,0.1c0.2,0.7,0.5,1.3,0.7,2
				c0.5,0,1,0,1.5-0.1C-234.9,391.4-234.8,391.3-234.8,391.1L-234.8,391.1z"/>
			<path class="st0" d="M-234,391.4c2.4-0.1,4.8-0.2,7.3-0.3c0.2,0,0.5-0.1,0.5-0.3c0.1-0.6,0.2-1.2,0.3-1.6c0-0.2-0.2-0.3-0.4-0.3
				c-2.5,0.1-4.9,0.3-7.4,0.4c-0.3,0-0.5,0.1-0.5,0.3c-0.1,0.5-0.1,1.1-0.2,1.5C-234.5,391.2-234.3,391.4-234,391.4L-234,391.4z"/>
			<path class="st0" d="M-225.5,391c2.4-0.1,4.9-0.2,7.3-0.2c0.3,0,0.5-0.1,0.5-0.3c0.1-0.6,0.2-1.2,0.4-1.7c0-0.2-0.1-0.3-0.4-0.3
				c-2.5,0.1-4.9,0.2-7.4,0.3c-0.3,0-0.5,0.1-0.5,0.3c-0.1,0.6-0.2,1.2-0.3,1.6C-226,390.9-225.8,391-225.5,391L-225.5,391z"/>
			<path class="st0" d="M-217.1,390.8c2.4-0.1,4.9-0.1,7.3-0.2c0.3,0,0.5-0.1,0.5-0.3c0.2-0.6,0.3-1.2,0.5-1.8
				c0-0.2-0.1-0.3-0.4-0.3c-2.5,0.1-5,0.2-7.4,0.3c-0.3,0-0.5,0.2-0.5,0.3c-0.1,0.6-0.3,1.2-0.4,1.7
				C-217.6,390.6-217.4,390.8-217.1,390.8L-217.1,390.8z"/>
			<path class="st0" d="M-208.7,390.6c2.4-0.1,4.9-0.1,7.3-0.1c0.3,0,0.5-0.1,0.5-0.3c0.2-0.6,0.4-1.2,0.6-1.8
				c0.1-0.2-0.1-0.3-0.4-0.3c-2.5,0.1-5,0.1-7.4,0.2c-0.3,0-0.5,0.2-0.5,0.3c-0.2,0.6-0.3,1.2-0.5,1.8
				C-209.1,390.4-208.9,390.6-208.7,390.6L-208.7,390.6z"/>
			<path class="st0" d="M-200.1,390.4c2.4,0,4.9-0.1,7.3-0.1c0.3,0,0.5-0.1,0.6-0.3c0.2-0.7,0.4-1.2,0.7-1.9
				c0.1-0.2-0.1-0.3-0.3-0.3c-2.5,0-5,0.1-7.4,0.1c-0.3,0-0.5,0.2-0.6,0.3c-0.2,0.6-0.4,1.2-0.6,1.8
				C-200.5,390.3-200.4,390.4-200.1,390.4L-200.1,390.4z"/>
			<path class="st0" d="M-191.7,390.3c2.5,0,4.9,0,7.3,0c0.3,0,0.5-0.1,0.6-0.3c0.3-0.7,0.5-1.2,0.8-1.9c0.1-0.2-0.1-0.3-0.3-0.3
				c-2.5,0-5,0-7.5,0c-0.3,0-0.5,0.1-0.6,0.3c-0.2,0.6-0.4,1.2-0.7,1.9C-192.1,390.2-191.9,390.3-191.7,390.3L-191.7,390.3z"/>
			<path class="st0" d="M-183.2,390.3c2.5,0,4.9,0,7.3,0c0.2,0,0.5-0.1,0.6-0.3c0.3-0.6,0.6-1.2,0.9-1.8c0.1-0.2-0.1-0.3-0.3-0.3
				c-2.5,0-5-0.1-7.5-0.1c-0.3,0-0.5,0.1-0.6,0.3c-0.3,0.7-0.5,1.2-0.8,1.9C-183.6,390.2-183.5,390.3-183.2,390.3L-183.2,390.3z"/>
			<path class="st0" d="M-174.7,390.4c2.5,0,4.9,0.1,7.3,0.1c0.3,0,0.5-0.1,0.6-0.3c0.3-0.6,0.6-1.2,1-1.8c0.1-0.2,0-0.3-0.3-0.3
				c-2.5-0.1-5-0.1-7.5-0.1c-0.3,0-0.5,0.1-0.6,0.3c-0.3,0.6-0.6,1.2-0.9,1.8C-175,390.2-174.9,390.4-174.7,390.4L-174.7,390.4z"/>
			<path class="st0" d="M-166.2,390.5c2.4,0,4.9,0.1,7.3,0.1c0.2,0,0.5-0.1,0.6-0.3c0.4-0.6,0.7-1.2,1.1-1.7c0.1-0.2,0-0.3-0.3-0.3
				c-2.5-0.1-4.9-0.2-7.4-0.2c-0.3,0-0.5,0.1-0.6,0.3c-0.3,0.6-0.6,1.2-1,1.8C-166.6,390.3-166.4,390.5-166.2,390.5L-166.2,390.5z"
				/>
			<path class="st0" d="M-157.8,390.6c2.4,0.1,4.9,0.1,7.3,0.2c0.2,0,0.5-0.1,0.6-0.3c0.4-0.6,0.8-1.2,1.1-1.6
				c0.1-0.2,0-0.3-0.3-0.3c-2.5-0.1-4.9-0.2-7.4-0.3c-0.3,0-0.5,0.1-0.6,0.3c-0.4,0.6-0.7,1.2-1.1,1.7
				C-158.1,390.5-158,390.6-157.8,390.6L-157.8,390.6z"/>
			<path class="st0" d="M-140.4,389c-2.5-0.1-4.9-0.3-7.4-0.4c-0.2,0-0.5,0.1-0.6,0.3c-0.4,0.6-0.8,1.2-1.1,1.6
				c-0.1,0.2,0,0.3,0.3,0.3c2.4,0.1,4.9,0.2,7.3,0.2c0.2,0,0.5-0.1,0.6-0.3c0.4-0.5,0.8-1.1,1.2-1.5
				C-140.1,389.2-140.2,389.1-140.4,389L-140.4,389z"/>
			<path class="st0" d="M-139.3,389.1c-0.3,0-0.5,0.1-0.7,0.2c-0.4,0.5-0.8,1.1-1.2,1.5c-0.1,0.1,0,0.3,0.2,0.3
				c2.4,0.1,4.8,0.2,7.3,0.3c0.1,0,0.2,0,0.3,0c0.2-0.7,0.5-1.3,0.7-1.9C-134.9,389.4-137.1,389.2-139.3,389.1L-139.3,389.1z"/>
			<path class="st0" d="M-238,387.2L-238,387.2c0,0.4,0.1,0.8,0.3,1.2c0-0.3,0-0.6,0.1-0.9C-237.6,387.3-237.8,387.2-238,387.2
				L-238,387.2z"/>
			<path class="st0" d="M-237.3,387.4c-0.1,0.5-0.2,1.1-0.2,1.5c0,0.1,0.2,0.2,0.4,0.2c2.5-0.2,4.9-0.3,7.4-0.4
				c0.3,0,0.5-0.1,0.5-0.3c0.1-0.6,0.2-1.1,0.3-1.6c0-0.2-0.2-0.3-0.4-0.2c-2.5,0.2-5,0.4-7.5,0.6
				C-237.1,387.2-237.3,387.3-237.3,387.4L-237.3,387.4z"/>
			<path class="st0" d="M-228.7,386.8c-0.1,0.6-0.2,1.1-0.3,1.6c0,0.2,0.1,0.3,0.4,0.3c2.5-0.1,4.9-0.3,7.4-0.4
				c0.3,0,0.5-0.2,0.5-0.3c0.1-0.6,0.3-1.2,0.4-1.7c0-0.2-0.1-0.3-0.4-0.3c-2.5,0.1-5,0.3-7.5,0.5
				C-228.4,386.5-228.7,386.6-228.7,386.8L-228.7,386.8z"/>
			<path class="st0" d="M-220.1,386.3c-0.1,0.6-0.3,1.2-0.4,1.7c0,0.2,0.1,0.3,0.4,0.3c2.5-0.1,4.9-0.2,7.4-0.3
				c0.3,0,0.5-0.2,0.5-0.3c0.2-0.6,0.3-1.2,0.5-1.8c0-0.2-0.1-0.3-0.4-0.3c-2.5,0.1-5,0.2-7.5,0.4
				C-219.8,385.9-220,386.1-220.1,386.3L-220.1,386.3z"/>
			<path class="st0" d="M-211.5,387.9c2.5-0.1,5-0.2,7.5-0.2c0.3,0,0.5-0.2,0.5-0.3c0.2-0.6,0.4-1.2,0.6-1.8c0-0.2-0.1-0.3-0.4-0.3
				c-2.5,0.1-5,0.2-7.5,0.3c-0.3,0-0.5,0.2-0.6,0.3c-0.2,0.6-0.3,1.2-0.5,1.8C-211.8,387.9-211.7,387.9-211.5,387.9L-211.5,387.9z"
				/>
			<path class="st0" d="M-202.8,387.8c2.5-0.1,5-0.1,7.5-0.1c0.3,0,0.5-0.1,0.6-0.3c0.2-0.6,0.4-1.2,0.7-1.9
				c0.1-0.2-0.1-0.3-0.4-0.3c-2.5,0-5,0.1-7.6,0.2c-0.3,0-0.5,0.2-0.6,0.3c-0.2,0.6-0.4,1.2-0.6,1.8
				C-203.2,387.6-203.1,387.8-202.8,387.8L-202.8,387.8z"/>
			<path class="st0" d="M-194.2,387.6c2.5,0,5,0,7.5-0.1c0.3,0,0.5-0.1,0.6-0.3c0.3-0.7,0.5-1.2,0.8-1.9c0.1-0.2-0.1-0.3-0.3-0.3
				c-2.5,0-5,0-7.6,0.1c-0.3,0-0.5,0.2-0.6,0.3c-0.2,0.6-0.4,1.2-0.7,1.9C-194.6,387.5-194.5,387.6-194.2,387.6L-194.2,387.6z"/>
			<path class="st0" d="M-185.6,387.5c2.5,0,5,0,7.5,0c0.3,0,0.5-0.1,0.6-0.3c0.3-0.6,0.6-1.2,0.8-1.8c0.1-0.2-0.1-0.3-0.3-0.3
				c-2.5,0-5,0-7.6,0c-0.3,0-0.5,0.1-0.6,0.3c-0.3,0.7-0.5,1.2-0.7,1.9C-186,387.4-185.9,387.5-185.6,387.5L-185.6,387.5z"/>
			<path class="st0" d="M-176.9,387.6c2.5,0,5,0.1,7.5,0.1c0.3,0,0.5-0.1,0.6-0.3c0.3-0.6,0.6-1.2,0.9-1.8c0.1-0.2-0.1-0.3-0.3-0.3
				c-2.5-0.1-5-0.1-7.6-0.2c-0.3,0-0.5,0.1-0.6,0.3c-0.3,0.6-0.6,1.2-0.8,1.8C-177.3,387.4-177.1,387.6-176.9,387.6L-176.9,387.6z"
				/>
			<path class="st0" d="M-168.3,387.7c2.5,0.1,5,0.1,7.5,0.2c0.3,0,0.5-0.1,0.6-0.3c0.3-0.6,0.7-1.2,1-1.7c0.1-0.2,0-0.3-0.3-0.3
				c-2.5-0.1-5-0.2-7.6-0.3c-0.3,0-0.5,0.1-0.6,0.3c-0.3,0.6-0.6,1.2-0.9,1.8C-168.7,387.6-168.5,387.7-168.3,387.7L-168.3,387.7z"
				/>
			<path class="st0" d="M-159.7,387.9c2.5,0.1,5,0.2,7.4,0.3c0.3,0,0.5-0.1,0.6-0.3c0.4-0.6,0.7-1.2,1.1-1.7c0.1-0.2,0-0.3-0.3-0.3
				c-2.5-0.1-5-0.3-7.5-0.4c-0.3,0-0.5,0.1-0.6,0.3c-0.3,0.6-0.7,1.2-1,1.7C-160.1,387.8-159.9,387.9-159.7,387.9L-159.7,387.9z"/>
			<path class="st0" d="M-143.1,388.3c0.4-0.6,0.8-1.1,1.2-1.5c0.1-0.1,0-0.3-0.3-0.3c-2.5-0.2-5-0.3-7.5-0.5
				c-0.3,0-0.5,0.1-0.6,0.3c-0.4,0.6-0.7,1.2-1.1,1.6c-0.1,0.2,0,0.3,0.3,0.3c2.5,0.1,4.9,0.2,7.4,0.4
				C-143.5,388.6-143.2,388.5-143.1,388.3L-143.1,388.3z"/>
			<path class="st0" d="M-134.5,388.8c0.4-0.5,0.8-1,1.2-1.4c0.1-0.1,0-0.3-0.3-0.3c-2.5-0.2-5-0.4-7.5-0.6c-0.3,0-0.5,0.1-0.6,0.2
				c-0.4,0.5-0.8,1.1-1.2,1.5c-0.1,0.1,0,0.3,0.3,0.3c2.5,0.1,4.9,0.3,7.4,0.4C-135,389.1-134.7,389-134.5,388.8L-134.5,388.8z"/>
			<path class="st0" d="M-132.4,387.2c-0.3,0-0.6,0.1-0.7,0.2c-0.4,0.5-0.8,1-1.2,1.4c-0.1,0.1,0,0.3,0.2,0.3c0.5,0,1,0.1,1.4,0.1
				c0.2-0.7,0.5-1.3,0.7-2C-132.1,387.2-132.2,387.2-132.4,387.2L-132.4,387.2z"/>
			<path class="st0" d="M-232.6,386.2c0.1-0.6,0.2-1.1,0.3-1.6c0-0.2-0.1-0.3-0.4-0.2c-2,0.2-4,0.4-6,0.6c0.2,0.7,0.4,1.3,0.6,1.9
				c1.6-0.1,3.4-0.2,5.1-0.4C-232.9,386.5-232.7,386.4-232.6,386.2L-232.6,386.2z"/>
			<path class="st0" d="M-232,386.4c2.5-0.2,5-0.4,7.5-0.5c0.3,0,0.5-0.2,0.5-0.3c0.1-0.6,0.3-1.2,0.4-1.7c0-0.2-0.1-0.3-0.4-0.3
				c-2.5,0.2-5.1,0.4-7.6,0.6c-0.3,0-0.5,0.2-0.5,0.3c-0.1,0.6-0.2,1.1-0.4,1.6C-232.4,386.4-232.3,386.5-232,386.4L-232,386.4z"/>
			<path class="st0" d="M-223.3,385.8c2.5-0.2,5-0.3,7.5-0.4c0.3,0,0.5-0.2,0.5-0.3c0.2-0.6,0.3-1.2,0.5-1.8
				c0.1-0.2-0.1-0.3-0.4-0.3c-2.5,0.2-5.1,0.3-7.6,0.5c-0.3,0-0.5,0.2-0.5,0.3c-0.1,0.6-0.3,1.2-0.4,1.7
				C-223.7,385.7-223.5,385.8-223.3,385.8L-223.3,385.8z"/>
			<path class="st0" d="M-214.6,385.4c2.5-0.1,5-0.2,7.6-0.3c0.3,0,0.5-0.2,0.6-0.3c0.2-0.6,0.4-1.2,0.6-1.8
				c0.1-0.2-0.1-0.3-0.4-0.3c-2.6,0.1-5.1,0.3-7.6,0.4c-0.3,0-0.5,0.2-0.6,0.3c-0.2,0.6-0.4,1.2-0.5,1.8
				C-215,385.3-214.8,385.4-214.6,385.4L-214.6,385.4z"/>
			<path class="st0" d="M-205.9,385.1c2.5-0.1,5-0.2,7.6-0.2c0.3,0,0.5-0.2,0.6-0.3c0.2-0.7,0.4-1.2,0.7-1.9
				c0.1-0.2-0.1-0.3-0.4-0.3c-2.6,0.1-5.1,0.2-7.7,0.3c-0.2,0-0.5,0.2-0.6,0.3c-0.2,0.6-0.4,1.2-0.6,1.8
				C-206.3,384.9-206.1,385.1-205.9,385.1L-205.9,385.1z"/>
			<path class="st0" d="M-197.1,384.8c2.5,0,5.1-0.1,7.6-0.1c0.3,0,0.5-0.1,0.6-0.3c0.2-0.7,0.5-1.2,0.7-1.9
				c0.1-0.2-0.1-0.3-0.4-0.3c-2.6,0-5.1,0.1-7.7,0.1c-0.3,0-0.5,0.2-0.6,0.3c-0.2,0.7-0.4,1.2-0.7,1.9
				C-197.5,384.7-197.4,384.8-197.1,384.8L-197.1,384.8z"/>
			<path class="st0" d="M-188.4,384.7c2.5,0,5.1,0,7.6,0c0.3,0,0.5-0.1,0.6-0.3c0.3-0.6,0.5-1.2,0.8-1.8c0.1-0.2-0.1-0.3-0.3-0.3
				c-2.6,0-5.1,0-7.7,0c-0.3,0-0.5,0.1-0.6,0.3c-0.3,0.7-0.5,1.2-0.7,1.9C-188.7,384.5-188.5,384.7-188.4,384.7L-188.4,384.7z"/>
			<path class="st0" d="M-179.6,384.7c2.5,0,5.1,0.1,7.6,0.1c0.3,0,0.5-0.1,0.6-0.3c0.3-0.6,0.6-1.2,0.9-1.8
				c0.1-0.2-0.1-0.3-0.3-0.3c-2.6-0.1-5.1-0.1-7.7-0.2c-0.3,0-0.5,0.1-0.6,0.3c-0.3,0.7-0.5,1.2-0.8,1.8
				C-180,384.6-179.8,384.7-179.6,384.7L-179.6,384.7z"/>
			<path class="st0" d="M-170.8,384.9c2.5,0.1,5,0.1,7.6,0.2c0.3,0,0.5-0.1,0.6-0.3c0.3-0.6,0.6-1.2,1-1.7c0.1-0.2-0.1-0.3-0.3-0.3
				c-2.5-0.1-5.1-0.2-7.6-0.3c-0.3,0-0.5,0.1-0.6,0.3c-0.3,0.6-0.6,1.2-0.9,1.8C-171.2,384.7-171.1,384.8-170.8,384.9L-170.8,384.9z
				"/>
			<path class="st0" d="M-153.3,383.2c-2.5-0.2-5.1-0.3-7.6-0.4c-0.3,0-0.5,0.1-0.6,0.3c-0.3,0.6-0.6,1.2-1,1.7
				c-0.1,0.2,0.1,0.3,0.3,0.3c2.5,0.1,5,0.2,7.6,0.3c0.3,0,0.5-0.1,0.6-0.3c0.3-0.6,0.7-1.2,1-1.7
				C-152.9,383.3-153,383.2-153.3,383.2L-153.3,383.2z"/>
			<path class="st0" d="M-144.5,383.8c-2.5-0.2-5.1-0.4-7.6-0.6c-0.3,0-0.5,0.1-0.6,0.3c-0.3,0.6-0.7,1.2-1,1.7
				c-0.1,0.2,0,0.3,0.3,0.3c2.5,0.1,5,0.3,7.5,0.5c0.3,0,0.5-0.1,0.6-0.2c0.4-0.6,0.7-1.1,1.1-1.6
				C-144.1,383.9-144.2,383.8-144.5,383.8L-144.5,383.8z"/>
			<path class="st0" d="M-135.7,384.6c-2.5-0.2-5.1-0.5-7.6-0.7c-0.3,0-0.5,0.1-0.7,0.2c-0.4,0.6-0.7,1.1-1.1,1.6
				c-0.1,0.1,0,0.3,0.3,0.3c2.5,0.2,5,0.4,7.5,0.5c0.3,0,0.6-0.1,0.7-0.2c0.4-0.5,0.8-1,1.2-1.4
				C-135.3,384.7-135.4,384.6-135.7,384.6L-135.7,384.6z"/>
			<path class="st0" d="M-134.5,384.7c-0.3,0-0.5,0.1-0.7,0.2c-0.4,0.5-0.8,1-1.2,1.4c-0.1,0.1,0,0.3,0.3,0.3
				c1.4,0.1,2.8,0.2,4.2,0.4c0.2-0.7,0.4-1.3,0.6-1.9C-132.3,384.9-133.4,384.8-134.5,384.7L-134.5,384.7z"/>
			<path class="st0" d="M-235.7,384.1c0.1-0.6,0.2-1.1,0.4-1.6c0-0.2-0.1-0.2-0.4-0.2c-1.2,0.1-2.5,0.3-3.6,0.5
				c0.2,0.7,0.4,1.2,0.6,1.9c0.9-0.1,1.8-0.2,2.7-0.3C-236,384.4-235.7,384.3-235.7,384.1L-235.7,384.1z"/>
			<path class="st0" d="M-235,384.3c2.5-0.2,5.1-0.5,7.6-0.7c0.3,0,0.5-0.2,0.5-0.3c0.1-0.6,0.3-1.2,0.5-1.7c0-0.2-0.1-0.3-0.4-0.2
				c-2.6,0.3-5.1,0.5-7.7,0.8c-0.3,0-0.5,0.2-0.5,0.3c-0.1,0.6-0.3,1.1-0.4,1.6C-235.4,384.2-235.2,384.3-235,384.3L-235,384.3z"/>
			<path class="st0" d="M-226.2,383.5c2.5-0.2,5.1-0.4,7.6-0.6c0.3,0,0.5-0.2,0.5-0.3c0.2-0.6,0.3-1.2,0.5-1.7
				c0.1-0.2-0.1-0.3-0.4-0.3c-2.6,0.2-5.1,0.4-7.7,0.7c-0.3,0-0.5,0.2-0.6,0.3c-0.2,0.6-0.3,1.2-0.5,1.7
				C-226.6,383.4-226.5,383.5-226.2,383.5L-226.2,383.5z"/>
			<path class="st0" d="M-217.4,382.9c2.5-0.2,5.1-0.3,7.6-0.5c0.3,0,0.5-0.2,0.6-0.3c0.2-0.6,0.4-1.2,0.6-1.8
				c0.1-0.2-0.1-0.3-0.4-0.3c-2.6,0.2-5.2,0.3-7.7,0.5c-0.3,0-0.5,0.2-0.6,0.3c-0.2,0.6-0.4,1.2-0.5,1.8
				C-217.8,382.8-217.7,382.9-217.4,382.9L-217.4,382.9z"/>
			<path class="st0" d="M-200.1,379.6c-2.6,0.1-5.2,0.2-7.7,0.4c-0.3,0-0.5,0.2-0.6,0.3c-0.2,0.6-0.4,1.2-0.6,1.8
				c-0.1,0.2,0.1,0.3,0.4,0.3c2.6-0.1,5.1-0.2,7.7-0.3c0.3,0,0.5-0.2,0.6-0.3c0.2-0.6,0.4-1.2,0.7-1.8
				C-199.7,379.7-199.9,379.6-200.1,379.6L-200.1,379.6z"/>
			<path class="st0" d="M-191.1,379.4c-2.6,0-5.2,0.1-7.7,0.2c-0.3,0-0.5,0.2-0.6,0.3c-0.2,0.6-0.4,1.2-0.7,1.8
				c-0.1,0.2,0.1,0.3,0.4,0.3c2.6-0.1,5.1-0.1,7.7-0.2c0.3,0,0.5-0.1,0.6-0.3c0.2-0.7,0.5-1.2,0.7-1.9
				C-190.8,379.5-190.9,379.4-191.1,379.4L-191.1,379.4z"/>
			<path class="st0" d="M-182.2,379.3c-2.6,0-5.2,0-7.7,0c-0.3,0-0.5,0.1-0.6,0.3c-0.2,0.7-0.5,1.2-0.7,1.9
				c-0.1,0.2,0.1,0.3,0.4,0.3c2.5,0,5.1,0,7.7,0c0.3,0,0.5-0.1,0.6-0.3c0.3-0.7,0.5-1.2,0.8-1.9
				C-181.8,379.5-181.9,379.3-182.2,379.3L-182.2,379.3z"/>
			<path class="st0" d="M-182,381.8c2.6,0,5.1,0.1,7.7,0.1c0.3,0,0.5-0.1,0.6-0.3c0.3-0.6,0.6-1.2,0.9-1.8c0.1-0.2-0.1-0.3-0.3-0.3
				c-2.6-0.1-5.1-0.1-7.7-0.2c-0.3,0-0.5,0.1-0.6,0.3c-0.3,0.6-0.5,1.2-0.8,1.8C-182.4,381.7-182.2,381.8-182,381.8L-182,381.8z"/>
			<path class="st0" d="M-164.4,379.9c-2.6-0.1-5.1-0.2-7.7-0.3c-0.3,0-0.5,0.1-0.6,0.3c-0.3,0.6-0.6,1.2-0.9,1.8
				c-0.1,0.2,0.1,0.3,0.3,0.3c2.6,0.1,5.1,0.2,7.7,0.3c0.3,0,0.5-0.1,0.6-0.3c0.3-0.6,0.6-1.2,0.9-1.8
				C-163.9,380-164.1,379.9-164.4,379.9L-164.4,379.9z"/>
			<path class="st0" d="M-155.4,380.4c-2.6-0.2-5.1-0.3-7.7-0.5c-0.3,0-0.5,0.1-0.6,0.3c-0.3,0.6-0.6,1.2-0.9,1.8
				c-0.1,0.2,0.1,0.3,0.3,0.3c2.6,0.1,5.1,0.3,7.7,0.4c0.3,0,0.5-0.1,0.6-0.3c0.3-0.6,0.7-1.2,1-1.7
				C-155,380.6-155.2,380.4-155.4,380.4L-155.4,380.4z"/>
			<path class="st0" d="M-146.5,381.1c-2.6-0.2-5.1-0.5-7.7-0.7c-0.2,0-0.5,0.1-0.6,0.3c-0.3,0.6-0.6,1.2-1,1.7
				c-0.1,0.2,0,0.3,0.3,0.3c2.5,0.2,5.1,0.3,7.6,0.5c0.3,0,0.5-0.1,0.6-0.2c0.3-0.6,0.7-1.1,1-1.6
				C-146.1,381.2-146.3,381.1-146.5,381.1L-146.5,381.1z"/>
			<path class="st0" d="M-137.6,382c-2.6-0.3-5.1-0.5-7.7-0.8c-0.3,0-0.5,0.1-0.6,0.2c-0.3,0.6-0.7,1.1-1,1.6
				c-0.1,0.2,0,0.3,0.3,0.3c2.5,0.2,5.1,0.4,7.6,0.7c0.3,0,0.5-0.1,0.7-0.2c0.4-0.5,0.7-1,1.1-1.4C-137.3,382.1-137.4,382-137.6,382
				L-137.6,382z"/>
			<path class="st0" d="M-136.4,382.1c-0.3,0-0.5,0.1-0.6,0.2c-0.4,0.5-0.7,1-1.1,1.4c-0.1,0.1,0,0.3,0.3,0.3
				c2.2,0.2,4.5,0.4,6.7,0.7c0.2-0.7,0.4-1.3,0.6-1.9C-132.6,382.6-134.5,382.3-136.4,382.1L-136.4,382.1z"/>
			<path class="st0" d="M-238.7,382.2c0.1-0.5,0.3-1.1,0.4-1.5c0-0.2-0.1-0.2-0.4-0.2c-0.4,0.1-0.9,0.1-1.2,0.2
				c0.2,0.7,0.3,1.2,0.5,1.9c0.1,0,0.2,0,0.3,0C-239,382.5-238.8,382.3-238.7,382.2L-238.7,382.2z"/>
			<path class="st0" d="M-238,380.6c-0.1,0.5-0.3,1.1-0.4,1.5c0,0.1,0.1,0.2,0.4,0.2c2.5-0.3,5.1-0.6,7.7-0.9c0.3,0,0.5-0.2,0.5-0.3
				c0.2-0.6,0.3-1.2,0.5-1.6c0-0.2-0.1-0.3-0.4-0.2c-2.6,0.3-5.2,0.7-7.8,1C-237.7,380.3-237.9,380.4-238,380.6L-238,380.6z"/>
			<path class="st0" d="M-229,379.4c-0.2,0.6-0.3,1.2-0.5,1.6c0,0.2,0.1,0.3,0.4,0.2c2.6-0.3,5.1-0.5,7.7-0.8c0.3,0,0.5-0.2,0.6-0.3
				c0.2-0.6,0.4-1.2,0.6-1.7c0-0.2-0.1-0.3-0.4-0.2c-2.6,0.3-5.2,0.6-7.8,0.9C-228.7,379.1-229,379.3-229,379.4L-229,379.4z"/>
			<path class="st0" d="M-211.7,377.5c-2.6,0.2-5.2,0.4-7.8,0.7c-0.3,0-0.5,0.2-0.6,0.3c-0.2,0.6-0.4,1.2-0.6,1.7
				c-0.1,0.2,0.1,0.3,0.4,0.3c2.6-0.2,5.2-0.4,7.7-0.6c0.3,0,0.5-0.2,0.6-0.3c0.2-0.6,0.4-1.2,0.6-1.8
				C-211.4,377.6-211.5,377.5-211.7,377.5L-211.7,377.5z"/>
			<path class="st0" d="M-202.7,376.9c-2.6,0.1-5.2,0.3-7.8,0.5c-0.3,0-0.5,0.2-0.6,0.3c-0.2,0.6-0.4,1.2-0.6,1.8
				c-0.1,0.2,0.1,0.3,0.4,0.3c2.6-0.2,5.2-0.3,7.7-0.4c0.3,0,0.5-0.2,0.6-0.3c0.2-0.6,0.5-1.2,0.7-1.8
				C-202.4,377.1-202.4,376.9-202.7,376.9L-202.7,376.9z"/>
			<path class="st0" d="M-193.7,376.6c-2.6,0.1-5.2,0.2-7.8,0.3c-0.3,0-0.5,0.2-0.6,0.3c-0.2,0.6-0.5,1.2-0.7,1.8
				c-0.1,0.2,0.1,0.3,0.4,0.3c2.6-0.1,5.2-0.2,7.7-0.3c0.3,0,0.5-0.2,0.6-0.3c0.3-0.7,0.5-1.2,0.7-1.9
				C-193.3,376.7-193.4,376.6-193.7,376.6L-193.7,376.6z"/>
			<path class="st0" d="M-184.7,376.5c-2.6,0-5.2,0-7.8,0.1c-0.3,0-0.5,0.2-0.6,0.3c-0.2,0.7-0.5,1.2-0.7,1.9
				c-0.1,0.2,0.1,0.3,0.3,0.3c2.6,0,5.2-0.1,7.8-0.1c0.3,0,0.5-0.1,0.6-0.3c0.2-0.6,0.5-1.2,0.8-1.8
				C-184.3,376.6-184.4,376.5-184.7,376.5L-184.7,376.5z"/>
			<path class="st0" d="M-175.7,376.6c-2.6-0.1-5.2-0.1-7.8-0.1c-0.3,0-0.5,0.1-0.6,0.3c-0.3,0.6-0.5,1.2-0.8,1.8
				c-0.1,0.2,0.1,0.3,0.3,0.3c2.6,0,5.2,0,7.7,0.1c0.3,0,0.5-0.1,0.6-0.3c0.3-0.6,0.6-1.2,0.8-1.8
				C-175.3,376.8-175.4,376.6-175.7,376.6L-175.7,376.6z"/>
			<path class="st0" d="M-166.7,377c-2.6-0.1-5.2-0.2-7.8-0.3c-0.3,0-0.5,0.1-0.6,0.3c-0.3,0.6-0.5,1.2-0.8,1.8
				c-0.1,0.2,0.1,0.3,0.3,0.3c2.6,0.1,5.2,0.2,7.7,0.3c0.3,0,0.5-0.1,0.6-0.3c0.3-0.6,0.6-1.2,0.9-1.8
				C-166.3,377.1-166.4,377-166.7,377L-166.7,377z"/>
			<path class="st0" d="M-158.3,379.6c0.3-0.6,0.6-1.2,0.9-1.7c0.1-0.2-0.1-0.3-0.3-0.3c-2.6-0.2-5.2-0.4-7.8-0.5
				c-0.3,0-0.5,0.1-0.6,0.3c-0.3,0.6-0.6,1.2-0.9,1.8c-0.1,0.2,0.1,0.3,0.3,0.3c2.6,0.1,5.2,0.3,7.7,0.4
				C-158.6,379.8-158.4,379.7-158.3,379.6L-158.3,379.6z"/>
			<path class="st0" d="M-149.3,380.3c0.3-0.6,0.7-1.1,1-1.6c0.1-0.1-0.1-0.3-0.3-0.3c-2.6-0.3-5.2-0.5-7.8-0.7
				c-0.3,0-0.5,0.1-0.6,0.3c-0.3,0.6-0.6,1.2-0.9,1.7c-0.1,0.2,0.1,0.3,0.3,0.3c2.6,0.2,5.2,0.4,7.7,0.6
				C-149.7,380.5-149.4,380.4-149.3,380.3L-149.3,380.3z"/>
			<path class="st0" d="M-140.4,381.1c0.4-0.5,0.7-1,1.1-1.5c0.1-0.1,0-0.3-0.3-0.3c-2.6-0.3-5.2-0.6-7.8-0.9
				c-0.3,0-0.5,0.1-0.6,0.2c-0.3,0.6-0.7,1.1-1,1.6c-0.1,0.2,0.1,0.3,0.3,0.3c2.6,0.2,5.2,0.5,7.7,0.8
				C-140.7,381.3-140.5,381.2-140.4,381.1L-140.4,381.1z"/>
			<path class="st0" d="M-131.5,382.1c0.4-0.5,0.8-1,1.1-1.3c0.1-0.1,0-0.3-0.3-0.3c-2.6-0.4-5.2-0.7-7.8-1.1
				c-0.3,0-0.6,0.1-0.6,0.2c-0.3,0.5-0.7,1-1.1,1.5c-0.1,0.1,0,0.3,0.3,0.3c2.6,0.3,5.1,0.6,7.7,0.9
				C-131.9,382.4-131.6,382.3-131.5,382.1L-131.5,382.1z"/>
			<path class="st0" d="M-131.2,382.2c-0.1,0.1,0,0.3,0.3,0.3c0.1,0,0.3,0,0.4,0.1c0.1-0.6,0.3-1.1,0.4-1.6
				C-130.5,381.3-130.8,381.7-131.2,382.2L-131.2,382.2z"/>
			<path class="st0" d="M-232.7,379c0.2-0.6,0.3-1.1,0.5-1.6c0.1-0.2-0.1-0.2-0.4-0.2c-2.6,0.4-5.2,0.8-7.8,1.2
				c0.1,0.7,0.3,1.2,0.4,1.9c2.2-0.3,4.5-0.7,6.7-1C-233,379.3-232.8,379.2-232.7,379L-232.7,379z"/>
			<path class="st0" d="M-232.1,379.2c2.6-0.3,5.2-0.7,7.8-1c0.3,0,0.5-0.2,0.6-0.3c0.2-0.6,0.4-1.2,0.6-1.7
				c0.1-0.2-0.1-0.3-0.4-0.2c-2.6,0.3-5.3,0.7-7.9,1.1c-0.3,0-0.5,0.2-0.6,0.4c-0.2,0.6-0.4,1.1-0.5,1.6
				C-232.5,379.2-232.3,379.3-232.1,379.2L-232.1,379.2z"/>
			<path class="st0" d="M-214.4,375.1c-2.6,0.3-5.3,0.5-7.9,0.8c-0.3,0-0.5,0.2-0.6,0.4c-0.2,0.6-0.4,1.2-0.6,1.7
				c-0.1,0.2,0.1,0.3,0.4,0.2c2.6-0.3,5.2-0.5,7.8-0.8c0.3,0,0.5-0.2,0.6-0.3c0.2-0.6,0.4-1.2,0.7-1.8
				C-214,375.2-214.1,375.1-214.4,375.1L-214.4,375.1z"/>
			<path class="st0" d="M-205.3,374.3c-2.6,0.2-5.2,0.4-7.9,0.6c-0.3,0-0.5,0.2-0.6,0.3c-0.2,0.6-0.5,1.2-0.7,1.8
				c-0.1,0.2,0.1,0.3,0.4,0.3c2.6-0.2,5.2-0.4,7.8-0.6c0.3,0,0.5-0.2,0.6-0.3c0.2-0.6,0.5-1.2,0.7-1.8
				C-204.9,374.5-205,374.3-205.3,374.3L-205.3,374.3z"/>
			<path class="st0" d="M-196.3,374c-2.6,0.1-5.2,0.2-7.9,0.4c-0.3,0-0.5,0.2-0.6,0.3c-0.2,0.6-0.5,1.2-0.7,1.8
				c-0.1,0.2,0.1,0.3,0.4,0.3c2.6-0.1,5.2-0.3,7.8-0.4c0.3,0,0.5-0.2,0.6-0.3c0.2-0.6,0.5-1.2,0.7-1.8C-195.8,374-196,374-196.3,374
				L-196.3,374z"/>
			<path class="st0" d="M-187.2,373.8c-2.6,0-5.2,0.1-7.8,0.2c-0.3,0-0.5,0.2-0.6,0.3c-0.2,0.6-0.5,1.2-0.8,1.8
				c-0.1,0.2,0.1,0.3,0.4,0.3c2.6-0.1,5.2-0.1,7.8-0.2c0.3,0,0.5-0.1,0.6-0.3c0.3-0.6,0.5-1.2,0.8-1.8
				C-186.8,373.9-187,373.8-187.2,373.8L-187.2,373.8z"/>
			<path class="st0" d="M-178.2,373.8c-2.6-0.1-5.2-0.1-7.8-0.1c-0.3,0-0.5,0.1-0.6,0.3c-0.3,0.6-0.5,1.2-0.8,1.8
				c-0.1,0.2,0.1,0.3,0.4,0.3c2.6,0,5.2,0,7.8,0c0.3,0,0.5-0.1,0.6-0.3c0.3-0.6,0.5-1.2,0.8-1.8C-177.8,374-177.9,373.8-178.2,373.8
				L-178.2,373.8z"/>
			<path class="st0" d="M-169.1,374.1c-2.6-0.1-5.2-0.2-7.8-0.3c-0.3,0-0.5,0.1-0.6,0.3c-0.3,0.6-0.5,1.2-0.8,1.8
				c-0.1,0.2,0.1,0.3,0.3,0.3c2.6,0.1,5.2,0.1,7.8,0.3c0.3,0,0.5-0.1,0.6-0.3c0.3-0.6,0.6-1.2,0.8-1.8
				C-168.7,374.2-168.9,374.1-169.1,374.1L-169.1,374.1z"/>
			<path class="st0" d="M-160.1,374.7c-2.6-0.2-5.2-0.4-7.9-0.5c-0.3,0-0.5,0.1-0.6,0.3c-0.3,0.6-0.6,1.2-0.8,1.8
				c-0.1,0.2,0.1,0.3,0.3,0.3c2.6,0.1,5.2,0.3,7.8,0.5c0.3,0,0.5-0.1,0.6-0.3c0.3-0.6,0.6-1.2,0.9-1.7
				C-159.7,374.9-159.8,374.7-160.1,374.7L-160.1,374.7z"/>
			<path class="st0" d="M-151,375.6c-2.6-0.3-5.3-0.5-7.9-0.8c-0.3,0-0.5,0.1-0.6,0.2c-0.3,0.6-0.6,1.2-0.9,1.7
				c-0.1,0.2,0.1,0.3,0.3,0.3c2.6,0.2,5.2,0.4,7.8,0.7c0.3,0,0.5-0.1,0.6-0.2c0.3-0.6,0.6-1.1,0.9-1.6
				C-150.6,375.7-150.7,375.6-151,375.6L-151,375.6z"/>
			<path class="st0" d="M-141.9,376.6c-2.6-0.4-5.3-0.7-7.9-1c-0.3,0-0.5,0.1-0.6,0.2c-0.3,0.6-0.6,1.1-0.9,1.6
				c-0.1,0.2,0.1,0.3,0.3,0.3c2.6,0.3,5.2,0.5,7.8,0.8c0.3,0,0.6-0.1,0.6-0.2c0.3-0.5,0.7-1,1-1.5
				C-141.5,376.8-141.6,376.6-141.9,376.6L-141.9,376.6z"/>
			<path class="st0" d="M-132.8,377.9c-2.6-0.4-5.3-0.8-7.9-1.2c-0.3,0-0.5,0-0.6,0.2c-0.3,0.5-0.7,1-1,1.5
				c-0.1,0.1,0.1,0.3,0.3,0.3c2.6,0.3,5.2,0.7,7.8,1c0.3,0,0.6,0,0.7-0.2c0.4-0.5,0.7-1,1.1-1.3C-132.4,378.1-132.5,378-132.8,377.9
				L-132.8,377.9z"/>
			<path class="st0" d="M-131.5,378.1c-0.3,0-0.6,0-0.7,0.2c-0.4,0.5-0.7,0.9-1.1,1.3c-0.1,0.1,0,0.3,0.3,0.3c1,0.1,1.9,0.3,2.9,0.4
				c0.1-0.7,0.3-1.2,0.4-1.9C-130.3,378.4-130.8,378.3-131.5,378.1L-131.5,378.1z"/>
			<path class="st0" d="M-235.6,377.1c0.2-0.6,0.4-1.1,0.6-1.6c0-0.2-0.1-0.2-0.4-0.2c-1.8,0.3-3.5,0.6-5.4,1
				c0.1,0.7,0.2,1.2,0.3,1.9c1.4-0.2,2.9-0.5,4.3-0.7C-235.9,377.4-235.7,377.3-235.6,377.1L-235.6,377.1z"/>
			<path class="st0" d="M-226.2,374c-2.7,0.4-5.3,0.8-8,1.2c-0.3,0-0.5,0.2-0.6,0.4c-0.2,0.6-0.4,1.1-0.6,1.6c0,0.1,0.1,0.2,0.4,0.2
				c2.6-0.4,5.3-0.8,7.9-1.1c0.3,0,0.5-0.2,0.6-0.4c0.2-0.6,0.4-1.2,0.7-1.7C-225.8,374-226,373.9-226.2,374L-226.2,374z"/>
			<path class="st0" d="M-217.1,372.8c-2.6,0.3-5.3,0.7-8,1c-0.3,0-0.5,0.2-0.6,0.4c-0.2,0.6-0.5,1.2-0.7,1.7
				c-0.1,0.2,0.1,0.3,0.4,0.2c2.6-0.3,5.3-0.7,7.9-0.9c0.3,0,0.5-0.2,0.6-0.3c0.2-0.6,0.5-1.2,0.7-1.7
				C-216.6,372.8-216.8,372.7-217.1,372.8L-217.1,372.8z"/>
			<path class="st0" d="M-207.9,371.8c-2.6,0.2-5.3,0.5-7.9,0.8c-0.3,0-0.5,0.2-0.6,0.4c-0.2,0.6-0.5,1.2-0.7,1.8
				c-0.1,0.2,0.1,0.3,0.4,0.3c2.6-0.3,5.2-0.5,7.9-0.7c0.3,0,0.5-0.2,0.6-0.3c0.2-0.6,0.5-1.2,0.7-1.8
				C-207.5,371.9-207.7,371.8-207.9,371.8L-207.9,371.8z"/>
			<path class="st0" d="M-198.8,371.3c-2.6,0.1-5.3,0.3-7.9,0.5c-0.3,0-0.5,0.2-0.6,0.3c-0.2,0.6-0.5,1.2-0.7,1.8
				c-0.1,0.2,0.1,0.3,0.4,0.3c2.6-0.2,5.2-0.4,7.9-0.5c0.3,0,0.5-0.2,0.6-0.3c0.2-0.6,0.5-1.2,0.8-1.8
				C-198.4,371.4-198.6,371.3-198.8,371.3L-198.8,371.3z"/>
			<path class="st0" d="M-189.8,371c-2.6,0.1-5.2,0.1-7.9,0.3c-0.3,0-0.5,0.2-0.6,0.3c-0.3,0.6-0.5,1.2-0.8,1.8
				c-0.1,0.2,0.1,0.3,0.4,0.3c2.6-0.1,5.2-0.2,7.8-0.3c0.3,0,0.5-0.1,0.6-0.3c0.3-0.6,0.5-1.2,0.8-1.8
				C-189.3,371.1-189.5,371-189.8,371L-189.8,371z"/>
			<path class="st0" d="M-180.7,371c-2.6,0-5.2,0-7.9,0c-0.3,0-0.5,0.1-0.6,0.3c-0.3,0.6-0.5,1.2-0.8,1.8c-0.1,0.2,0.1,0.3,0.4,0.3
				c2.6,0,5.2,0,7.8,0c0.3,0,0.5-0.1,0.6-0.3c0.3-0.6,0.5-1.2,0.8-1.8C-180.3,371.1-180.4,371-180.7,371L-180.7,371z"/>
			<path class="st0" d="M-171.6,371.3c-2.6-0.1-5.2-0.2-7.9-0.3c-0.3,0-0.5,0.1-0.6,0.3c-0.3,0.6-0.5,1.2-0.8,1.8
				c-0.1,0.2,0.1,0.3,0.3,0.3c2.6,0,5.2,0.1,7.8,0.2c0.3,0,0.5-0.1,0.6-0.3c0.3-0.6,0.5-1.2,0.8-1.8
				C-171.2,371.4-171.4,371.3-171.6,371.3L-171.6,371.3z"/>
			<path class="st0" d="M-162.5,371.8c-2.6-0.2-5.3-0.4-7.9-0.6c-0.3,0-0.5,0.1-0.6,0.3c-0.3,0.6-0.5,1.2-0.8,1.8
				c-0.1,0.2,0.1,0.3,0.3,0.3c2.6,0.1,5.2,0.3,7.9,0.5c0.3,0,0.5-0.1,0.6-0.3c0.3-0.6,0.6-1.2,0.8-1.7
				C-162.1,372-162.3,371.8-162.5,371.8L-162.5,371.8z"/>
			<path class="st0" d="M-153.4,372.7c-2.7-0.3-5.3-0.6-7.9-0.8c-0.3,0-0.5,0.1-0.6,0.3c-0.3,0.6-0.6,1.2-0.8,1.7
				c-0.1,0.2,0.1,0.3,0.3,0.3c2.6,0.2,5.3,0.4,7.9,0.7c0.3,0,0.5-0.1,0.6-0.2c0.3-0.6,0.6-1.1,0.9-1.6
				C-153,372.9-153.1,372.8-153.4,372.7L-153.4,372.7z"/>
			<path class="st0" d="M-144.2,373.9c-2.7-0.4-5.3-0.7-8-1.1c-0.3,0-0.6,0.1-0.6,0.2c-0.3,0.6-0.6,1.1-0.9,1.6
				c-0.1,0.2,0.1,0.3,0.3,0.3c2.6,0.3,5.3,0.6,7.9,0.9c0.3,0,0.5-0.1,0.6-0.2c0.3-0.5,0.6-1,0.9-1.5C-143.8,374-144,374-144.2,373.9
				L-144.2,373.9z"/>
			<path class="st0" d="M-135,375.3c-2.7-0.5-5.3-0.9-8-1.2c-0.3,0-0.6,0-0.6,0.2c-0.3,0.5-0.6,1-0.9,1.5c-0.1,0.1,0.1,0.3,0.3,0.3
				c2.6,0.4,5.3,0.7,7.9,1.1c0.3,0,0.6,0,0.7-0.2c0.3-0.5,0.7-1,1-1.3C-134.6,375.5-134.8,375.3-135,375.3L-135,375.3z"/>
			<path class="st0" d="M-133.7,375.5c-0.3,0-0.6,0-0.6,0.1c-0.3,0.5-0.7,0.9-1,1.3c-0.1,0.1,0,0.3,0.3,0.3c1.8,0.3,3.6,0.6,5.5,0.9
				c0.1-0.7,0.2-1.2,0.3-1.9C-130.7,376.1-132.2,375.8-133.7,375.5L-133.7,375.5z"/>
			<path class="st0" d="M-238.5,375.4c0.2-0.5,0.4-1.1,0.6-1.5c0.1-0.1-0.1-0.2-0.4-0.2c-1,0.2-1.9,0.4-2.8,0.6
				c0.1,0.6,0.2,1.2,0.3,1.8c0.6-0.1,1.2-0.2,1.7-0.3C-238.8,375.7-238.6,375.5-238.5,375.4L-238.5,375.4z"/>
			<path class="st0" d="M-237.8,375.5c2.7-0.5,5.3-0.9,8-1.3c0.3,0,0.5-0.2,0.6-0.4c0.2-0.6,0.5-1.2,0.7-1.6
				c0.1-0.2-0.1-0.3-0.4-0.2c-2.7,0.5-5.4,1-8.1,1.4c-0.3,0-0.5,0.2-0.6,0.4c-0.2,0.5-0.4,1.1-0.6,1.5
				C-238.2,375.5-238.1,375.5-237.8,375.5L-237.8,375.5z"/>
			<path class="st0" d="M-228.6,374c2.7-0.4,5.3-0.8,8-1.1c0.3,0,0.5-0.2,0.6-0.4c0.2-0.6,0.5-1.2,0.7-1.7c0.1-0.2-0.1-0.3-0.4-0.2
				c-2.7,0.4-5.4,0.8-8,1.2c-0.3,0-0.5,0.2-0.6,0.4c-0.2,0.6-0.5,1.2-0.7,1.6C-229,374-228.9,374-228.6,374L-228.6,374z"/>
			<path class="st0" d="M-219.4,372.7c2.6-0.3,5.3-0.6,7.9-0.9c0.3,0,0.5-0.2,0.6-0.4c0.3-0.6,0.5-1.2,0.8-1.8
				c0.1-0.2-0.1-0.3-0.4-0.3c-2.7,0.3-5.3,0.6-8,1c-0.3,0-0.6,0.2-0.6,0.4c-0.3,0.6-0.5,1.2-0.8,1.7
				C-219.8,372.6-219.7,372.8-219.4,372.7L-219.4,372.7z"/>
			<path class="st0" d="M-210.2,371.7c2.6-0.2,5.3-0.5,7.9-0.6c0.3,0,0.5-0.2,0.6-0.3c0.3-0.6,0.5-1.2,0.8-1.8
				c0.1-0.2-0.1-0.3-0.4-0.3c-2.6,0.2-5.3,0.4-7.9,0.7c-0.3,0-0.5,0.2-0.6,0.4c-0.3,0.6-0.5,1.2-0.8,1.8
				C-210.7,371.7-210.5,371.7-210.2,371.7L-210.2,371.7z"/>
			<path class="st0" d="M-201.1,371.1c2.6-0.2,5.2-0.3,7.9-0.4c0.3,0,0.5-0.2,0.6-0.3c0.3-0.6,0.5-1.2,0.8-1.8
				c0.1-0.2-0.1-0.3-0.4-0.3c-2.6,0.1-5.2,0.2-7.9,0.4c-0.3,0-0.5,0.2-0.6,0.3c-0.3,0.6-0.5,1.2-0.8,1.8
				C-201.5,371-201.4,371.1-201.1,371.1L-201.1,371.1z"/>
			<path class="st0" d="M-192,370.7c2.6-0.1,5.2-0.1,7.8-0.1c0.3,0,0.5-0.1,0.6-0.3c0.3-0.6,0.5-1.2,0.8-1.8
				c0.1-0.2-0.1-0.3-0.4-0.3c-2.6,0-5.2,0-7.8,0.1c-0.3,0-0.5,0.1-0.6,0.3c-0.3,0.6-0.5,1.2-0.8,1.8
				C-192.5,370.6-192.3,370.7-192,370.7L-192,370.7z"/>
			<path class="st0" d="M-183,370.6c2.6,0,5.2,0.1,7.9,0.2c0.3,0,0.5-0.1,0.6-0.3c0.3-0.6,0.5-1.2,0.8-1.7c0.1-0.2-0.1-0.3-0.4-0.3
				c-2.6-0.1-5.2-0.2-7.9-0.2c-0.3,0-0.5,0.1-0.6,0.3c-0.3,0.6-0.5,1.2-0.8,1.8C-183.4,370.5-183.3,370.6-183,370.6L-183,370.6z"/>
			<path class="st0" d="M-173.9,370.8c2.6,0.1,5.2,0.3,7.9,0.4c0.3,0,0.5-0.1,0.6-0.3c0.3-0.6,0.5-1.2,0.8-1.7
				c0.1-0.2-0.1-0.3-0.4-0.3c-2.6-0.2-5.3-0.4-7.9-0.5c-0.3,0-0.5,0.1-0.6,0.3c-0.3,0.6-0.5,1.2-0.8,1.7
				C-174.3,370.7-174.2,370.8-173.9,370.8L-173.9,370.8z"/>
			<path class="st0" d="M-164.8,371.4c2.6,0.2,5.3,0.4,7.9,0.7c0.3,0,0.5-0.1,0.6-0.2c0.3-0.6,0.5-1.1,0.8-1.6
				c0.1-0.2-0.1-0.3-0.4-0.3c-2.7-0.3-5.3-0.6-7.9-0.8c-0.3,0-0.6,0.1-0.6,0.2c-0.3,0.6-0.5,1.2-0.8,1.7
				C-165.3,371.2-165.1,371.4-164.8,371.4L-164.8,371.4z"/>
			<path class="st0" d="M-155.7,372.1c2.7,0.3,5.3,0.6,8,1c0.3,0,0.6-0.1,0.6-0.2c0.3-0.5,0.6-1,0.9-1.5c0.1-0.1-0.1-0.3-0.4-0.3
				c-2.7-0.4-5.3-0.8-8-1.1c-0.3,0-0.6,0.1-0.6,0.2c-0.3,0.6-0.6,1.1-0.8,1.6C-156.1,372-156,372.1-155.7,372.1L-155.7,372.1z"/>
			<path class="st0" d="M-146.5,373.3c2.7,0.4,5.3,0.8,8,1.2c0.3,0,0.6,0,0.6-0.2c0.3-0.5,0.6-1,1-1.3c0.1-0.1-0.1-0.3-0.3-0.3
				c-2.7-0.5-5.4-0.9-8.1-1.3c-0.3,0-0.5,0-0.6,0.2c-0.3,0.5-0.6,1-0.9,1.5C-146.9,373.1-146.8,373.2-146.5,373.3L-146.5,373.3z"/>
			<path class="st0" d="M-136.1,372.8c-0.3,0-0.6,0-0.6,0.1c-0.3,0.5-0.6,1-1,1.3c-0.1,0.1,0.1,0.3,0.3,0.3c2.7,0.4,5.3,0.9,8,1.3
				c0.1,0,0.1,0,0.2,0c0.1-0.6,0.2-1.2,0.3-1.8C-131.3,373.7-133.7,373.3-136.1,372.8L-136.1,372.8z"/>
		</g>
		<path class="st0" d="M-132.6,400.7c-35.1,0-70.2,0-105.4,0c-0.1-0.3-0.1-0.6-0.2-0.9c35.2,0,70.5,0,105.6,0
			C-132.5,400.1-132.5,400.4-132.6,400.7z"/>
		<path class="st0" d="M-170.7,399.3c0-0.8,0.1-1.6,0.1-2.4c-2.4,0-4.7,0-7.1,0c0,0.8,0,1.6-0.1,2.4
			C-175.3,399.3-173,399.3-170.7,399.3z"/>
		<path class="st0" d="M-192.7,399.3c0-0.8,0-1.6-0.1-2.4c-2.4,0-4.7,0-7.1,0c0,0.8,0.1,1.6,0.1,2.4
			C-197.4,399.3-195.1,399.3-192.7,399.3z"/>
		<path class="st0" d="M-222,399.3c-0.1-0.8-0.2-1.6-0.3-2.4c-2.4,0-4.7,0-7.1,0c0.1,0.8,0.2,1.6,0.4,2.4
			C-226.7,399.3-224.4,399.3-222,399.3z"/>
		<path class="st0" d="M-185.4,399.3c0-0.8,0-1.6,0-2.4c-2.4,0-4.7,0-7.1,0c0,0.8,0,1.6,0.1,2.4C-190,399.3-187.7,399.3-185.4,399.3
			z"/>
		<path class="st0" d="M-163.3,399.3c0.1-0.8,0.1-1.6,0.2-2.4c-2.4,0-4.7,0-7.1,0c0,0.8-0.1,1.6-0.1,2.4
			C-168,399.3-165.6,399.3-163.3,399.3z"/>
		<path class="st0" d="M-214.7,399.3c-0.1-0.8-0.2-1.6-0.2-2.4c-2.4,0-4.7,0-7.1,0c0.1,0.8,0.2,1.6,0.3,2.4
			C-219.4,399.3-217,399.3-214.7,399.3z"/>
		<path class="st0" d="M-200.1,399.3c0-0.8-0.1-1.6-0.1-2.4c-2.4,0-4.7,0-7.1,0c0.1,0.8,0.1,1.6,0.2,2.4
			C-204.7,399.3-202.4,399.3-200.1,399.3z"/>
		<path class="st0" d="M-178,399.3c0-0.8,0-1.6,0.1-2.4c-2.4,0-4.7,0-7.1,0c0,0.8,0,1.6,0,2.4C-182.7,399.3-180.3,399.3-178,399.3z"
			/>
		<path class="st0" d="M-207.3,399.3c-0.1-0.8-0.1-1.6-0.2-2.4c-2.4,0-4.7,0-7.1,0c0.1,0.8,0.2,1.6,0.2,2.4
			C-212,399.3-209.7,399.3-207.3,399.3z"/>
		<path class="st0" d="M-148.7,399.3c0.1-0.8,0.2-1.6,0.3-2.4c-2.4,0-4.7,0-7.1,0c-0.1,0.8-0.2,1.6-0.2,2.4
			C-153.4,399.3-151,399.3-148.7,399.3z"/>
		<path class="st0" d="M-139.5,399.3c0.1-0.8,0.3-1.6,0.4-2.4c-0.6,0-1.1,0-1.6,0c-0.1,0.8-0.2,1.6-0.4,2.4
			C-140.5,399.3-139.9,399.3-139.5,399.3z"/>
		<path class="st0" d="M-156,399.3c0.1-0.8,0.2-1.6,0.2-2.4c-2.4,0-4.7,0-7.1,0c-0.1,0.8-0.1,1.6-0.2,2.4
			C-160.7,399.3-158.4,399.3-156,399.3z"/>
		<path class="st0" d="M-231.3,396.9c0.1,0.8,0.2,1.6,0.4,2.4c0.6,0,1.1,0,1.6,0c-0.1-0.8-0.3-1.6-0.4-2.4
			C-230.2,396.9-230.8,396.9-231.3,396.9z"/>
		<path class="st0" d="M-141.3,399.3c0.1-0.8,0.3-1.6,0.4-2.4c-2.4,0-4.7,0-7.1,0c-0.1,0.8-0.2,1.6-0.3,2.4
			C-146,399.3-143.7,399.3-141.3,399.3z"/>
		<path class="st0" d="M-141.6,401c-2.3,0-4.7,0-7,0c-0.1,0-0.2,0-0.3,0c-2.3,0-4.7,0-7,0c-0.1,0-0.2,0-0.3,0c-2.3,0-4.7,0-7,0
			c-0.1,0-0.2,0-0.3,0c-2.3,0-4.7,0-7,0c-0.1,0-0.2,0-0.3,0c-2.3,0-4.7,0-7,0c-0.1,0-0.2,0-0.3,0c-2.3,0-4.7,0-7,0
			c-0.1,0-0.2,0-0.3,0c-2.3,0-4.7,0-7,0c-0.1,0-0.2,0-0.3,0c-2.3,0-4.7,0-7,0c-0.1,0-0.2,0-0.3,0c-2.3,0-4.7,0-7,0
			c-0.1,0-0.2,0-0.3,0c-2.3,0-4.7,0-7,0c-0.1,0-0.2,0-0.3,0c-2.3,0-4.7,0-7,0c-0.1,0-0.2,0-0.3,0c-2.3,0-4.7,0-7,0
			c-0.1,0-0.2,0-0.3,0c-2,0-4,0-6.1,0c-0.4,0-0.8,0-1.2,0c0.3,1.4,0.7,2.9,1.1,4.2c0.4,0,0.8,0,1.2,0c2,0,4,0,5.9,0
			c0.1,0,0.2,0,0.3,0c2.3,0,4.6,0,6.8,0c0.1,0,0.2,0,0.3,0c2.3,0,4.6,0,6.8,0c0.1,0,0.2,0,0.3,0c2.3,0,4.6,0,6.8,0
			c0.1,0,0.2,0,0.3,0c2.3,0,4.6,0,6.8,0c0.1,0,0.2,0,0.3,0c2.3,0,4.6,0,6.8,0c0.1,0,0.2,0,0.3,0c2.3,0,4.6,0,6.8,0
			c0.1,0,0.2,0,0.3,0c2.3,0,4.6,0,6.8,0c0.1,0,0.2,0,0.3,0c2.3,0,4.6,0,6.8,0c0.1,0,0.2,0,0.3,0c2.3,0,4.6,0,6.8,0
			c0.1,0,0.2,0,0.3,0c2.3,0,4.6,0,6.8,0c0.1,0,0.2,0,0.3,0c2.3,0,4.6,0,6.8,0c0.1,0,0.2,0,0.3,0c2.3,0,4.6,0,6.8,0c2.5,0,5,0,7.4,0
			c0.4-1.4,0.8-2.8,1.1-4.2C-136.6,401-139.1,401-141.6,401z"/>
		<path class="st0" d="M-229.4,399.3c0.1,0.4,0.1,0.7,0.2,1.1c0.1,0,0.2,0,0.3,0c-0.1-0.4-0.1-0.7-0.2-1.1
			C-229.2,399.3-229.3,399.3-229.4,399.3z"/>
		<path class="st0" d="M-229.5,396c-0.1,0-0.2,0-0.3,0c0,0.3,0.1,0.6,0.1,0.9c0.1,0,0.2,0,0.3,0C-229.5,396.6-229.5,396.3-229.5,396
			z"/>
		<path class="st0" d="M-222.1,396c-0.1,0-0.2,0-0.3,0c0,0.3,0.1,0.6,0.1,0.9c0.1,0,0.2,0,0.3,0C-222,396.6-222.1,396.3-222.1,396z"
			/>
		<path class="st0" d="M-222,399.3c0,0.4,0.1,0.7,0.2,1.1c0.1,0,0.2,0,0.3,0c-0.1-0.4-0.1-0.7-0.1-1.1
			C-221.8,399.3-221.9,399.3-222,399.3z"/>
		<path class="st0" d="M-214.7,399.3c0,0.4,0.1,0.7,0.1,1.1c0.1,0,0.2,0,0.3,0c0-0.4-0.1-0.7-0.1-1.1
			C-214.5,399.3-214.6,399.3-214.7,399.3z"/>
		<path class="st0" d="M-214.7,396c-0.1,0-0.2,0-0.3,0c0,0.3,0,0.6,0.1,0.9c0.1,0,0.2,0,0.3,0C-214.6,396.6-214.6,396.3-214.7,396z"
			/>
		<path class="st0" d="M-207.2,396c-0.1,0-0.2,0-0.3,0c0,0.3,0,0.6,0.1,0.9c0.1,0,0.2,0,0.3,0C-207.2,396.6-207.2,396.3-207.2,396z"
			/>
		<path class="st0" d="M-207.3,399.3c0,0.4,0.1,0.7,0.1,1.1c0.1,0,0.2,0,0.3,0c0-0.4-0.1-0.7-0.1-1.1
			C-207.1,399.3-207.2,399.3-207.3,399.3z"/>
		<path class="st0" d="M-200.1,399.3c0,0.4,0,0.7,0.1,1.1c0.1,0,0.2,0,0.3,0c0-0.4,0-0.7-0.1-1.1
			C-199.9,399.3-200,399.3-200.1,399.3z"/>
		<path class="st0" d="M-199.9,396c-0.1,0-0.2,0-0.3,0c0,0.3,0,0.6,0,0.9c0.1,0,0.2,0,0.3,0C-199.9,396.6-199.9,396.3-199.9,396z"/>
		<path class="st0" d="M-192.5,396c-0.1,0-0.2,0-0.3,0c0,0.3,0,0.6,0,0.9c0.1,0,0.2,0,0.3,0C-192.5,396.6-192.5,396.3-192.5,396z"/>
		<path class="st0" d="M-192.7,399.3c0,0.4,0,0.7,0,1.1c0.1,0,0.2,0,0.3,0c0-0.4,0-0.7,0-1.1C-192.5,399.3-192.6,399.3-192.7,399.3z
			"/>
		<path class="st0" d="M-185,396c-0.1,0-0.2,0-0.3,0c0,0.3,0,0.6,0,0.9c0.1,0,0.2,0,0.3,0C-185,396.6-185,396.3-185,396z"/>
		<path class="st0" d="M-185.4,399.3c0,0.4,0,0.7,0,1.1c0.1,0,0.2,0,0.3,0c0-0.4,0-0.7,0-1.1C-185.1,399.3-185.3,399.3-185.4,399.3z
			"/>
		<path class="st0" d="M-178,399.3c0,0.4,0,0.7,0,1.1c0.1,0,0.2,0,0.3,0c0-0.4,0-0.7,0-1.1C-177.8,399.3-177.9,399.3-178,399.3z"/>
		<path class="st0" d="M-177.6,396c-0.1,0-0.2,0-0.3,0c0,0.3,0,0.6,0,0.9c0.1,0,0.2,0,0.3,0C-177.6,396.6-177.6,396.3-177.6,396z"/>
		<path class="st0" d="M-170.2,396c-0.1,0-0.2,0-0.3,0c0,0.3,0,0.6,0,0.9c0.1,0,0.2,0,0.3,0C-170.2,396.6-170.2,396.3-170.2,396z"/>
		<path class="st0" d="M-170.7,399.3c0,0.4,0,0.7-0.1,1.1c0.1,0,0.2,0,0.3,0c0-0.4,0-0.7,0.1-1.1
			C-170.4,399.3-170.5,399.3-170.7,399.3z"/>
		<path class="st0" d="M-162.9,396c-0.1,0-0.2,0-0.3,0c0,0.3,0,0.6-0.1,0.9c0.1,0,0.2,0,0.3,0C-162.9,396.6-162.9,396.3-162.9,396z"
			/>
		<path class="st0" d="M-163.3,399.3c0,0.4-0.1,0.7-0.1,1.1c0.1,0,0.2,0,0.3,0c0-0.4,0.1-0.7,0.1-1.1
			C-163.1,399.3-163.2,399.3-163.3,399.3z"/>
		<path class="st0" d="M-156,399.3c0,0.4-0.1,0.7-0.1,1.1c0.1,0,0.2,0,0.3,0c0-0.4,0.1-0.7,0.1-1.1
			C-155.8,399.3-155.9,399.3-156,399.3z"/>
		<path class="st0" d="M-155.4,396c-0.1,0-0.2,0-0.3,0c0,0.3,0,0.6-0.1,0.9c0.1,0,0.2,0,0.3,0C-155.5,396.6-155.4,396.3-155.4,396z"
			/>
		<path class="st0" d="M-148.7,399.3c0,0.4-0.1,0.7-0.1,1.1c0.1,0,0.2,0,0.3,0c0.1-0.4,0.1-0.7,0.1-1.1
			C-148.5,399.3-148.6,399.3-148.7,399.3z"/>
		<path class="st0" d="M-148,396c-0.1,0-0.2,0-0.3,0c0,0.3-0.1,0.6-0.1,0.9c0.1,0,0.2,0,0.3,0C-148,396.6-148,396.3-148,396z"/>
		<path class="st0" d="M-140.6,396c-0.1,0-0.2,0-0.3,0c0,0.3-0.1,0.6-0.1,0.9c0.1,0,0.2,0,0.3,0C-140.6,396.6-140.6,396.3-140.6,396
			z"/>
		<path class="st0" d="M-141.3,399.3c-0.1,0.4-0.1,0.7-0.2,1.1c0.1,0,0.2,0,0.3,0c0.1-0.4,0.1-0.7,0.2-1.1
			C-141.1,399.3-141.2,399.3-141.3,399.3z"/>
	</g>
	<g>
		<g>
			<path class="st0" d="M-223.1,411.6h-0.8v-1.7h3.5c1.6,0,2.8,0.8,2.8,2.1c0,0.9-0.5,1.5-1,1.7l0,0c1,0.3,1.2,1.2,1.2,1.8
				c0,1.7-1.4,2.4-3.1,2.4h-2c-0.6,0-0.9-0.3-0.9-0.9L-223.1,411.6L-223.1,411.6z M-220.2,413.1c0.5,0,0.7-0.4,0.7-0.8
				c0-0.4-0.2-0.7-0.8-0.7h-0.8v1.4H-220.2z M-220.8,416.3h0.8c0.6,0,0.8-0.4,0.8-0.9c0-0.5-0.3-0.9-0.8-0.9h-1v1.4
				C-221,416.2-220.9,416.3-220.8,416.3z"/>
			<path class="st0" d="M-213.1,414.3L-213.1,414.3L-213.1,414.3c0.1-0.6-0.2-0.9-0.7-0.9c-0.3,0-0.5,0.1-0.5,0.3v0.3h-1.8v-0.7
				c0-1.3,1.6-1.3,2.3-1.3c2,0,2.7,1.1,2.7,2.4v1.7c0,0.2,0.1,0.3,0.3,0.3h0.4v1.6h-1.7c-0.6,0-0.8-0.4-0.8-0.6v-0.1l0,0
				c0,0-0.4,0.9-1.6,0.9c-1.1,0-2-0.8-2-1.9C-216.4,414.5-214,414.3-213.1,414.3z M-213.9,416.6c0.5,0,1-0.6,1-1.1v-0.1h-0.2
				c-0.6,0-1.3,0.2-1.3,0.7C-214.5,416.4-214.3,416.6-213.9,416.6z"/>
			<path class="st0" d="M-209.3,411.8c0-0.2-0.1-0.3-0.3-0.3h-0.4v-1.6h1.8c0.6,0,0.9,0.1,0.9,0.7v3.5h0.3c0.2,0,0.4,0,0.5-0.2
				l1-1.7h2.1l-1.3,2.2c-0.2,0.4-0.4,0.5-0.4,0.5l0,0c0,0,0.2,0.1,0.5,0.5l0.4,0.8c0.1,0.2,0.2,0.2,0.4,0.2h0.5v1.6h-1.6
				c-0.4,0-0.7-0.1-0.9-0.5l-0.9-1.6c-0.1-0.2-0.3-0.2-0.5-0.2h-0.2v2.3h-1.9L-209.3,411.8L-209.3,411.8z"/>
			<path class="st0" d="M-202.6,414.1c0-0.2-0.1-0.3-0.3-0.3h-0.4v-1.6h1.8c0.6,0,0.9,0.3,0.9,0.9v2.6c0,0.6,0.2,0.8,0.6,0.8
				c0.9,0,1.2-0.8,1.2-1.6v-2.6h1.9v3.9c0,0.2,0.1,0.3,0.3,0.3h0.4v1.6h-1.7c-0.6,0-0.9-0.3-0.9-0.7v-0.1c0-0.1,0-0.1,0-0.1l0,0
				c-0.3,0.6-1.1,1-1.8,1c-1.2,0-2.1-0.6-2.1-2.2L-202.6,414.1L-202.6,414.1z"/>
			<path class="st0" d="M-188.5,409.8c2.4,0,4.2,1.8,4.2,4.1c0,2.4-1.8,4.2-4.2,4.2s-4.2-1.8-4.2-4.2
				C-192.8,411.6-191,409.8-188.5,409.8z M-188.5,416.3c1.2,0,2.1-1.1,2.1-2.4c0-1.2-1-2.3-2.1-2.3s-2.1,1-2.1,2.3
				S-189.7,416.3-188.5,416.3z"/>
			<path class="st0" d="M-183.2,411.8c0-0.2-0.1-0.3-0.3-0.3h-0.4v-1.6h1.7c0.6,0,0.9,0.3,0.9,0.9v5.4c0,0.2,0.1,0.3,0.3,0.3h0.4
				v1.6h-1.8c-0.6,0-0.9-0.3-0.9-0.9L-183.2,411.8L-183.2,411.8z"/>
			<path class="st0" d="M-179,418.7c0.3,0,0.7-0.1,0.9-0.6l0.1-0.2l-1.8-4c-0.1-0.2-0.1-0.2-0.3-0.2h-0.2v-1.6h1.4
				c0.3,0,0.6,0.2,0.7,0.5l0.9,2.3c0.1,0.3,0.2,0.9,0.2,0.9l0,0c0,0,0.1-0.6,0.2-0.9l0.7-2.3c0.1-0.3,0.4-0.5,0.7-0.5h1.4v1.6h-0.2
				c-0.1,0-0.2,0-0.3,0.2l-1.7,4.7c-0.5,1.2-1.5,1.7-2.4,1.7c-1,0-1.6-0.6-1.6-0.6l0.7-1.3C-179.7,418.3-179.3,418.7-179,418.7z"/>
			<path class="st0" d="M-173.1,414.1c0-0.2-0.1-0.3-0.3-0.3h-0.4v-1.6h1.7c0.6,0,0.8,0.3,0.8,0.7v0.1c0,0.1,0,0.1,0,0.1l0,0
				c0.3-0.4,0.8-1,1.7-1c0.8,0,1.3,0.3,1.6,1l0,0c0.3-0.5,1-1,1.8-1c1.1,0,1.9,0.6,1.9,2.2v1.9c0,0.2,0.1,0.3,0.3,0.3h0.4v1.6h-1.8
				c-0.6,0-0.9-0.3-0.9-0.9v-2.6c0-0.4-0.1-0.8-0.5-0.8c-0.6,0-1,0.5-1.1,1.2c0,0.2-0.1,0.4-0.1,0.7v2.4h-1.9v-3.5
				c0-0.4-0.1-0.8-0.5-0.8c-0.6,0-0.9,0.5-1.1,1.1c0,0.2-0.1,0.5-0.1,0.7v2.4h-1.9v-3.9H-173.1z"/>
			<path class="st0" d="M-162.4,414.1c0-0.2-0.1-0.3-0.3-0.3h-0.4v-1.6h1.7c0.6,0,0.8,0.3,0.8,0.5c0,0.1,0,0.1,0,0.1l0,0
				c0,0,0.5-0.8,1.7-0.8c1.5,0,2.6,1.2,2.6,3.1c0,1.8-1.2,3.1-2.7,3.1c-1,0-1.4-0.5-1.4-0.5l0,0c0,0,0,0.2,0,0.5v2.1h-1.9
				L-162.4,414.1L-162.4,414.1z M-159.3,416.5c0.6,0,1.2-0.5,1.2-1.3c0-0.9-0.5-1.4-1.2-1.4c-0.6,0-1.2,0.4-1.2,1.4
				C-160.5,415.8-160.1,416.5-159.3,416.5z"/>
			<path class="st0" d="M-155,414.1c0-0.2-0.1-0.3-0.3-0.3h-0.4v-1.6h1.8c0.6,0,0.9,0.3,0.9,0.9v3.1c0,0.2,0.1,0.3,0.3,0.3h0.3v1.6
				h-1.8c-0.6,0-0.9-0.3-0.9-0.9L-155,414.1L-155,414.1z M-154.9,409.9h1.6v1.5h-1.6V409.9z"/>
			<path class="st0" d="M-148.6,412.1c0.8,0,2.1,0.3,2.1,1.3v0.8h-1.7v-0.3c0-0.2-0.2-0.3-0.5-0.3c-0.9,0-1.3,0.6-1.3,1.4
				c0,1,0.8,1.3,1.4,1.3c0.9,0,1.6-0.8,1.6-0.8l0.8,1.3c0,0-1,1.2-2.6,1.2c-2.1,0-3.3-1.4-3.3-3.1
				C-151.9,413.5-150.8,412.1-148.6,412.1z"/>
		</g>
		<g>
			<path class="st0" d="M-205.4,426.9c0,0,0.8,1,2.1,1c1,0,1.7-0.7,1.7-1.6c0-2.2-4-1.7-4-4.1c0-1.1,0.9-1.9,2.3-1.9
				c0.7,0,2,0.3,2,1.2v0.6h-0.5v-0.4c0-0.5-0.8-0.9-1.5-0.9c-1.2,0-1.8,0.7-1.8,1.4c0,2,4,1.5,4,4.1c0,1.2-0.9,2.1-2.3,2.1
				c-1.5,0-2.4-1.1-2.4-1.1L-205.4,426.9z"/>
			<path class="st0" d="M-199.4,423h-0.8v-0.4h0.8V421h0.5v1.5h1.4v0.4h-1.4v3.2c0,1.5,0.9,1.7,1.3,1.7c0.2,0,0.3,0,0.3,0v0.5
				c0,0-0.1,0-0.3,0c-0.6,0-1.8-0.2-1.8-2.1V423z"/>
			<path class="st0" d="M-193,424.8h0.4v-0.1c0-1.3-0.5-1.8-1.6-1.8c-0.4,0-1.3,0.1-1.3,0.6v0.4h-0.5v-0.5c0-0.7,1.2-0.9,1.7-0.9
				c1.7,0,2.1,1,2.1,2.1v3c0,0.2,0.1,0.3,0.3,0.3h0.5v0.4h-0.6c-0.5,0-0.7-0.2-0.7-0.7c0-0.3,0-0.5,0-0.5l0,0c0,0-0.5,1.3-1.9,1.3
				c-1,0-1.9-0.5-1.9-1.6C-196.5,424.8-194,424.8-193,424.8z M-194.6,427.9c1.2,0,1.9-1.2,1.9-2.4v-0.3h-0.4c-1,0-3,0-3,1.4
				C-196,427.2-195.5,427.9-194.6,427.9z"/>
			<path class="st0" d="M-188.2,422.5c1.4,0,1.9,1.2,1.9,1.2l0,0c0,0,0-0.2,0-0.5V421c0-0.2-0.1-0.3-0.3-0.3h-0.4v-0.4h0.6
				c0.5,0,0.7,0.2,0.7,0.7v6.5c0,0.2,0.1,0.3,0.3,0.3h0.4v0.4h-0.6c-0.5,0-0.7-0.2-0.7-0.7c0-0.3,0-0.4,0-0.4l0,0c0,0-0.5,1.2-2,1.2
				s-2.4-1.2-2.4-3C-190.7,423.6-189.6,422.5-188.2,422.5z M-186.2,425.3c0-1.2-0.7-2.5-1.9-2.5c-1.2,0-2,1-2,2.5s0.8,2.5,1.9,2.5
				C-187.1,427.9-186.2,427.2-186.2,425.3z"/>
			<path class="st0" d="M-183.7,423.2c0-0.2-0.1-0.3-0.3-0.3h-0.5v-0.4h0.6c0.5,0,0.7,0.2,0.7,0.7v4.3c0,0.2,0.1,0.3,0.3,0.3h0.5
				v0.4h-0.6c-0.5,0-0.7-0.2-0.7-0.7V423.2z M-183.7,420.3h0.5v0.9h-0.5V420.3z"/>
			<path class="st0" d="M-181.2,423.2c0-0.2-0.1-0.3-0.3-0.3h-0.5v-0.4h0.6c0.5,0,0.7,0.2,0.7,0.6v2.8c0,1,0.1,1.9,1.3,1.9
				c1.4,0,2.3-1.2,2.3-2.6v-2.8h0.5v5c0,0.2,0.1,0.3,0.3,0.3h0.5v0.4h-0.6c-0.5,0-0.7-0.2-0.7-0.6v-0.3c0-0.3,0-0.5,0-0.5l0,0
				c-0.2,0.6-1,1.5-2.3,1.5s-1.8-0.8-1.8-2.2C-181.2,426.1-181.2,423.2-181.2,423.2z"/>
			<path class="st0" d="M-174.5,423.2c0-0.2-0.1-0.3-0.3-0.3h-0.5v-0.4h0.6c0.5,0,0.7,0.2,0.7,0.6v0.3c0,0.3,0,0.5,0,0.5l0,0
				c0.3-0.9,1.2-1.5,2.1-1.5c1.2,0,1.6,0.6,1.8,1.5l0,0c0.3-0.9,1.2-1.5,2.1-1.5c1.4,0,1.9,0.9,1.9,2.2v2.9c0,0.2,0.1,0.3,0.3,0.3
				h0.5v0.4h-0.6c-0.5,0-0.7-0.2-0.7-0.7v-2.8c0-1.1-0.2-1.9-1.4-1.9c-1,0-1.7,0.9-2,1.7c-0.1,0.3-0.1,0.6-0.1,0.9v2.8h-0.5v-3.5
				c0-1-0.1-1.9-1.3-1.9c-1,0-1.8,0.9-2,1.8c-0.1,0.2-0.1,0.5-0.1,0.8v2.8h-0.5V423.2z"/>
		</g>
	</g>
</g>
</svg>
