<?xml version="1.0" encoding="utf-8"?>
<!-- Generator: Adobe Illustrator 19.1.1, SVG Export Plug-In . SVG Version: 6.00 Build 0)  -->
<svg version="1.1" id="Layer_1" xmlns="http://www.w3.org/2000/svg" xmlns:xlink="http://www.w3.org/1999/xlink" x="0px" y="0px"
	 viewBox="-245 357 120 80" style="enable-background:new -245 357 120 80;" xml:space="preserve">
<style type="text/css">
	.st0{fill:#FFFFFF;}
</style>
<g>
	<g>
		<g>
			<path class="st0" d="M-208.4,378c4.7,5.9,4.7,31.5-0.1,37.3c6.1-3.9,10.1-10.7,10.1-18.7C-198.4,388.8-202.4,382-208.4,378z"/>
			<polygon class="st0" points="-208,398.4 -209.2,398 -210.4,398.1 -210.8,397.9 -210.3,397.2 -211.3,397 -211.9,397.4 
				-212.9,396.7 -215.2,393.2 -214.9,392.9 -214.9,391.7 -215.4,391.8 -217.6,391.1 -216.5,389.1 -213.9,387.6 -212.9,387.6 
				-212.3,385.8 -211.7,385.7 -210.5,385.1 -209.3,384.1 -208.9,384.1 -208.6,383.9 -207.8,383.4 -207.7,382.7 -208,382.6 
				-208,382.5 -208.5,382.4 -209,382.3 -209.1,382.4 -209.4,382.3 -209.7,382.5 -209.8,383.3 -210.7,383.6 -212.1,383.8 
				-212.9,384.1 -214.3,384.6 -215.7,384.4 -216.2,384.1 -216.8,384.5 -217.5,384.4 -217.7,384.2 -218.2,384.4 -218.6,384.3 
				-218.7,384.1 -218.4,383.5 -218.2,383.5 -217.8,382.5 -218.1,382.5 -217.9,381.8 -219,380 -219.8,380 -221.1,381.1 -221.1,382.3 
				-221.4,382.4 -221.1,383.1 -220.9,383.2 -220.9,383.9 -222.1,384.2 -222.6,384.2 -224.5,385.4 -225.1,386.7 -225.9,387.7 
				-227.1,389.7 -226.3,390.1 -226.2,392.1 -226.2,393.3 -225.6,393.9 -225.4,393.8 -225.4,393.9 -225.2,394 -225,393.8 
				-224.9,393.9 -224.5,393.8 -224.4,393.3 -224.5,393.2 -224.5,392.2 -225,391.6 -225.1,391.2 -225,390.2 -224.7,389.8 
				-224.7,389.3 -224.2,389 -224.5,390.1 -223.7,391.4 -223.9,392 -223.9,394.5 -222.6,395.8 -223.2,397.2 -222.8,397.4 
				-223.7,400.3 -225.9,401.8 -226.2,402.7 -229.3,405.6 -229.8,405.6 -230.9,406.9 -230.7,407.2 -230.9,407.4 -230.7,407.5 
				-230.5,407.3 -229.4,408.4 -228.8,408.6 -228.9,408.8 -228.7,408.8 -228.6,408.7 -228.3,408.8 -228.4,409 -228.2,409 -228,408.9 
				-227.2,409 -226.7,408.7 -227.6,408.1 -227.6,407.9 -227.5,406.8 -227,406.6 -227.1,406.3 -227.4,406.4 -227.4,405.8 
				-224.6,403.9 -221.4,401 -220.9,401 -220.6,399.9 -219.8,399 -218.9,396.9 -218.6,394.6 -217.5,394.5 -216.5,396.1 -215.7,396.6 
				-214.1,398.7 -214.4,399.9 -214.1,401.1 -212.7,401 -210.9,400.1 -209.2,400 -207.9,399 			"/>
			<path class="st0" d="M-212.5,390.7c0,1.2,1,2.3,2.3,2.3c1.2,0,2.3-1,2.3-2.3c0-1.2-1-2.3-2.3-2.3
				C-211.4,388.4-212.5,389.4-212.5,390.7z"/>
			<path class="st0" d="M-242.7,398.4c0.9,11.4,10.4,20.4,22,20.4c3.5,0,6.8-0.8,9.7-2.2C-218.2,417.6-239.3,405.4-242.7,398.4z"/>
			<path class="st0" d="M-210.8,376.8c-10-4.9-22.1-1.7-28.3,7.7l1.1,0.4c0,0,0.8-1,1.3-1.6l-0.6,1.8l2.4,0.5l-2.4,0.2l0.7,2.3
				l-1.4-2.1l-1.5,1.2c0.4-0.7,1.1-1.8,1.1-1.8l-0.8-0.8c-0.1,0.2-0.2,0.4-0.3,0.6c-1.8,3-2.8,6.2-3.1,9.5
				C-239.8,387.9-218.6,376.1-210.8,376.8z"/>
		</g>
	</g>
	<g>
		<path id="UEFA_2_" class="st0" d="M-158.6,380.4l2.4,0.6l0.2-1l-2.4-0.6l0.1-0.5c0.1-0.5,0.4-0.6,0.9-0.5l1.9,0.5l0.2-1l-2-0.5
			c-0.9-0.2-1.8,0-2.1,1.1l-0.9,3.3c0,0.2,0,0.4,0.3,0.5l0.6,0.2L-158.6,380.4z M-163.7,377.9l-0.2-1l-3.3,0.7
			c-0.2,0-0.4,0.2-0.3,0.5l0.7,3.4c0.2,1.2,1.1,1.4,2,1.2l2-0.4l-0.2-1l-1.9,0.4c-0.5,0.1-0.7,0-0.8-0.6l-0.1-0.5l2.4-0.5l-0.2-1
			l-2.4,0.5l-0.2-1.2L-163.7,377.9z M-171.7,384.6c-0.4,0-0.6-0.2-1-0.7l-1.9-2.3l-0.8,0.7l2,2.5c0.4,0.5,0.9,0.8,1.5,0.9
			c0.6,0,1.2-0.1,1.8-0.6c0.6-0.5,0.9-1,0.9-1.6c0-0.6-0.1-1.1-0.5-1.6l-2.1-2.4l-0.8,0.7l1.9,2.3c0.4,0.4,0.5,0.7,0.4,1.1
			c0,0.3-0.2,0.6-0.5,0.9C-171,384.5-171.4,384.6-171.7,384.6z M-150.1,380.8c0.2,0.2,0.2,0.4,0.2,0.6l-1.5,5.3l-0.9-0.8l0.3-1
			l-1-0.8l0.9-0.6l0.4,0.3l0.5-1.8l-3.4,2.2l-1-0.6l4.7-3c0.2-0.1,0.3-0.2,0.6,0L-150.1,380.8z M-170.7,388.3l-0.6-0.5
			c2.3-2.6,5.7-4.3,9.5-4.3c3.8,0,7.2,1.7,9.5,4.3l-0.6,0.5c-2.2-2.4-5.3-4-8.8-4C-165.5,384.3-168.6,385.9-170.7,388.3z
			 M-176.5,381.7l-0.6-0.6c3.8-4,9.3-6.4,15.3-6.4s11.4,2.4,15.3,6.4l-0.6,0.6c-3.7-3.8-8.9-6.2-14.7-6.2S-172.9,377.9-176.5,381.7z
			"/>
		<g>
			<path class="st0" d="M-130.8,398.4v-0.2h1.5v0.2h-0.6v1.7h-0.2v-1.7H-130.8z"/>
			<path class="st0" d="M-128.8,398.2l0.6,1.6l0.6-1.6h0.3v1.9h-0.2v-1.5l0,0l-0.5,1.5h-0.2l-0.6-1.5l0,0v1.5h-0.2v-1.9H-128.8
				L-128.8,398.2z"/>
		</g>
		<g>
			<path class="st0" d="M-141.7,390.8h2.7v9.2h-3.3v-5.8l-2,1.4l-1.4-2L-141.7,390.8z"/>
			<path class="st0" d="M-137.7,390.8h7.4l0.8,2.4c-2.3,2.3-3.2,4.2-3.2,6.2v0.7h-3.6v-0.6c0-2.4,0.7-4.1,2.9-6.1h-4.3L-137.7,390.8
				L-137.7,390.8z"/>
			<g>
				<path class="st0" d="M-190.9,390.8c0,0,0,4.8,0,5.3c0,0.8,0.3,1.2,1.2,1.2c0.8,0,1.2-0.4,1.2-1.3v-5.2h3.3v4.9
					c0,2.8-1,4.6-4.7,4.6c-3.4,0-4.4-2-4.4-3.7c0-0.6,0-5.7,0-5.7H-190.9z"/>
				<path class="st0" d="M-183.9,390.8h4.2l2,5.3h0v-5.3h2.9v9.2h-4.1l-2.1-5.3h-0.1v5.3h-2.8L-183.9,390.8L-183.9,390.8z"/>
				<path class="st0" d="M-173.7,390.8h4.5c2.2,0,4.8,0.3,4.8,4.6c0,4-2.6,4.6-4.6,4.6h-4.8C-173.7,400-173.7,390.8-173.7,390.8z
					 M-170.5,397.4h0.8c1.3,0,2-0.6,2-2c0-1.4-0.9-2-1.8-2h-1C-170.5,393.4-170.5,397.4-170.5,397.4z"/>
				<path class="st0" d="M-163.3,390.8h7.5v2.4h-4.3v1h4.3v2.4h-4.3v1h4.3v2.4h-7.5V390.8z"/>
				<path class="st0" d="M-154.5,400v-9.2h4.9c2.5,0,3.4,1.2,3.4,2.7c0,1.2-0.8,2.3-2,2.3v0c0.9,0.2,1.3,0.8,2.6,4.1h-3.6l-0.8-2.2
					c-0.2-0.6-0.4-0.7-0.7-0.7h-0.6v2.9C-151.3,400-154.5,400-154.5,400z M-151.2,394.9h0.7c0.6,0,1.1,0,1.1-0.9c0-0.6-0.2-1-1-1
					h-0.7V394.9z"/>
			</g>
		</g>
		<g>
			<path class="st0" d="M-191.1,402.7c0.6,0,1.1,0.1,1.6,0.5l0.3-0.6c-0.6-0.3-1.2-0.5-1.9-0.5c-1.8,0-3.2,1.3-3.2,3.2
				c0,2,1.4,3.2,3.2,3.2c0.6,0,1.3-0.2,1.9-0.6l-0.3-0.5c-0.5,0.3-1,0.5-1.6,0.5c-1.4,0-2.4-1.2-2.4-2.5
				C-193.5,403.9-192.4,402.7-191.1,402.7z"/>
			<polygon class="st0" points="-184,404.9 -187.3,404.9 -187.3,402.3 -188.1,402.3 -188.1,408.4 -187.3,408.4 -187.3,405.6 
				-184,405.6 -184,408.4 -183.2,408.4 -183.2,402.3 -184,402.3 			"/>
			<path class="st0" d="M-179.9,402.3l-2.5,6l0.7,0.2l0.9-2.2h2.5l0.8,2.2l0.8-0.2l-2.4-6H-179.9z M-180.6,405.7l1-2.7l0,0l1,2.7
				H-180.6z"/>
			<polygon class="st0" points="-170.5,402.3 -172.5,407.4 -174.3,402.3 -175.1,402.3 -176.3,408.4 -175.5,408.5 -174.6,403.3 
				-174.6,403.3 -172.9,408.4 -172.2,408.4 -170.3,403.3 -170.3,403.3 -169.5,408.5 -168.7,408.4 -169.7,402.3 			"/>
			<path class="st0" d="M-165.7,402.3h-1.9v6.1h0.8v-2.5h0.9c1,0,2.2-0.5,2.2-1.8C-163.8,402.8-164.5,402.3-165.7,402.3z
				 M-165.8,405.2h-1v-2.4h0.9c1,0,1.3,0.6,1.3,1.2C-164.5,404.9-165.2,405.2-165.8,405.2z"/>
			<rect x="-162.6" y="402.3" class="st0" width="0.8" height="6.1"/>
			<path class="st0" d="M-157.3,402.1c-1.8,0-3.2,1.3-3.2,3.2c0,2,1.4,3.2,3.2,3.2c1.8,0,3.2-1.3,3.2-3.2
				C-154,403.3-155.5,402.1-157.3,402.1z M-157.3,407.8c-1.4,0-2.4-1.2-2.4-2.5c0-1.4,1-2.5,2.4-2.5c1.4,0,2.4,1.2,2.4,2.5
				C-154.8,406.7-155.9,407.8-157.3,407.8z"/>
			<polygon class="st0" points="-148.8,402.3 -148.8,407.1 -148.8,407.1 -152.2,402.1 -152.8,402.4 -152.8,408.4 -152.1,408.4 
				-152.1,403.5 -152.1,403.5 -148.7,408.5 -148,408.3 -148,402.3 			"/>
			<path class="st0" d="M-146,403.8c0-0.7,0.6-1.1,1.1-1.1c0.6,0,0.9,0.2,1.3,0.4l0.3-0.6c-0.5-0.3-1-0.5-1.6-0.5
				c-1.1,0-1.8,0.7-1.8,1.6c0,2.1,2.7,1.5,2.7,3.1c0,0.7-0.5,1.1-1.2,1.1c-0.5,0-1-0.2-1.3-0.4l-0.3,0.5c0.5,0.3,1,0.5,1.7,0.5
				c1.3,0,2-0.9,2-1.8C-143.2,404.8-146,405.1-146,403.8z"/>
			<polygon class="st0" points="-138,404.9 -141.3,404.9 -141.3,402.3 -142.1,402.3 -142.1,408.4 -141.3,408.4 -141.3,405.6 
				-138,405.6 -138,408.4 -137.2,408.4 -137.2,402.3 -138,402.3 			"/>
			<rect x="-135.6" y="402.3" class="st0" width="0.8" height="6.1"/>
			<path class="st0" d="M-131.4,402.3h-1.9v6.1h0.8v-2.5h0.9c1,0,2.2-0.5,2.2-1.8C-129.4,402.8-130.3,402.3-131.4,402.3z
				 M-131.6,405.2h-1v-2.4h0.9c1,0,1.3,0.6,1.3,1.2C-130.2,404.9-130.9,405.2-131.6,405.2z"/>
		</g>
		<g>
			<path class="st0" d="M-189.9,416.5h-2.3c-0.2,0.7-0.4,1-0.4,1.2h-1.6l2.4-6.2h1.6l2.4,6.2h-1.6L-189.9,416.5z M-191.1,413.3
				l-0.7,2h1.4L-191.1,413.3L-191.1,413.3z"/>
			<path class="st0" d="M-187.5,416.8l2.2-2.4h-2v-1.1h3.7v0.9l-2.2,2.4h2.2v1.1h-3.9V416.8z"/>
			<path class="st0" d="M-179.1,415.4v0.5h-2.9v0c0,0.5,0.3,0.8,1,0.8c0.4,0,1,0,1.7-0.2v1c-0.6,0.3-1.2,0.4-1.7,0.4
				c-1.7,0-2.4-0.7-2.4-2.2c0-1.6,0.9-2.3,2.2-2.3C-179.9,413.3-179.1,413.9-179.1,415.4z M-181.9,415h1.5c0-0.5-0.3-0.7-0.8-0.7
				C-181.6,414.4-181.8,414.6-181.9,415z"/>
			<path class="st0" d="M-177.5,414c0.6-0.5,1.2-0.7,1.9-0.8l0.2,1.2c-0.7,0.1-1.4,0.2-1.9,0.4v2.8h-1.3v-4.4h0.5
				c0.4,0,0.5,0.1,0.5,0.3L-177.5,414z"/>
			<path class="st0" d="M-173.9,417.3l0,0.1c0,0.1-0.1,0.2-0.4,0.2h-0.7v-6.2h1.3v2.1c0.3-0.2,0.8-0.3,1.1-0.3
				c1.1,0,1.9,0.6,1.9,2.2c0,1.3-0.6,2.3-1.9,2.3C-172.9,417.8-173.5,417.6-173.9,417.3z M-173.6,414.6v1.8c0.2,0.1,0.5,0.2,0.8,0.2
				c0.5,0,0.9-0.2,0.9-1.2c0-0.9-0.4-1.1-1-1.1C-173.1,414.4-173.4,414.4-173.6,414.6z"/>
			<path class="st0" d="M-166.8,417.7c-0.2,0-0.3-0.1-0.3-0.2l-0.1-0.2c-0.4,0.3-0.9,0.5-1.4,0.5c-1,0-1.6-0.4-1.6-1.3
				c0-1.2,1.2-1.4,2.3-1.4h0.5v-0.2c0-0.4-0.2-0.5-0.8-0.5c-0.4,0-0.9,0-1.5,0.2v-1c0.7-0.3,1.2-0.3,1.7-0.3c1.6,0,2,0.7,2,1.7v2.7
				L-166.8,417.7C-166.8,417.7-166.8,417.7-166.8,417.7z M-167.5,416.1v-0.2h-0.5c-0.5,0-0.9,0.1-0.9,0.5c0,0.2,0.1,0.4,0.5,0.4
				C-167.6,416.8-167.5,416.3-167.5,416.1z"/>
			<path class="st0" d="M-164.7,411.3c0.4,0,0.8,0.4,0.8,0.8s-0.4,0.8-0.8,0.8c-0.4,0-0.8-0.3-0.8-0.8
				C-165.6,411.7-165.2,411.3-164.7,411.3z M-165.5,413.3h1.4v4.4h-1.4V413.3z"/>
			<path class="st0" d="M-161.6,413.3v4.4c0,1.3-0.8,1.8-1.8,1.8c-0.2,0-0.7,0-1.1-0.2v-1.1c0.3,0.1,0.6,0.1,0.7,0.1
				c0.7,0,0.8-0.2,0.8-0.9v-4.3L-161.6,413.3L-161.6,413.3z M-162.3,411.3c0.4,0,0.8,0.4,0.8,0.8s-0.3,0.8-0.8,0.8
				c-0.5,0-0.8-0.3-0.8-0.8C-163.1,411.7-162.7,411.3-162.3,411.3z"/>
			<path class="st0" d="M-157.7,417.7c-0.2,0-0.3-0.1-0.3-0.2l-0.1-0.2c-0.4,0.3-0.9,0.5-1.4,0.5c-1,0-1.6-0.4-1.6-1.3
				c0-1.2,1.2-1.4,2.3-1.4h0.5v-0.2c0-0.4-0.2-0.5-0.8-0.5c-0.4,0-0.9,0-1.5,0.2v-1c0.7-0.3,1.2-0.3,1.7-0.3c1.6,0,2,0.7,2,1.7v2.7
				L-157.7,417.7C-157.7,417.7-157.7,417.7-157.7,417.7z M-158.3,416.1v-0.2h-0.5c-0.5,0-0.9,0.1-0.9,0.5c0,0.2,0.1,0.4,0.5,0.4
				C-158.5,416.8-158.3,416.3-158.3,416.1z"/>
			<path class="st0" d="M-152.1,415v2.6h-0.7c-0.5,0-0.7-0.2-0.7-0.7v-1.9c0-0.5-0.2-0.7-0.6-0.7c-0.3,0-0.7,0.1-1,0.2v3h-1.3v-4.4
				h0.6c0.3,0,0.4,0.1,0.4,0.3l0,0.1c0.4-0.3,1.1-0.4,1.4-0.4C-152.7,413.3-152.1,413.7-152.1,415z"/>
			<path class="st0" d="M-145.1,413.2c0,1-0.9,1.6-1.8,2.2c-0.5,0.3-1.2,0.7-1.3,1.2h3.2v1.2h-4.7c0-1.9,0.8-2.4,2.1-3.3
				c0.4-0.3,1.2-0.6,1.2-1.2c0-0.4-0.3-0.6-1-0.6c-0.4,0-1,0-2,0.2v-1.1c0.7-0.3,1.5-0.4,2-0.4
				C-146.1,411.4-145.1,411.9-145.1,413.2z"/>
			<path class="st0" d="M-141.6,417.7c-2.2,0-2.5-1.2-2.5-3.1c0-1.6,0.4-3.3,2.5-3.3c2.2,0,2.5,1.5,2.5,3.3
				C-139.1,416.3-139.7,417.7-141.6,417.7z M-141.6,412.5c-1,0-1.2,1.1-1.2,2.1c0,1.2,0.2,2,1.2,2c0.9,0,1.1-0.9,1.1-2
				C-140.6,413.6-140.7,412.5-141.6,412.5z"/>
			<path class="st0" d="M-136.8,412.8l-1.6,0.1v-1l1.9-0.4h1.1v6.2h-1.4V412.8L-136.8,412.8z"/>
			<path class="st0" d="M-134.2,415.5c0-1.6,1.3-3.1,2.4-4.1h1.8c-0.9,0.8-1.7,1.6-2.2,2.1l0.1,0c0.1,0,0.3-0.1,0.5-0.1
				c1.5,0,2.1,0.9,2.1,2.1c0,1.2-0.8,2.2-2.4,2.2C-133.7,417.7-134.2,416.8-134.2,415.5z M-131.9,414.6c-0.6,0-1,0.4-1,1
				c0,0.6,0.2,1,1,1c0.8,0,1.1-0.5,1.1-1.1C-130.8,415-131.1,414.6-131.9,414.6z"/>
		</g>
	</g>
</g>
</svg>
