<?xml version="1.0" encoding="utf-8"?>
<!-- Generator: Adobe Illustrator 19.1.1, SVG Export Plug-In . SVG Version: 6.00 Build 0)  -->
<svg version="1.1" id="Layer_1" xmlns="http://www.w3.org/2000/svg" xmlns:xlink="http://www.w3.org/1999/xlink" x="0px" y="0px"
	 viewBox="-245 357 120 80" style="enable-background:new -245 357 120 80;" xml:space="preserve">
<style type="text/css">
	.st0{fill:#FFFFFF;}
</style>
<g>
	<path class="st0" d="M-178.8,401.9h-8v-32.2l-32.2,32.2v-30.7h-9.9v2.2h7.8v40.9h2.2v-10.2h30v10.2h2.2v-10.2h8V401.9z
		 M-215.9,401.9L-189,375v26.9H-215.9z"/>
	<path class="st0" d="M-176.9,389.4c3.7-3.7,8.5-5.7,13.7-5.7c5.2,0,10,2,13.7,5.7c2.4,2.4,4.1,5.4,5,8.6h2.3
		c-0.9-3.8-2.9-7.3-5.7-10.1c-4.1-4.1-9.5-6.3-15.2-6.3c-4.9,0-9.6,1.6-13.4,4.6v-12.7h26v-2.2h-28.2v18.8h1.1L-176.9,389.4z"/>
	<path class="st0" d="M-149.6,416.7c-3.7,3.7-8.5,5.7-13.7,5.7c-5.2,0-10-2-13.7-5.7l-0.8-0.8l-1.5,1.5l0.8,0.8
		c4.1,4.1,9.5,6.3,15.2,6.3c5.8,0,11.2-2.2,15.2-6.3c2.8-2.8,4.8-6.3,5.7-10.1h-2.3C-145.4,411.3-147.1,414.3-149.6,416.7z"/>
	<path class="st0" d="M-171.2,400.6c0.9,0,1.4,0.3,1.8,0.7l0.4-0.5c-0.6-0.5-1.2-0.8-2.3-0.8c-1.8,0-3,1.5-3,3.1
		c0,1.7,1.2,3.1,3.1,3.1c1,0,1.9-0.4,2.4-0.9v-2.4h-2.5v0.6h1.8v1.5c-0.4,0.3-1.1,0.6-1.7,0.6c-1.5,0-2.4-1.1-2.4-2.5
		C-173.5,401.7-172.5,400.6-171.2,400.6z"/>
	<path class="st0" d="M-161.5,401.8c0-0.5-0.2-0.9-0.5-1.2c-0.4-0.4-1-0.6-1.7-0.6h-2.6v6h0.7v-2.3h1.7l1.8,2.3h0.8l-1.9-2.5
		C-162.2,403.4-161.5,402.9-161.5,401.8z M-163.7,403.1h-1.9v-2.5h1.9c1,0,1.5,0.4,1.5,1.2C-162.2,402.7-162.8,403.1-163.7,403.1z"
		/>
	<path class="st0" d="M-159.4,403.1c0,1.7,1.2,3.1,3.1,3.1c1.8,0,3.1-1.5,3.1-3.1c0-1.7-1.2-3.1-3.1-3.1
		C-158.2,399.9-159.4,401.4-159.4,403.1z M-154,403.1c0,1.4-1,2.5-2.4,2.5s-2.4-1.1-2.4-2.5c0-1.4,1-2.5,2.4-2.5
		C-155,400.6-154,401.7-154,403.1z"/>
	<path class="st0" d="M-151.1,400v3.5c0,1.7,1,2.6,2.5,2.6c1.5,0,2.5-0.9,2.5-2.7V400h-0.7v3.5c0,1.3-0.7,2-1.8,2
		c-1.2,0-1.8-0.7-1.8-2V400H-151.1z"/>
	<path class="st0" d="M-141.3,400h-2.3v6h0.7v-2.1h1.5c1.3,0,2.4-0.7,2.4-2C-139.1,400.8-140,400-141.3,400z M-141.4,403.3h-1.5
		v-2.7h1.5c1,0,1.6,0.4,1.6,1.3C-139.7,402.8-140.4,403.3-141.4,403.3z"/>
</g>
</svg>
