<?xml version="1.0" encoding="utf-8"?>
<!-- Generator: Adobe Illustrator 19.1.1, SVG Export Plug-In . SVG Version: 6.00 Build 0)  -->
<svg version="1.1" id="Layer_1" xmlns="http://www.w3.org/2000/svg" xmlns:xlink="http://www.w3.org/1999/xlink" x="0px" y="0px"
	 viewBox="-211 343.7 188 106.3" style="enable-background:new -211 343.7 188 106.3;" xml:space="preserve">
<style type="text/css">
	.st0{fill:#FFFFFF;}
</style>
<g>
	<g>
		<g>
			<g>
				<path class="st0" d="M-160.2,442.5c-2.2,0-3.8-0.4-4.7-1.1s-1.1-1.7-0.7-2.9c0.3-1,0.8-2.1,1.4-3.5c3.6-8.6,10.3-24.5-2-40.2
					c-6.4-8.2-15.5-15.1-22.8-20.6c-7.8-5.9-13.9-10.5-13.3-14.1h0.2h-0.2c0.3-2,1.4-3.4,3-4.4c4.9-2.8,15.5-0.9,32.6,5.7
					c14.5,5.6,19.5,0.4,23.5-3.9c1.9-2,3.6-3.8,6-4.3c3.3-0.6,7.6,1.1,12.1,2.9c5.9,2.4,12.1,4.8,17,2.6c2.3-1,4.4-2.2,6.5-3.4
					c5.6-3.1,10.4-5.8,15.2-2.5c1.7,1.2,3.1,5.3,4.8,10.5c2.8,8.6,6.7,20.3,14.6,24.4l1.1,0.6c11.7,6.1,33.6,17.6,34.3,22.5
					c0.1,0.5-0.1,1-0.4,1.4c-1.2,1.2-5.6,0.8-12.1,0.1c-14.7-1.5-42.2-4.3-66.5,10.4c-16.8,10.1-29.1,14.9-36.5,17.2
					C-152.4,441.6-156.9,442.5-160.2,442.5z M-193.4,354.9c-2.4,0-4.3,0.4-5.7,1.2c-1.6,0.9-2.5,2.2-2.8,4.1
					c-0.6,3.3,5.5,7.9,13.2,13.7c7.4,5.6,16.5,12.5,22.9,20.7c12.4,15.9,5.7,32,2,40.6c-0.6,1.3-1.1,2.5-1.4,3.5
					c-0.4,1-0.2,1.9,0.5,2.4c4,3.2,23.8-0.5,53.8-18.6c24.5-14.7,52-11.9,66.8-10.4c6.2,0.6,10.7,1.1,11.8,0c0.3-0.3,0.4-0.6,0.3-1
					c-0.7-4.7-22.4-16.1-34.1-22.2l-1.1-0.6c-8-4.2-11.9-16-14.8-24.6c-1.6-4.9-3.1-9.2-4.7-10.3c-4.6-3.2-9.1-0.7-14.8,2.5
					c-2.1,1.1-4.2,2.3-6.5,3.4c-5.1,2.3-11.3-0.2-17.3-2.6c-4.5-1.8-8.7-3.5-11.9-2.9c-2.3,0.4-3.9,2.2-5.8,4.2
					c-4.1,4.3-9.2,9.7-24,4C-178.9,357.2-187.6,354.9-193.4,354.9z"/>
			</g>
			<g>
				<path class="st0" d="M-157.6,439.7c-2.1,0-3.7-0.4-4.6-1.1c-0.8-0.7-1.1-1.7-0.7-2.8c0.3-1,0.8-2.1,1.3-3.5
					c3.3-8.1,9.5-23.2-2-38c-6-7.8-14.5-14.3-21.4-19.6c-7.3-5.6-13.1-10-12.4-13.3c0.3-1.9,1.3-3.3,2.9-4.1
					c4.6-2.6,14.7-0.9,30.8,5.3c13.6,5.3,18.4,0.3,22.2-3.6c1.8-1.8,3.5-3.6,5.8-4c3.1-0.6,7.2,1,11.5,2.7
					c5.6,2.2,11.4,4.5,16.1,2.4l0,0c2.2-1,4.2-2.1,6.1-3.1c5.4-2.9,10-5.4,14.6-2.3c1.7,1.2,3,5.1,4.6,10.1
					c2.7,8.1,6.4,19.2,13.8,23.2l2,1.1c11.4,6.1,30.6,16.4,31.2,21c0.1,0.5-0.1,1-0.4,1.3c-1.2,1.2-5.5,0.8-11.8,0.2
					c-14.9-1.4-39.9-3.9-62.7,9.8c-15.9,9.5-27.5,13.9-34.4,16C-150.2,439-154.5,439.7-157.6,439.7z M-188.9,356.5
					c-2.3,0-4.1,0.4-5.4,1.1c-1.5,0.8-2.3,2.1-2.7,3.9c-0.6,3.1,5.1,7.4,12.3,12.9c6.9,5.3,15.5,11.8,21.5,19.6
					c11.6,15,5.4,30.2,2,38.4c-0.5,1.3-1,2.5-1.3,3.5s-0.1,1.8,0.6,2.4c3.8,3,22.6-0.3,50.9-17.2c23-13.7,48-11.3,62.9-9.9
					c6,0.6,10.4,1,11.5-0.1c0.3-0.3,0.4-0.6,0.3-1c-0.6-4.4-20.4-15-31-20.7l-2-1.1c-7.5-4.1-11.3-15.3-14-23.5
					c-1.6-4.7-2.9-8.8-4.5-9.9c-4.4-3.1-8.7-0.7-14.2,2.3c-1.9,1.1-4,2.2-6.2,3.1l0,0c-4.8,2.1-10.7-0.2-16.4-2.4
					c-4.2-1.7-8.2-3.3-11.2-2.7c-2.2,0.4-3.7,2-5.5,3.9c-3.9,4-8.8,9.1-22.6,3.7C-175.2,358.7-183.4,356.5-188.9,356.5z"/>
			</g>
			<g>
				<path class="st0" d="M-154.9,437c-2.2,0-3.8-0.4-4.6-1.1s-1.1-1.6-0.7-2.8c0.3-1,0.8-2.2,1.3-3.5c3.2-8.2,8.6-21.9-1.9-35.7
					c-5.6-7.4-13.6-13.6-20-18.5c-7.1-5.5-12.2-9.4-11.6-12.6c0.3-1.8,1.2-3.1,2.7-3.9c4.4-2.5,13.9-0.8,29,4.9
					c12.7,4.9,17.2,0.3,20.9-3.4c1.7-1.7,3.3-3.4,5.5-3.8c3-0.6,6.8,0.9,10.8,2.5c5.3,2.1,10.7,4.2,15.1,2.3l0.1,0.2l-0.1-0.2
					c2.1-0.9,3.9-1.9,5.7-2.9c5.4-2.9,9.6-5.1,14-2c1.6,1.1,2.9,4.9,4.5,9.7c2.6,7.7,6.1,18.2,13,22.1c1,0.6,2.2,1.2,3.4,1.9
					c10.8,5.9,27,14.9,27.6,19.1c0.1,0.5-0.1,0.9-0.4,1.3c-1.2,1.2-5.4,0.8-11.6,0.3c-14-1.3-37.5-3.4-58.9,9.2
					C-132,432.5-147.3,437-154.9,437z M-184.4,358.2c-2.2,0-3.9,0.4-5.2,1.1c-1.4,0.8-2.2,2-2.5,3.6c-0.6,2.9,4.7,7,11.4,12.2
					c6.4,5,14.5,11.2,20.1,18.6c10.7,14,5,28.4,2,36.1c-0.5,1.4-1,2.5-1.3,3.5s-0.1,1.8,0.6,2.4c3.6,2.9,21.4-0.2,48-15.8
					c21.5-12.7,45-10.6,59.1-9.3c5.9,0.5,10.2,0.9,11.3-0.2c0.3-0.3,0.4-0.6,0.3-1c-0.5-4-17.4-13.3-27.4-18.8
					c-1.2-0.7-2.4-1.3-3.4-1.9c-7.1-4-10.7-14.6-13.2-22.3c-1.5-4.5-2.8-8.4-4.3-9.5c-4.2-3-8.3-0.7-13.6,2.1c-1.8,1-3.7,2-5.8,2.9
					c-4.6,2-10.1-0.2-15.4-2.3c-4-1.6-7.7-3-10.6-2.5c-2.1,0.4-3.5,1.9-5.3,3.7c-2.6,2.6-5.6,5.6-11.4,5.6c-2.6,0-5.9-0.6-9.9-2.2
					C-171.5,360.2-179.2,358.2-184.4,358.2z"/>
			</g>
			<g>
				<path class="st0" d="M-152.2,434.3c-2.1,0-3.7-0.4-4.6-1.1c-0.8-0.7-1.1-1.6-0.8-2.7c0.3-1,0.7-2.1,1.2-3.5
					c2.9-7.7,7.8-20.6-1.9-33.5c-5.2-6.9-12.6-12.8-18.5-17.4c-6.6-5.2-11.3-8.9-10.7-11.9c0.3-1.7,1.2-2.9,2.6-3.7
					c4.2-2.3,13-0.8,27.2,4.6c11.8,4.5,15.9,0.4,19.5-3.1c1.6-1.6,3.1-3.1,5.2-3.5c2.8-0.5,6.4,0.8,10.2,2.3
					c4.9,1.9,10,3.9,14.2,2.1c1.9-0.8,3.7-1.7,5.3-2.6c5.2-2.7,9.3-4.8,13.4-1.8c1.5,1.1,2.7,4.7,4.3,9.3c2.4,7.3,5.7,17.2,12.3,21
					c1.2,0.7,2.6,1.5,4.1,2.4c10.2,5.8,24.1,13.7,24.6,17.6c0.1,0.5-0.1,0.9-0.4,1.3c-1.2,1.2-5.2,0.9-11.3,0.3
					c-13.2-1.1-35.2-3-55.1,8.6C-129.4,429.3-144.5,434.3-152.2,434.3z M-179.8,359.8c-2.1,0-3.7,0.3-4.9,1
					c-1.3,0.7-2.1,1.8-2.4,3.4c-0.5,2.7,4.4,6.6,10.6,11.5c6,4.7,13.4,10.5,18.6,17.5c9.9,13.1,4.9,26.1,1.9,33.9
					c-0.5,1.4-1,2.5-1.2,3.5c-0.3,1-0.1,1.8,0.6,2.3c3.6,2.8,19.9,0.2,45-14.4c20-11.7,42.1-9.8,55.3-8.7c5.7,0.5,9.9,0.8,11-0.2
					c0.3-0.3,0.4-0.6,0.3-0.9c-0.5-3.7-14.9-11.9-24.4-17.3c-1.5-0.9-2.9-1.6-4.1-2.4c-6.7-3.9-10-13.9-12.5-21.2
					c-1.4-4.3-2.7-8-4.1-9.1c-4-2.9-8-0.8-13,1.8c-1.7,0.9-3.4,1.8-5.4,2.6l-0.1-0.2l0.1,0.2c-4.3,1.8-9.5-0.2-14.5-2.1
					c-3.7-1.4-7.3-2.8-9.9-2.3c-1.9,0.4-3.4,1.8-5,3.4c-3.5,3.5-7.9,7.8-20,3.2C-167.7,361.6-175,359.8-179.8,359.8z"/>
			</g>
			<g>
				<path class="st0" d="M-149.5,431.6c-2.1,0-3.7-0.4-4.7-1.1c-0.8-0.7-1.1-1.6-0.8-2.7c0.3-1,0.7-2.1,1.2-3.5
					c2.6-7.2,7-19.3-1.8-31.3c-4.8-6.5-11.6-12-17.1-16.4c-6.1-4.9-10.5-8.4-9.9-11.2c0.3-1.6,1.1-2.7,2.5-3.5
					c3.9-2.2,12.2-0.8,25.4,4.2c11,4.1,14.8,0.4,18.2-2.9c1.5-1.5,3-2.9,4.9-3.3c2.6-0.5,6,0.8,9.5,2.1c4.6,1.7,9.4,3.5,13.3,1.9
					l0.1,0.2l-0.1-0.2c1.8-0.7,3.4-1.6,4.9-2.3c5-2.5,8.9-4.5,12.9-1.6c1.5,1.1,2.6,4.5,4.1,8.9c2.4,7.2,5.4,16.2,11.5,19.9
					c1.4,0.8,3,1.8,4.7,2.8c9.6,5.6,21.5,12.6,21.9,16.1c0.1,0.5-0.1,0.9-0.4,1.2c-1.2,1.2-5.2,0.9-11.1,0.4
					c-12.3-1-32.8-2.6-51.2,8C-128.6,427.3-142.2,431.6-149.5,431.6z M-175.3,361.4c-2,0-3.5,0.3-4.6,0.9c-1.2,0.7-2,1.7-2.3,3.2
					c-0.5,2.6,4,6.2,9.7,10.8c5.5,4.4,12.3,9.9,17.2,16.4c9,12.2,4.6,24.4,1.9,31.7c-0.5,1.4-0.9,2.5-1.2,3.5s0,1.7,0.7,2.3
					c3.4,2.7,18.8,0.4,42.1-13.1c18.5-10.7,39.1-9.1,51.4-8.1c5.6,0.4,9.7,0.8,10.8-0.3c0.3-0.2,0.4-0.5,0.3-0.9
					C-49.7,404.4-62,397.2-71,392c-1.7-1-3.3-1.9-4.7-2.8c-6.3-3.8-9.3-12.8-11.7-20.1c-1.4-4.1-2.5-7.7-3.9-8.7
					c-3.7-2.8-7.6-0.8-12.4,1.6c-1.6,0.8-3.2,1.6-5,2.4l0,0c-4,1.7-8.9-0.1-13.6-1.9c-3.5-1.3-6.8-2.6-9.3-2.1
					c-1.8,0.3-3.2,1.7-4.7,3.2c-3.3,3.2-7.4,7.2-18.6,3C-164,363.1-170.8,361.4-175.3,361.4z"/>
			</g>
			<g>
				<path class="st0" d="M-146.8,428.9c-2.1,0-3.6-0.4-4.6-1.1c-0.8-0.6-1.2-1.6-0.9-2.7c0.2-1,0.7-2.1,1.1-3.5
					c2.3-6.7,6.3-17.9-1.8-29.1c-4.4-6.1-10.7-11.2-15.7-15.3c-5.6-4.6-9.6-7.8-9-10.5c0.3-1.5,1.1-2.5,2.3-3.2
					c3.7-2,11.4-0.8,23.6,3.8c10.1,3.8,13.7,0.4,16.9-2.7c1.5-1.4,2.8-2.7,4.7-3c2.4-0.5,5.5,0.7,8.8,1.9c4.3,1.6,8.7,3.2,12.3,1.7
					l0.1,0.2l-0.1-0.2c1.6-0.7,3.1-1.4,4.5-2.1c4.8-2.3,8.6-4.2,12.3-1.3c1.4,1.1,2.5,4.3,3.9,8.5c2.2,6.8,5,15.2,10.8,18.7
					c1.5,0.9,3.2,2,5,3.1c8.5,5.1,19,11.5,19.3,14.8c0.1,0.5-0.1,0.9-0.4,1.2c-1.2,1.2-5.1,0.9-10.8,0.5
					c-11.4-0.8-30.4-2.1-47.4,7.5C-127.4,425-140,428.9-146.8,428.9z M-170.8,363c-1.8,0-3.3,0.3-4.4,0.9c-1.2,0.6-1.9,1.6-2.1,3
					c-0.5,2.4,3.6,5.8,8.9,10.1c5,4.1,11.3,9.3,15.7,15.4c8.2,11.3,4.2,22.7,1.9,29.4c-0.5,1.3-0.9,2.5-1.1,3.5
					c-0.2,1,0,1.7,0.7,2.3c3.8,2.9,18.9-0.2,39.2-11.7c17-9.7,36.2-8.3,47.6-7.5c5.5,0.4,9.4,0.7,10.5-0.4c0.2-0.2,0.3-0.5,0.3-0.9
					c-0.4-3.1-11.2-9.7-19.2-14.5c-1.8-1.1-3.5-2.1-5-3.1c-5.9-3.7-8.7-12.1-10.9-19c-1.3-3.9-2.4-7.3-3.7-8.3
					c-3.5-2.7-7.2-0.9-11.9,1.4c-1.4,0.7-2.9,1.4-4.6,2.1c-3.8,1.6-8.3-0.1-12.6-1.7c-3.2-1.2-6.3-2.3-8.6-1.9
					c-1.7,0.3-3,1.5-4.5,2.9c-3.1,2.9-7,6.6-17.3,2.7C-160.3,364.6-166.5,363-170.8,363z"/>
			</g>
			<g>
				<path class="st0" d="M-144.1,426.2c-2.1,0-3.7-0.4-4.6-1.1c-0.9-0.6-1.2-1.6-0.9-2.6c0.2-1,0.6-2.1,1.1-3.5
					c2.1-6.2,5.5-16.6-1.7-26.9c-4-5.7-9.7-10.4-14.2-14.3c-5.1-4.2-8.7-7.3-8.2-9.8c0.3-1.3,1-2.4,2.2-3c3.4-1.9,10.5-0.7,21.8,3.4
					c9.2,3.4,12.6,0.3,15.6-2.4c1.4-1.3,2.7-2.5,4.4-2.8c2.3-0.4,5.1,0.6,8.2,1.7c3.9,1.4,8,2.9,11.4,1.6c1.5-0.6,2.8-1.2,4.1-1.8
					c4.6-2.2,8.2-3.8,11.7-1.1c1.4,1.1,2.4,4.2,3.7,8.1c2.1,6.3,4.7,14.1,10,17.6c1.5,1,3.3,2.1,5.2,3.3c7.8,4.9,16.7,10.5,17,13.5
					c0,0.5-0.1,0.9-0.4,1.2c-1.2,1.2-5,1-10.6,0.6c-10.5-0.7-28.1-1.7-43.5,6.9C-126.3,422.8-137.7,426.2-144.1,426.2z
					 M-166.2,364.7c-1.7,0-3.1,0.3-4.1,0.8c-1.1,0.6-1.7,1.5-2,2.7c-0.5,2.2,3.3,5.4,8,9.4c4.6,3.8,10.3,8.6,14.3,14.3
					c7.4,10.4,3.9,20.9,1.8,27.2c-0.4,1.3-0.8,2.5-1,3.5c-0.2,0.9,0.1,1.7,0.8,2.2c3.6,2.7,17.6,0,36.2-10.3
					c15.6-8.7,33.2-7.6,43.7-6.9c5.3,0.3,9.2,0.6,10.3-0.5c0.2-0.2,0.3-0.5,0.3-0.9c-0.3-2.8-9.4-8.6-16.8-13.2
					c-1.9-1.2-3.7-2.3-5.2-3.3c-5.4-3.6-8.1-11.5-10.2-17.8c-1.2-3.7-2.3-6.9-3.6-7.9c-3.3-2.6-6.8-0.9-11.3,1.2
					c-1.3,0.6-2.7,1.2-4.1,1.8l0,0c-3.5,1.4-7.7-0.1-11.7-1.6c-3-1.1-5.8-2.1-8-1.7c-1.6,0.3-2.8,1.4-4.2,2.7c-2.9,2.7-6.5,6-16,2.5
					C-156.6,366.1-162.3,364.7-166.2,364.7z"/>
			</g>
			<g>
				<path class="st0" d="M-141.4,423.5c-2.1,0-3.6-0.4-4.6-1.1c-0.9-0.6-1.2-1.5-1-2.6c0.2-1,0.6-2.1,1-3.5
					c1.9-6.1,4.8-15.3-1.7-24.6c-3.6-5.3-8.7-9.7-12.8-13.2c-4.6-3.9-7.8-6.8-7.3-9c0.3-1.2,1-2.2,2.1-2.8c3.2-1.7,9.7-0.7,20,3
					c8.4,3,11.5,0.3,14.2-2.2c1.3-1.1,2.5-2.2,4.1-2.5c2.1-0.4,4.7,0.6,7.5,1.5c3.6,1.3,7.4,2.6,10.5,1.4l0,0c1.3-0.5,2.5-1,3.6-1.6
					c4.4-2,7.9-3.5,11.2-0.9c1.3,1,2.3,4,3.5,7.7c1.9,5.8,4.3,13.1,9.2,16.5c1.5,1,3.3,2.2,5.2,3.4c6.8,4.4,14.5,9.5,14.8,12.3
					c0,0.5-0.1,0.8-0.4,1.2c-1.2,1.2-4.9,1-10.4,0.7c-10.2-0.5-25.7-1.4-39.7,6.2C-125.1,420.5-135.5,423.5-141.4,423.5z
					 M-161.7,366.3c-1.6,0-2.9,0.3-3.8,0.8c-1,0.5-1.6,1.4-1.9,2.5c-0.5,2,2.9,4.9,7.2,8.6c4.1,3.5,9.2,8,12.9,13.3
					c6.6,9.5,3.5,19.2,1.7,25c-0.4,1.3-0.8,2.5-1,3.4s0.1,1.7,0.8,2.2c3.5,2.6,16.1,0.3,33.3-9c14.1-7.7,29.6-6.8,39.9-6.3
					c5.2,0.3,8.9,0.5,10.1-0.6c0.2-0.2,0.3-0.5,0.3-0.8c-0.2-2.6-8.2-7.8-14.6-12c-1.9-1.2-3.7-2.4-5.2-3.4
					c-5-3.5-7.4-10.8-9.4-16.7c-1.2-3.5-2.2-6.5-3.4-7.5c-3.1-2.5-6.3-1-10.8,1c-1.2,0.5-2.4,1.1-3.7,1.6c-3.2,1.3-7.1-0.1-10.8-1.4
					c-2.7-1-5.3-1.9-7.3-1.5c-1.5,0.3-2.6,1.3-3.9,2.4c-2.7,2.4-6,5.4-14.6,2.3C-152.9,367.5-158.1,366.3-161.7,366.3z"/>
			</g>
			<g>
				<path class="st0" d="M-138.6,420.8c-2.1,0-3.7-0.4-4.6-1.1c-0.9-0.6-1.2-1.5-1.1-2.6c0.2-1,0.5-2.1,0.9-3.5
					c1.6-5.6,4-14-1.6-22.4c-3.2-4.8-7.7-8.9-11.4-12.1c-4.1-3.6-7-6.3-6.5-8.3c0.3-1.1,0.9-2,2-2.5c2.9-1.6,8.9-0.7,18.2,2.6
					c7.5,2.7,10.4,0.2,12.9-1.9c1.2-1,2.4-2,3.9-2.3c1.9-0.3,4.3,0.5,6.9,1.3c3.3,1.1,6.7,2.3,9.5,1.2c1.1-0.4,2.2-0.9,3.2-1.3
					c4.3-1.8,7.6-3.2,10.7-0.7c1.2,1,2.2,3.8,3.3,7.3c1.8,5.4,4,12.1,8.5,15.4c1.5,1.1,3.2,2.3,5,3.5c6.1,4.2,12.5,8.6,12.7,11.2
					c0,0.4-0.1,0.8-0.4,1.1c-1.3,1.2-5,1-10.1,0.8c-9.3-0.4-23.3-1-35.8,5.6C-124.3,418.4-133.3,420.8-138.6,420.8z M-157.2,367.9
					c-1.5,0-2.7,0.2-3.6,0.7c-0.9,0.5-1.5,1.2-1.8,2.3c-0.5,1.8,2.5,4.5,6.3,7.9c3.6,3.3,8.2,7.3,11.4,12.2
					c5.7,8.6,3.3,17.1,1.7,22.8c-0.4,1.3-0.7,2.5-0.9,3.4s0.2,1.7,0.9,2.2c3.3,2.4,14.8,0.6,30.3-7.6c12.6-6.7,26.7-6.1,36-5.7
					c5.1,0.2,8.7,0.4,9.8-0.7c0.2-0.2,0.3-0.5,0.3-0.8c-0.2-2.4-6.7-6.9-12.5-10.9c-1.8-1.3-3.5-2.4-5-3.5
					c-4.6-3.4-6.8-10.1-8.6-15.6c-1.1-3.3-2-6.1-3.2-7.1c-2.9-2.4-6-1.1-10.3,0.7c-1,0.4-2.1,0.9-3.2,1.3l-0.1-0.2l0.1,0.2
					c-3,1.1-6.5,0-9.8-1.2c-2.5-0.9-4.9-1.7-6.7-1.3c-1.4,0.3-2.5,1.2-3.7,2.2c-2.5,2.1-5.6,4.8-13.3,2
					C-149.2,369-153.9,367.9-157.2,367.9z"/>
			</g>
			<g>
				<path class="st0" d="M-135.9,418.2c-2.1,0-3.7-0.4-4.6-1.1c-0.9-0.6-1.3-1.5-1.2-2.6c0.1-1,0.4-2.1,0.8-3.5
					c1.3-5,3.3-12.7-1.5-20.2c-2.8-4.4-6.8-8.1-9.9-11.1c-3.6-3.3-6.1-5.7-5.6-7.6c0.3-1,0.9-1.8,1.8-2.3c2.7-1.4,8-0.7,16.4,2.2
					c6.6,2.3,9.3,0.2,11.6-1.7c1.1-0.9,2.2-1.8,3.6-2c1.7-0.3,3.9,0.4,6.2,1.2c3,1,6,2,8.6,1l0,0c0.9-0.3,1.8-0.7,2.6-1
					c4.3-1.7,7.4-2.9,10.3-0.5c1.2,1,2,3.6,3.1,6.9c1.6,4.9,3.7,11.1,7.7,14.2c1.4,1.1,3,2.3,4.7,3.5c5.2,3.8,10.6,7.7,10.8,10.1
					c0,0.4-0.1,0.8-0.4,1.1c-1.3,1.2-4.9,1.1-9.9,0.9c-8.3-0.3-20.9-0.6-31.9,5C-123,416.1-130.9,418.2-135.9,418.2z M-152.6,369.5
					c-1.4,0-2.5,0.2-3.3,0.7c-0.8,0.4-1.4,1.1-1.6,2.1c-0.4,1.7,2.2,4.1,5.5,7.2c3.2,3,7.1,6.7,10,11.1c5,7.7,2.9,15.4,1.6,20.5
					c-0.4,1.3-0.7,2.5-0.8,3.4s0.2,1.7,1,2.2c3,2.1,12.9,1.1,27.3-6.3c11.1-5.7,23.8-5.3,32.1-5.1c4.7,0.1,8.5,0.3,9.6-0.8
					c0.2-0.2,0.3-0.5,0.3-0.8c-0.1-2.2-5.7-6.2-10.6-9.8c-1.7-1.2-3.3-2.4-4.7-3.5c-4.2-3.3-6.2-9.5-7.9-14.4c-1-3.1-1.9-5.8-3-6.7
					c-2.7-2.3-5.7-1.1-9.9,0.5c-0.8,0.3-1.7,0.7-2.6,1l0,0c-2.7,1-5.8,0-8.9-1c-2.2-0.7-4.4-1.4-6-1.1c-1.3,0.2-2.3,1.1-3.4,1.9
					c-2.4,1.9-5.1,4.1-12,1.8C-145.4,370.5-149.7,369.5-152.6,369.5z"/>
			</g>
			<g>
				<path class="st0" d="M-133.1,415.5c-2.1,0-3.7-0.4-4.6-1s-1.4-1.6-1.3-2.6c0.1-1,0.4-2.1,0.7-3.5c1.1-4.8,2.7-11.3-1.4-18
					c-2.4-4-5.8-7.3-8.5-10c-3.1-3-5.3-5.2-4.8-6.9c0.3-0.9,0.8-1.6,1.7-2.1c2.4-1.3,7.2-0.7,14.6,1.9c5.8,1.9,8.2,0.1,10.3-1.5
					c1-0.8,2-1.5,3.3-1.8c1.6-0.3,3.5,0.3,5.5,1c2.6,0.8,5.4,1.7,7.7,0.8l0,0c0.7-0.3,1.4-0.5,2-0.7c4.2-1.6,7.2-2.7,9.9-0.3
					c1.1,1,1.9,3.4,2.9,6.5c1.5,4.5,3.3,10,7,13.1c1.3,1.1,2.7,2.2,4.3,3.4c4.4,3.4,8.9,7,9,9.1c0,0.4-0.1,0.8-0.4,1.1
					c-1.3,1.2-4.8,1.2-9.7,1.1c-7.8-0.1-18.5-0.3-28.1,4.4C-121.8,413.8-128.7,415.5-133.1,415.5z M-148.1,371.2
					c-1.3,0-2.3,0.2-3.1,0.6s-1.3,1-1.5,1.8c-0.4,1.5,1.8,3.7,4.7,6.5c2.7,2.7,6.1,6,8.5,10.1c4.2,6.8,2.5,13.7,1.5,18.3
					c-0.3,1.3-0.6,2.5-0.7,3.4c-0.1,0.9,0.3,1.7,1.1,2.3c2.9,2,11.6,1.2,24.4-5c9.7-4.7,20.4-4.5,28.2-4.4c4.6,0.1,8.3,0.1,9.4-1
					c0.2-0.2,0.3-0.5,0.3-0.8c-0.1-2-4.8-5.6-8.9-8.8c-1.5-1.2-3-2.3-4.3-3.4c-3.7-3.2-5.6-8.8-7.1-13.3c-1-2.9-1.8-5.4-2.8-6.3
					c-2.5-2.3-5.4-1.2-9.5,0.3c-0.6,0.2-1.3,0.5-2,0.7l0,0c-2.4,0.9-5.2,0-7.9-0.8c-2-0.6-3.9-1.2-5.4-1c-1.2,0.2-2.1,0.9-3.2,1.7
					c-2.2,1.7-4.7,3.5-10.6,1.5C-141.7,372-145.5,371.2-148.1,371.2z"/>
			</g>
			<g>
				<path class="st0" d="M-130.3,412.9c-2,0-3.5-0.4-4.6-1.1c-1-0.6-1.4-1.6-1.4-2.7c0-1,0.3-2.1,0.5-3.5c0.8-4.2,2-10-1.3-15.8
					c-2.1-3.6-4.8-6.5-7-8.9c-2.6-2.7-4.4-4.7-3.9-6.2c0.3-0.8,0.8-1.4,1.6-1.8c2.1-1.1,6.3-0.6,12.9,1.5c4.9,1.6,7,0.1,8.9-1.2
					c1-0.7,1.9-1.3,3.1-1.5c1.4-0.2,3.1,0.3,4.9,0.8c2.3,0.7,4.7,1.4,6.8,0.7l0,0c0.4-0.2,0.9-0.3,1.3-0.4c4.1-1.4,7.1-2.4,9.6-0.1
					c1.1,1,1.8,3.4,2.7,6.1c1.3,4,3,9,6.2,12c1.1,1,2.4,2.1,3.7,3.2c3.8,3.2,7.4,6.2,7.4,8.2c0,0.4-0.1,0.8-0.5,1.1
					c-1.3,1.3-4.8,1.2-9.6,1.2c-6.8,0-16,0-24.1,3.7C-119.9,411.3-126.1,412.9-130.3,412.9z M-143.5,372.8c-1.2,0-2.1,0.2-2.8,0.5
					c-0.7,0.4-1.1,0.9-1.4,1.6c-0.4,1.3,1.5,3.3,3.8,5.8c2.2,2.4,5,5.4,7.1,9c3.4,5.9,2.2,11.8,1.4,16.1c-0.3,1.3-0.5,2.5-0.5,3.4
					c0,1,0.4,1.8,1.2,2.3c2.5,1.7,9.6,1.7,21.3-3.7c8.2-3.8,17.5-3.8,24.3-3.7c4.5,0,8.1,0,9.3-1.1c0.2-0.2,0.3-0.5,0.3-0.8
					c0-1.8-3.7-4.9-7.3-7.9c-1.3-1.1-2.6-2.2-3.7-3.2c-3.3-3.1-5-8.1-6.3-12.1c-0.9-2.7-1.7-5-2.6-5.9c-2.4-2.2-5.1-1.3-9.2,0.2
					c-0.4,0.1-0.9,0.3-1.3,0.4l0,0c-2.2,0.7-4.6,0-7-0.7c-1.8-0.5-3.4-1-4.7-0.8c-1.1,0.2-2,0.8-2.9,1.4c-2,1.4-4.2,2.9-9.3,1.3
					C-138,373.4-141.2,372.8-143.5,372.8z"/>
			</g>
			<g>
				<path class="st0" d="M-127.5,410.4c-2,0-3.6-0.4-4.7-1.1c-1-0.7-1.5-1.6-1.5-2.8c0-1,0.2-2.1,0.4-3.5c0.6-3.6,1.4-8.6-1.2-13.5
					c-1.6-3.1-3.8-5.7-5.6-7.8c-2.1-2.4-3.6-4.2-3.1-5.6c0.9-2.7,4.9-2.8,12.5-0.5c4,1.2,5.9,0.1,7.6-1c0.9-0.6,1.7-1.1,2.8-1.2
					c1.2-0.2,2.7,0.2,4.2,0.6c2,0.5,4,1,5.8,0.5l0.4-0.1c4.3-1.4,7.2-2.3,9.6,0.1c1,1,1.7,3.2,2.6,5.7c1.2,3.5,2.6,8,5.4,10.8
					c0.9,0.9,1.9,1.9,2.9,2.9c3.1,2.9,5.9,5.6,5.9,7.5c0,0.4-0.2,0.8-0.5,1.1c-1.4,1.3-4.9,1.3-9.4,1.4c-6,0.1-13.5,0.2-20.2,3
					C-118.9,409.1-123.8,410.4-127.5,410.4z M-138.9,374.4c-2.1,0-3.4,0.6-3.8,1.9c-0.4,1.1,1.1,2.9,3,5.2c1.8,2.1,4,4.7,5.6,7.9
					c2.6,5,1.8,10.1,1.2,13.8c-0.2,1.3-0.4,2.5-0.4,3.4c0,1,0.5,1.8,1.4,2.4c2.4,1.6,8.4,1.7,18.3-2.5c6.8-2.9,14.3-3,20.3-3.1
					c4.4-0.1,7.9-0.1,9.2-1.3c0.2-0.2,0.4-0.5,0.4-0.8c0-1.7-3-4.5-5.8-7.2c-1-1-2-1.9-3-2.9c-2.9-2.9-4.3-7.4-5.5-11
					c-0.8-2.5-1.5-4.6-2.5-5.6c-2.2-2.2-4.8-1.4-9.2,0l-0.4,0.1l-0.1-0.2l0.1,0.2c-1.9,0.6-4,0.1-6.1-0.5c-1.5-0.4-2.9-0.8-4.1-0.6
					c-1,0.2-1.8,0.7-2.6,1.2c-1.7,1.1-3.7,2.3-7.9,1C-134.2,374.9-137,374.4-138.9,374.4z"/>
			</g>
			<g>
				<path class="st0" d="M-124.5,407.9c-2,0-3.6-0.4-4.8-1.1c-1.1-0.7-1.7-1.7-1.7-2.9c-0.1-1,0.1-2.2,0.2-3.5
					c0.4-3.2,0.8-7.3-1-11.3c-1.2-2.7-2.8-4.9-4.1-6.7c-1.6-2.2-2.7-3.7-2.2-4.9c0.9-2.2,4.2-2.4,10.6-0.7c3.2,0.9,4.8,0,6.3-0.8
					c0.8-0.4,1.6-0.8,2.5-1c1-0.2,2.3,0.1,3.6,0.4c1.7,0.4,3.4,0.7,4.9,0.3c4.2-1.2,6.8-1.8,9,0.5c0.9,1,1.6,3,2.4,5.3
					c1,3.1,2.3,6.9,4.7,9.7c0.7,0.8,1.4,1.5,2.1,2.3c3,3.3,5.9,6.5,4.1,8.1c-1.5,1.4-5,1.5-9.4,1.6c-4.8,0.2-10.9,0.4-16.1,2.3
					C-117.9,407.1-121.6,407.9-124.5,407.9z M-134.4,376c-1.9,0-3,0.5-3.5,1.6c-0.4,1,0.7,2.5,2.2,4.5c1.3,1.8,2.9,4,4.2,6.7
					c1.9,4.1,1.4,8.2,1.1,11.5c-0.2,1.3-0.3,2.5-0.2,3.5c0.1,1.1,0.6,1.9,1.6,2.6c2.7,1.8,8.4,1.3,15.2-1.3c5.3-2,11.4-2.2,16.2-2.3
					c4.4-0.1,7.8-0.3,9.2-1.5c1.5-1.4-1.3-4.4-4.1-7.5c-0.7-0.8-1.4-1.5-2.1-2.3c-2.4-2.8-3.7-6.7-4.7-9.8c-0.8-2.3-1.4-4.3-2.3-5.2
					c-1.9-2-4.2-1.6-8.6-0.3l0,0c-1.6,0.5-3.4,0.1-5.1-0.3c-1.3-0.3-2.4-0.5-3.4-0.4c-0.9,0.1-1.6,0.5-2.4,0.9
					c-1.5,0.8-3.3,1.7-6.6,0.8C-130.6,376.4-132.7,376-134.4,376z"/>
			</g>
			<g>
				<path class="st0" d="M-121.5,405.5c-2,0-3.7-0.4-4.9-1.2c-1.1-0.7-1.8-1.8-2-3.1c-0.1-1-0.1-2.3,0-3.7c0.1-2.7,0.3-5.8-0.8-8.9
					c-0.8-2.2-1.8-4-2.7-5.5c-1.1-2-1.9-3.3-1.4-4.4c0.8-1.8,3.5-2,8.6-0.8c2.3,0.5,3.7,0,5-0.6c0.7-0.3,1.4-0.6,2.3-0.7
					s1.8,0,2.9,0.2c1.3,0.2,2.7,0.4,4,0.1l0,0c3.8-1,6.2-1.1,8,0.9c0.9,1,1.5,2.9,2.2,5c0.9,2.7,1.9,5.9,3.9,8.5
					c0.3,0.4,0.6,0.8,0.9,1.2c2.6,3.5,4.8,6.5,3.1,8.1c-1.6,1.5-5.3,1.7-9.6,1.9c-3.8,0.2-8.1,0.4-11.9,1.6
					C-116.8,405-119.3,405.5-121.5,405.5z M-129.7,377.6c-1.7,0-2.8,0.4-3.2,1.3c-0.4,0.8,0.4,2.1,1.4,4c0.8,1.5,1.9,3.3,2.7,5.5
					c1.2,3.2,1,6.5,0.9,9.1c-0.1,1.4-0.1,2.6,0,3.6c0.1,1.2,0.8,2.1,1.8,2.8c2.4,1.5,6.7,1.5,12.1-0.2c3.8-1.2,8.1-1.4,12-1.6
					c4.2-0.2,7.9-0.4,9.3-1.8c1.5-1.4-0.7-4.4-3.1-7.6c-0.3-0.4-0.6-0.8-0.9-1.2c-2-2.7-3.1-6-3.9-8.6c-0.7-2.1-1.3-3.9-2.1-4.9
					c-1.7-1.9-3.9-1.8-7.6-0.8l0,0c-1.4,0.3-2.8,0.1-4.2-0.1c-1-0.2-2-0.3-2.8-0.2c-0.8,0.1-1.5,0.4-2.2,0.7
					c-1.4,0.6-2.8,1.2-5.2,0.6C-126.8,377.9-128.4,377.6-129.7,377.6z"/>
			</g>
			<g>
				<path class="st0" d="M-118.2,403.3c-4.2,0-6.9-1.6-7.5-4.7c-0.2-1.2-0.3-2.6-0.3-4.1c0-1.9,0-4.1-0.6-6.3
					c-0.4-1.6-0.8-2.9-1.2-4c-0.7-1.9-1.1-3.2-0.6-4.1c0.8-1.3,2.7-1.6,6.7-1c1.5,0.2,2.6-0.1,3.7-0.4c0.6-0.2,1.2-0.3,2-0.4
					c0.7-0.1,1.4,0,2.2,0c1,0.1,2.1,0.1,3.1-0.1l0,0c3.6-0.7,5.6-0.3,7,1.4c0.8,1.1,1.4,2.8,2.1,4.8c0.7,2.2,1.6,4.8,3.1,7.2
					c2.3,3.9,3.4,6.6,1.7,8.2c-1.9,1.7-5.9,2-10.3,2.2c-2.4,0.1-4.9,0.3-7.1,0.7C-115.7,403.1-117,403.3-118.2,403.3z M-125,379.2
					c-1.6,0-2.6,0.4-3,1.1c-0.4,0.7,0,1.9,0.6,3.7c0.4,1.1,0.8,2.4,1.2,4c0.5,2.2,0.6,4.4,0.6,6.4c0,1.5,0,2.9,0.3,4.1
					c0.8,3.7,4.8,5.2,11,4c2.2-0.4,4.7-0.6,7.2-0.7c4.2-0.3,8.3-0.5,10-2.1c1.5-1.4,0.4-4-1.8-7.7c-1.5-2.5-2.3-5-3.1-7.3
					c-0.7-2-1.2-3.7-2-4.7c-1.3-1.6-3.2-2-6.6-1.3l0,0c-1.1,0.2-2.2,0.2-3.3,0.1c-0.8-0.1-1.5-0.1-2.1,0c-0.7,0.1-1.3,0.2-1.9,0.4
					c-1.1,0.3-2.3,0.6-3.9,0.4C-123,379.3-124.1,379.2-125,379.2z"/>
			</g>
			<g>
				<path class="st0" d="M-112.4,401.5c-0.7,0-1.5,0-2.1,0c-8.9-0.1-9.1-6.4-9.4-12.5c0-0.5,0-0.9-0.1-1.4c-0.3-6.9-0.2-7.1,5.5-7.4
					c1.8-0.1,4.3-0.2,7.6-0.7c5.6-0.8,6.5,2.1,8.1,6.8c0.6,1.7,1.2,3.5,2.1,5.6l0,0c1.2,2.6,1.3,4.7,0.3,6.2
					C-102.3,401.2-107.9,401.5-112.4,401.5z M-109.2,379.9c-0.5,0-1,0-1.6,0.1c-3.3,0.5-5.8,0.6-7.7,0.7c-5.4,0.3-5.4,0.3-5.1,6.9
					c0,0.5,0,0.9,0.1,1.4c0.3,6.2,0.5,12,9,12.1c4.3,0.1,11.6,0.2,13.8-3.1c0.9-1.4,0.8-3.4-0.3-5.8l0,0c-0.9-2.1-1.6-4-2.1-5.6
					C-104.5,382.4-105.3,379.9-109.2,379.9z"/>
			</g>
		</g>
	</g>
	<g>
		<g>
			<g>
				<path class="st0" d="M-73.9,431.6h-66.2v-66.2h66.2C-73.9,365.4-73.9,431.6-73.9,431.6z M-136.1,427.6h58.2v-58.2h-58.2
					C-136.1,369.4-136.1,427.6-136.1,427.6z"/>
			</g>
			<g>
				<g>
					<path class="st0" d="M-112.1,401.1l-0.2-1.3c0-0.2-0.1-0.3-0.2-0.3c-0.3-0.1-0.6-0.2-1.2-0.2c-1.2,0-1.8,0.6-1.8,1.4
						c0,1.1,1.1,1.4,2.3,1.7c1.5,0.5,3.3,1.1,3.3,3.5c0,2.7-2.1,3.7-4.5,3.7c-1.5,0-3.1-0.4-3.7-0.7v-3.2h1.8l0.3,1.5
						c0,0.2,0.1,0.2,0.3,0.3c0.2,0,0.7,0.2,1.4,0.2c1.3,0,2-0.5,2-1.5s-0.9-1.4-2-1.7c-1.6-0.5-3.6-0.9-3.6-3.5
						c0-2.5,1.9-3.6,4.3-3.6c1.4,0,2.6,0.3,3.3,0.6v3.2L-112.1,401.1z"/>
					<path class="st0" d="M-99.6,409.4v-1.3l1.3-0.1c0.2,0,0.3-0.1,0.3-0.3v-6.2h-0.1l-2.3,5.5h-2.6l-2.3-5.5h-0.1v6.2
						c0,0.3,0,0.3,0.3,0.3l1.4,0.1v1.3h-4.9v-1.3l1-0.1c0.2,0,0.3-0.1,0.3-0.3v-8.3c0-0.2,0-0.3-0.3-0.3l-1-0.1v-1.3h4.3l2.8,7.3
						h0.1l3-7.3h4.2v1.3l-1.1,0.1c-0.2,0-0.3,0.1-0.3,0.3v8.3c0,0.2,0,0.3,0.3,0.3l1.1,0.1v1.3L-99.6,409.4L-99.6,409.4z"/>
					<path class="st0" d="M-82.8,405.1c-0.2,0-0.3,0.1-0.3,0.2v3.5c-1.2,0.6-2.8,0.8-4.2,0.8c-4.4,0-5.9-2.6-5.9-6.1s2-6,6.1-6
						c1.2,0,2.7,0.3,3.7,0.9v3.1l-1.8-0.1l-0.2-1.5c0-0.2-0.1-0.3-0.3-0.3c-0.4-0.1-1-0.2-1.5-0.2c-2.1,0-3.3,1.6-3.3,4.1
						c0,2.7,1.1,4.3,3.4,4.3c0.4,0,1,0,1.3-0.1c0.2,0,0.3-0.1,0.3-0.3v-2.1h-1.8l0.2-1.5h5v1.3L-82.8,405.1z"/>
				</g>
			</g>
		</g>
	</g>
</g>
</svg>
