<?xml version="1.0" encoding="utf-8"?>
<!-- Generator: Adobe Illustrator 19.1.1, SVG Export Plug-In . SVG Version: 6.00 Build 0)  -->
<svg version="1.1" id="Layer_1" xmlns="http://www.w3.org/2000/svg" xmlns:xlink="http://www.w3.org/1999/xlink" x="0px" y="0px"
	 viewBox="-245 357 120 80" style="enable-background:new -245 357 120 80;" xml:space="preserve">
<style type="text/css">
	.st0{fill:#FFFFFF;}
</style>
<g>
	<path class="st0" d="M-217,408.2h-22.4v-22.4h22.4V408.2z M-242.1,410.9h27.8v-27.8h-27.8V410.9z"/>
	<path class="st0" d="M-230.6,392.8c0,1.4-1.2,2.6-2.6,2.6c-1.4,0-2.6-1.2-2.6-2.6s1.2-2.6,2.6-2.6
		C-231.8,390.1-230.6,391.3-230.6,392.8"/>
	<path class="st0" d="M-208.8,396.4h0.9c0.3,0,0.5,0,0.8-0.1c0.2,0,0.5-0.1,0.7-0.2c0.2-0.1,0.3-0.2,0.4-0.4
		c0.1-0.2,0.2-0.4,0.2-0.7c0-0.3-0.1-0.6-0.2-0.8c-0.1-0.2-0.3-0.3-0.5-0.5c-0.2-0.1-0.4-0.2-0.7-0.2c-0.3,0-0.5,0-0.8,0h-0.8V396.4
		z M-208.8,392.6h0.7c0.3,0,0.6,0,0.8,0c0.3,0,0.5-0.1,0.7-0.2c0.2-0.1,0.4-0.2,0.5-0.4c0.1-0.2,0.2-0.4,0.2-0.7
		c0-0.2,0-0.5-0.1-0.6c-0.1-0.2-0.2-0.3-0.4-0.4c-0.2-0.1-0.3-0.2-0.5-0.2c-0.2,0-0.4-0.1-0.5-0.1h-1.3V392.6z M-210,389h2.3
		c0.4,0,0.8,0,1.2,0.1c0.4,0.1,0.7,0.2,0.9,0.4c0.3,0.2,0.5,0.4,0.6,0.7c0.1,0.3,0.2,0.6,0.2,1c0,0.6-0.2,1-0.5,1.3
		c-0.3,0.3-0.7,0.5-1.3,0.7v0c0.3,0,0.5,0.1,0.8,0.2c0.2,0.1,0.4,0.2,0.6,0.4c0.2,0.2,0.3,0.4,0.4,0.6c0.1,0.2,0.1,0.5,0.1,0.8
		c0,0.4-0.1,0.8-0.3,1.1c-0.2,0.3-0.4,0.5-0.7,0.7c-0.3,0.2-0.6,0.3-1,0.3c-0.4,0.1-0.8,0.1-1.2,0.1h-2.2V389z"/>
	<path class="st0" d="M-199.8,394.4c-0.1,0-0.2,0-0.4,0c-0.1,0-0.2,0-0.4,0c-0.1,0-0.3,0-0.6,0c-0.2,0-0.5,0.1-0.7,0.1
		c-0.2,0.1-0.4,0.2-0.6,0.4c-0.2,0.2-0.2,0.4-0.2,0.6c0,0.2,0,0.3,0.1,0.4c0.1,0.1,0.2,0.2,0.3,0.3c0.1,0.1,0.2,0.1,0.4,0.2
		c0.1,0,0.3,0.1,0.4,0.1c0.6,0,1-0.2,1.3-0.5c0.3-0.3,0.4-0.7,0.4-1.1V394.4z M-203.2,391.7c0.3-0.2,0.6-0.3,0.9-0.4
		c0.3-0.1,0.7-0.2,1.1-0.2c0.9,0,1.5,0.2,1.9,0.6c0.4,0.4,0.6,1.1,0.6,1.9v2.5c0,0.4,0,0.6,0,0.8c0,0.2,0,0.3,0,0.4h-1.1v-0.8h0
		c-0.1,0.1-0.2,0.2-0.3,0.3c-0.1,0.1-0.2,0.2-0.4,0.3c-0.2,0.1-0.3,0.2-0.5,0.2c-0.2,0.1-0.4,0.1-0.7,0.1c-0.3,0-0.6,0-0.9-0.1
		c-0.3-0.1-0.5-0.2-0.7-0.3c-0.2-0.2-0.4-0.4-0.5-0.6c-0.1-0.2-0.2-0.5-0.2-0.9c0-0.4,0.1-0.7,0.3-1c0.2-0.3,0.4-0.5,0.7-0.6
		c0.3-0.2,0.6-0.3,0.9-0.3c0.3-0.1,0.6-0.1,0.9-0.1h0.6c0.2,0,0.4,0,0.6,0c0-0.5-0.1-0.9-0.3-1.2c-0.2-0.3-0.6-0.4-1.2-0.4
		c-0.3,0-0.6,0.1-1,0.2c-0.3,0.1-0.6,0.3-0.8,0.5L-203.2,391.7z"/>
	<path class="st0" d="M-197.7,391.2h1.1v1h0c0.2-0.4,0.4-0.6,0.8-0.8c0.4-0.2,0.8-0.3,1.2-0.3c0.8,0,1.4,0.2,1.7,0.7
		c0.4,0.5,0.6,1.1,0.6,1.9v3.6h-1.1v-3.2c0-0.7-0.1-1.3-0.3-1.6c-0.2-0.4-0.5-0.5-1-0.6c-0.3,0-0.6,0.1-0.8,0.2
		c-0.2,0.1-0.4,0.3-0.6,0.5c-0.2,0.2-0.3,0.5-0.3,0.8c-0.1,0.3-0.1,0.7-0.1,1v2.8h-1.1V391.2z"/>
	<polygon class="st0" points="-191.2,388.4 -190.1,388.4 -190.1,393.7 -187.6,391.2 -186.1,391.2 -188.9,394 -185.7,397.4 
		-187.3,397.4 -190.1,394.2 -190.1,397.4 -191.2,397.4 	"/>
	<polygon class="st0" points="-180.1,390 -182.7,390 -182.7,389 -176.3,389 -176.3,390 -178.9,390 -178.9,397.4 -180.1,397.4 	"/>
	<path class="st0" d="M-172.9,393.7c0-0.2,0-0.5-0.1-0.7c-0.1-0.2-0.2-0.4-0.3-0.5c-0.1-0.2-0.3-0.3-0.5-0.4
		c-0.2-0.1-0.4-0.1-0.6-0.1c-0.3,0-0.5,0-0.7,0.2c-0.2,0.1-0.4,0.2-0.5,0.4c-0.1,0.2-0.2,0.3-0.3,0.5c-0.1,0.2-0.1,0.4-0.1,0.6
		H-172.9z M-172.2,397.1c-0.1,0-0.2,0.1-0.3,0.1c-0.1,0-0.3,0.1-0.4,0.1c-0.1,0-0.3,0.1-0.5,0.1c-0.2,0-0.4,0-0.7,0
		c-0.5,0-1-0.1-1.4-0.2c-0.4-0.2-0.7-0.4-1-0.7c-0.3-0.3-0.5-0.6-0.6-1c-0.1-0.4-0.2-0.9-0.2-1.4c0-0.5,0.1-0.9,0.2-1.2
		c0.1-0.4,0.3-0.7,0.6-1c0.3-0.3,0.6-0.5,0.9-0.6c0.4-0.2,0.7-0.2,1.2-0.2c0.5,0,0.9,0.1,1.3,0.3c0.3,0.2,0.6,0.4,0.8,0.7
		c0.2,0.3,0.4,0.7,0.4,1.1c0.1,0.4,0.1,0.9,0.1,1.4h-4.4c0,0.3,0.1,0.6,0.2,0.8c0.1,0.2,0.3,0.5,0.4,0.6c0.2,0.2,0.4,0.3,0.6,0.4
		c0.2,0.1,0.5,0.2,0.8,0.2c0.2,0,0.4,0,0.6-0.1c0.2,0,0.4-0.1,0.6-0.2c0.2-0.1,0.3-0.1,0.5-0.2c0.1-0.1,0.2-0.1,0.3-0.2V397.1z"/>
	<path class="st0" d="M-166.5,392.3c-0.2-0.1-0.4-0.2-0.6-0.2c-0.2,0-0.4-0.1-0.6-0.1c-0.3,0-0.6,0.1-0.8,0.2
		c-0.2,0.1-0.4,0.3-0.6,0.5c-0.2,0.2-0.3,0.5-0.4,0.7c-0.1,0.3-0.1,0.6-0.1,0.8c0,0.3,0,0.5,0.1,0.8c0.1,0.3,0.2,0.5,0.4,0.7
		c0.2,0.2,0.4,0.4,0.6,0.5c0.3,0.1,0.6,0.2,0.9,0.2c0.2,0,0.4,0,0.6-0.1c0.2-0.1,0.4-0.1,0.6-0.3l0.1,1c-0.2,0.1-0.5,0.2-0.7,0.2
		c-0.3,0-0.5,0-0.7,0c-0.5,0-0.9-0.1-1.3-0.3c-0.4-0.2-0.7-0.4-1-0.7c-0.3-0.3-0.5-0.6-0.6-1c-0.2-0.4-0.2-0.8-0.2-1.2
		c0-0.5,0.1-0.9,0.2-1.3c0.1-0.4,0.4-0.7,0.6-1c0.3-0.3,0.6-0.5,1-0.7c0.4-0.2,0.8-0.2,1.3-0.2c0.2,0,0.5,0,0.7,0.1
		c0.3,0.1,0.5,0.1,0.6,0.2L-166.5,392.3z"/>
	<path class="st0" d="M-165.4,388.4h1.1v3.8h0c0.2-0.3,0.5-0.6,0.8-0.8c0.3-0.2,0.7-0.3,1.2-0.3c0.8,0,1.4,0.2,1.7,0.7
		c0.4,0.5,0.6,1.1,0.6,1.9v3.6h-1.1v-3.2c0-0.7-0.1-1.3-0.3-1.6c-0.2-0.4-0.5-0.5-1-0.6c-0.3,0-0.6,0.1-0.8,0.2
		c-0.2,0.1-0.4,0.3-0.6,0.5c-0.1,0.2-0.3,0.5-0.3,0.8c-0.1,0.3-0.1,0.7-0.1,1v2.8h-1.1V388.4z"/>
	<path class="st0" d="M-158.9,391.2h1.1v1h0c0.2-0.4,0.4-0.6,0.8-0.8c0.4-0.2,0.8-0.3,1.2-0.3c0.8,0,1.4,0.2,1.7,0.7
		c0.4,0.5,0.6,1.1,0.6,1.9v3.6h-1.1v-3.2c0-0.7-0.1-1.3-0.3-1.6c-0.2-0.4-0.5-0.5-1-0.6c-0.3,0-0.6,0.1-0.8,0.2
		c-0.2,0.1-0.4,0.3-0.6,0.5c-0.1,0.2-0.3,0.5-0.3,0.8c-0.1,0.3-0.1,0.7-0.1,1v2.8h-1.1V391.2z"/>
	<path class="st0" d="M-152.2,391.2h1.1v6.1h-1.1V391.2z M-151,389.9h-1.3v-1.3h1.3V389.9z"/>
	<path class="st0" d="M-148.9,394.3c0,0.2,0,0.5,0.1,0.8c0.1,0.3,0.2,0.5,0.3,0.7c0.1,0.2,0.3,0.4,0.5,0.6c0.2,0.2,0.5,0.2,0.8,0.2
		c0.3,0,0.6-0.1,0.8-0.2c0.2-0.1,0.4-0.3,0.6-0.5c0.1-0.2,0.3-0.5,0.3-0.7c0.1-0.3,0.1-0.5,0.1-0.8c0-0.3,0-0.6-0.1-0.8
		c-0.1-0.3-0.2-0.5-0.3-0.7c-0.1-0.2-0.3-0.4-0.6-0.5c-0.2-0.1-0.5-0.2-0.8-0.2c-0.3,0-0.6,0.1-0.8,0.2c-0.2,0.1-0.4,0.3-0.5,0.5
		c-0.1,0.2-0.2,0.5-0.3,0.7C-148.9,393.7-148.9,394-148.9,394.3 M-144.3,399.9h-1.1v-3.3h0c-0.2,0.3-0.4,0.5-0.8,0.7
		c-0.4,0.2-0.8,0.3-1.2,0.3c-0.5,0-0.9-0.1-1.2-0.3c-0.3-0.2-0.6-0.4-0.8-0.7c-0.2-0.3-0.4-0.7-0.5-1.1c-0.1-0.4-0.2-0.8-0.2-1.2
		c0-0.4,0.1-0.8,0.2-1.2c0.1-0.4,0.3-0.7,0.5-1c0.2-0.3,0.5-0.5,0.8-0.7c0.3-0.2,0.7-0.3,1.2-0.3c0.3,0,0.5,0,0.7,0.1
		c0.2,0.1,0.4,0.1,0.6,0.2c0.2,0.1,0.3,0.2,0.4,0.3c0.1,0.1,0.2,0.2,0.3,0.4h0v-0.9h1.1V399.9z"/>
	<path class="st0" d="M-137.9,397.4h-1.1v-1h0c-0.2,0.4-0.4,0.6-0.8,0.8c-0.4,0.2-0.8,0.3-1.2,0.3c-0.8,0-1.4-0.2-1.7-0.7
		c-0.4-0.5-0.6-1.1-0.6-1.9v-3.6h1.1v3.2c0,0.7,0.1,1.3,0.3,1.6c0.2,0.4,0.5,0.5,1,0.6c0.3,0,0.6-0.1,0.8-0.2
		c0.2-0.1,0.4-0.3,0.6-0.5c0.1-0.2,0.3-0.5,0.3-0.8c0.1-0.3,0.1-0.7,0.1-1v-2.8h1.1V397.4z"/>
	<path class="st0" d="M-132.6,393.7c0-0.2,0-0.5-0.1-0.7c-0.1-0.2-0.2-0.4-0.3-0.5c-0.1-0.2-0.3-0.3-0.5-0.4
		c-0.2-0.1-0.4-0.1-0.6-0.1c-0.3,0-0.5,0-0.7,0.2c-0.2,0.1-0.4,0.2-0.5,0.4c-0.1,0.2-0.2,0.3-0.3,0.5c-0.1,0.2-0.1,0.4-0.1,0.6
		H-132.6z M-131.9,397.1c-0.1,0-0.2,0.1-0.4,0.1c-0.1,0-0.3,0.1-0.4,0.1c-0.2,0-0.3,0.1-0.5,0.1c-0.2,0-0.4,0-0.7,0
		c-0.5,0-1-0.1-1.4-0.2c-0.4-0.2-0.7-0.4-1-0.7c-0.3-0.3-0.5-0.6-0.6-1c-0.1-0.4-0.2-0.9-0.2-1.4c0-0.5,0.1-0.9,0.2-1.2
		c0.1-0.4,0.3-0.7,0.6-1c0.2-0.3,0.6-0.5,0.9-0.6c0.4-0.2,0.7-0.2,1.2-0.2c0.5,0,0.9,0.1,1.3,0.3c0.3,0.2,0.6,0.4,0.8,0.7
		c0.2,0.3,0.4,0.7,0.5,1.1c0.1,0.4,0.1,0.9,0.1,1.4h-4.4c0,0.3,0.1,0.6,0.2,0.8c0.1,0.2,0.3,0.5,0.4,0.6c0.2,0.2,0.4,0.3,0.7,0.4
		c0.2,0.1,0.5,0.2,0.8,0.2c0.2,0,0.4,0,0.6-0.1c0.2,0,0.4-0.1,0.6-0.2c0.2-0.1,0.3-0.1,0.5-0.2c0.1-0.1,0.2-0.1,0.3-0.2V397.1z"/>
	<path class="st0" d="M-129.6,392.3h0.3c0,0,0.1,0,0.1,0c0,0,0.1,0,0.1,0c0,0,0.1,0,0.1-0.1c0,0,0-0.1,0-0.1c0,0,0-0.1,0-0.1
		c0,0,0,0-0.1-0.1c0,0-0.1,0-0.1,0c0,0-0.1,0-0.1,0h-0.3V392.3z M-129.8,391.7h0.6c0.2,0,0.3,0,0.4,0.1c0.1,0.1,0.1,0.2,0.1,0.4
		c0,0.1,0,0.2-0.1,0.3c-0.1,0.1-0.2,0.1-0.3,0.1l0.4,0.7h-0.3l-0.4-0.7h-0.2v0.7h-0.3V391.7z M-129.3,393.6c0.1,0,0.3,0,0.4-0.1
		c0.1-0.1,0.2-0.1,0.3-0.2c0.1-0.1,0.2-0.2,0.2-0.4c0.1-0.1,0.1-0.3,0.1-0.4c0-0.2,0-0.3-0.1-0.4c-0.1-0.1-0.1-0.3-0.2-0.4
		c-0.1-0.1-0.2-0.2-0.3-0.2c-0.1-0.1-0.3-0.1-0.4-0.1s-0.3,0-0.4,0.1c-0.1,0.1-0.2,0.1-0.3,0.2c-0.1,0.1-0.2,0.2-0.2,0.4
		c-0.1,0.1-0.1,0.3-0.1,0.4c0,0.2,0,0.3,0.1,0.4c0.1,0.1,0.1,0.3,0.2,0.4c0.1,0.1,0.2,0.2,0.3,0.2
		C-129.6,393.5-129.5,393.6-129.3,393.6 M-129.3,393.8c-0.2,0-0.4,0-0.5-0.1c-0.2-0.1-0.3-0.2-0.4-0.3c-0.1-0.1-0.2-0.3-0.3-0.4
		c-0.1-0.2-0.1-0.3-0.1-0.5c0-0.2,0-0.4,0.1-0.5c0.1-0.2,0.2-0.3,0.3-0.4c0.1-0.1,0.3-0.2,0.4-0.3c0.2-0.1,0.3-0.1,0.5-0.1
		c0.2,0,0.4,0,0.5,0.1c0.2,0.1,0.3,0.2,0.4,0.3c0.1,0.1,0.2,0.3,0.3,0.4c0.1,0.2,0.1,0.3,0.1,0.5c0,0.2,0,0.4-0.1,0.5
		c-0.1,0.2-0.2,0.3-0.3,0.4c-0.1,0.1-0.3,0.2-0.4,0.3C-128.9,393.8-129.1,393.8-129.3,393.8"/>
	<polygon class="st0" points="-208.2,399.6 -210.1,399.6 -210.1,399.2 -206,399.2 -206,399.6 -207.8,399.6 -207.8,404.9 
		-208.2,404.9 	"/>
	<path class="st0" d="M-204.8,404.7c0.4,0,0.8-0.2,1.1-0.5c0.3-0.3,0.4-0.8,0.4-1.3c0-0.4-0.1-0.8-0.3-1.2c-0.3-0.4-0.7-0.6-1.1-0.6
		c-0.5,0-0.9,0.2-1.1,0.6c-0.2,0.3-0.4,0.7-0.4,1.2c0,0.5,0.1,0.9,0.4,1.3C-205.6,404.5-205.2,404.7-204.8,404.7L-204.8,404.7z
		 M-204.8,405c-0.5,0-1-0.2-1.3-0.6c-0.4-0.4-0.5-0.9-0.5-1.5c0-0.7,0.2-1.2,0.6-1.6c0.4-0.4,0.8-0.6,1.3-0.6c0.6,0,1,0.2,1.4,0.6
		c0.3,0.4,0.5,0.9,0.5,1.5c0,0.4-0.1,0.7-0.2,1c-0.1,0.3-0.3,0.5-0.5,0.7C-203.9,404.8-204.3,405-204.8,405L-204.8,405z"/>
	<path class="st0" d="M-198.8,403.9c0,0.4,0,0.7,0,1h-0.4l0-0.7h0c-0.1,0.2-0.3,0.4-0.5,0.5c-0.3,0.2-0.6,0.3-0.9,0.3
		c-0.2,0-0.3,0-0.4-0.1c-0.2-0.1-0.3-0.1-0.5-0.3c-0.2-0.1-0.3-0.3-0.4-0.5c-0.1-0.3-0.1-0.6-0.1-0.9v-2.4h0.4v2.3
		c0,0.5,0.1,0.8,0.2,1.1c0.2,0.3,0.5,0.4,0.8,0.4c0.3,0,0.5-0.1,0.8-0.3c0.2-0.1,0.4-0.3,0.4-0.6c0.1-0.2,0.1-0.3,0.1-0.4v-2.5h0.4
		V403.9z"/>
	<path class="st0" d="M-194.6,404.8C-194.6,404.8-194.7,404.8-194.6,404.8c-0.1,0.1-0.1,0.1-0.2,0.1c-0.1,0-0.2,0.1-0.3,0.1
		c-0.2,0.1-0.5,0.1-0.8,0.1c-0.6,0-1-0.2-1.4-0.6c-0.4-0.4-0.5-0.9-0.5-1.5c0-0.6,0.2-1.2,0.6-1.6c0.4-0.4,0.9-0.6,1.5-0.6
		c0.2,0,0.4,0,0.7,0.1c0.2,0.1,0.3,0.1,0.4,0.2l-0.1,0.3c-0.1-0.1-0.2-0.1-0.4-0.2c-0.2-0.1-0.4-0.1-0.6-0.1c-0.5,0-0.9,0.2-1.2,0.5
		c-0.3,0.3-0.4,0.7-0.4,1.2c0,0.5,0.1,1,0.4,1.3c0.3,0.3,0.7,0.5,1.2,0.5c0.2,0,0.4,0,0.6-0.1c0.1,0,0.1,0,0.2-0.1l0.1,0l0.1,0
		L-194.6,404.8z"/>
	<path class="st0" d="M-194.1,398.9h0.4v2.7h0c0.1-0.2,0.3-0.4,0.5-0.6c0.3-0.2,0.5-0.2,0.8-0.2c0.1,0,0.3,0,0.4,0.1
		c0.2,0.1,0.3,0.1,0.5,0.2c0.2,0.1,0.3,0.3,0.4,0.5c0.1,0.2,0.2,0.5,0.2,0.9v2.4h-0.4v-2.4c0-0.4-0.1-0.7-0.2-1
		c-0.2-0.3-0.5-0.4-0.9-0.4c-0.6,0-1,0.3-1.2,0.9c0,0.1-0.1,0.2-0.1,0.4v2.5h-0.4V398.9z"/>
	<path class="st0" d="M-186.6,400v0.9h1.2v0.3h-1.2v2.6c0,0.6,0.2,0.8,0.6,0.8c0.2,0,0.3,0,0.5-0.1l0,0.3c-0.2,0.1-0.4,0.1-0.6,0.1
		c-0.3,0-0.5-0.1-0.7-0.3c-0.2-0.2-0.3-0.5-0.3-1v-2.6h-0.7v-0.3h0.7v-0.7L-186.6,400z"/>
	<path class="st0" d="M-184.6,398.9h0.4v2.7h0c0.1-0.2,0.3-0.4,0.5-0.6c0.3-0.2,0.5-0.2,0.8-0.2c0.1,0,0.2,0,0.4,0.1
		c0.2,0.1,0.3,0.1,0.5,0.2c0.2,0.1,0.3,0.3,0.4,0.5c0.1,0.2,0.2,0.5,0.2,0.9v2.4h-0.4v-2.4c0-0.4-0.1-0.7-0.2-1
		c-0.2-0.3-0.5-0.4-0.9-0.4c-0.6,0-1,0.3-1.2,0.9c0,0.1-0.1,0.2-0.1,0.4v2.5h-0.4V398.9z"/>
	<path class="st0" d="M-177.4,402.5c0-0.4-0.1-0.7-0.2-0.9c-0.2-0.3-0.5-0.5-1-0.5c-0.4,0-0.7,0.2-1,0.5c-0.2,0.3-0.3,0.6-0.4,0.9
		H-177.4z M-180,402.9c0,0.6,0.2,1.1,0.5,1.4c0.3,0.3,0.6,0.4,1.1,0.4c0.3,0,0.5,0,0.7-0.1c0.1,0,0.2,0,0.2-0.1l0.2-0.1l0.1,0.3
		c0,0-0.1,0.1-0.2,0.1c-0.1,0-0.2,0.1-0.3,0.1c-0.3,0.1-0.5,0.1-0.8,0.1c-0.6,0-1-0.2-1.4-0.6c-0.3-0.4-0.5-0.9-0.5-1.5
		c0-0.7,0.2-1.2,0.5-1.6c0.3-0.4,0.8-0.6,1.3-0.6c0.3,0,0.6,0.1,0.8,0.2c0.2,0.1,0.4,0.3,0.5,0.5c0.1,0.2,0.2,0.4,0.2,0.6
		c0,0.2,0.1,0.4,0.1,0.5c0,0.1,0,0.2,0,0.2H-180z"/>
	<path class="st0" d="M-173.6,404.9v-3.7h-0.6v-0.3h0.6v-0.2c0-0.7,0.1-1.2,0.4-1.5c0.2-0.2,0.5-0.4,0.9-0.4c0.2,0,0.4,0,0.6,0.1
		l-0.1,0.3c-0.1,0-0.1-0.1-0.2-0.1c-0.1,0-0.2,0-0.3,0c-0.3,0-0.6,0.1-0.7,0.4c-0.1,0.2-0.2,0.6-0.2,1v0.2h1.1v0.3h-1.1v3.7H-173.6z
		"/>
	<path class="st0" d="M-168.3,403.9c0,0.4,0,0.7,0,1h-0.4l0-0.7h0c-0.1,0.2-0.3,0.4-0.5,0.5c-0.3,0.2-0.6,0.3-0.9,0.3
		c-0.2,0-0.3,0-0.4-0.1c-0.2-0.1-0.3-0.1-0.5-0.3c-0.2-0.1-0.3-0.3-0.4-0.5c-0.1-0.3-0.1-0.6-0.1-0.9v-2.4h0.4v2.3
		c0,0.5,0.1,0.8,0.2,1.1c0.2,0.3,0.5,0.4,0.8,0.4c0.3,0,0.5-0.1,0.7-0.3c0.2-0.1,0.4-0.3,0.4-0.6c0.1-0.2,0.1-0.3,0.1-0.4v-2.5h0.4
		V403.9z"/>
	<path class="st0" d="M-166.4,400v0.9h1.2v0.3h-1.2v2.6c0,0.6,0.2,0.8,0.6,0.8c0.2,0,0.3,0,0.5-0.1l0.1,0.3
		c-0.2,0.1-0.4,0.1-0.6,0.1c-0.3,0-0.5-0.1-0.7-0.3c-0.2-0.2-0.3-0.5-0.3-1v-2.6h-0.7v-0.3h0.7v-0.7L-166.4,400z"/>
	<path class="st0" d="M-161.4,403.9c0,0.4,0,0.7,0,1h-0.4l0-0.7h0c-0.1,0.2-0.3,0.4-0.5,0.5c-0.3,0.2-0.6,0.3-0.9,0.3
		c-0.2,0-0.3,0-0.4-0.1c-0.2-0.1-0.3-0.1-0.5-0.3c-0.2-0.1-0.3-0.3-0.4-0.5c-0.1-0.3-0.1-0.6-0.1-0.9v-2.4h0.4v2.3
		c0,0.5,0.1,0.8,0.2,1.1c0.2,0.3,0.5,0.4,0.8,0.4c0.3,0,0.5-0.1,0.8-0.3c0.2-0.1,0.4-0.3,0.4-0.6c0.1-0.2,0.1-0.3,0.1-0.4v-2.5h0.4
		V403.9z"/>
	<path class="st0" d="M-160.1,402.1c0-0.5,0-0.9,0-1.2h0.4l0,0.8h0c0.2-0.6,0.6-0.9,1.1-0.9c0,0,0.1,0,0.1,0c0,0,0.1,0,0.1,0v0.4
		c0,0-0.1,0-0.1,0h-0.1c-0.6,0-0.9,0.4-1.1,1.1c0,0.1,0,0.2,0,0.4v2.2h-0.4V402.1z"/>
	<path class="st0" d="M-155,402.5c0-0.4-0.1-0.7-0.2-0.9c-0.2-0.3-0.5-0.5-1-0.5c-0.4,0-0.7,0.2-1,0.5c-0.2,0.3-0.3,0.6-0.4,0.9
		H-155z M-157.5,402.9c0,0.6,0.2,1.1,0.5,1.4c0.3,0.3,0.6,0.4,1.1,0.4c0.3,0,0.5,0,0.7-0.1c0.1,0,0.2,0,0.2-0.1l0.2-0.1l0.1,0.3
		c0,0-0.1,0.1-0.2,0.1c-0.1,0-0.2,0.1-0.3,0.1c-0.3,0.1-0.5,0.1-0.8,0.1c-0.6,0-1-0.2-1.4-0.6c-0.3-0.4-0.5-0.9-0.5-1.5
		c0-0.7,0.2-1.2,0.5-1.6c0.3-0.4,0.8-0.6,1.3-0.6c0.3,0,0.6,0.1,0.8,0.2c0.2,0.1,0.4,0.3,0.5,0.5c0.1,0.2,0.2,0.4,0.2,0.6
		c0,0.2,0.1,0.4,0.1,0.5c0,0.1,0,0.2,0,0.2H-157.5z"/>
</g>
</svg>
