<?xml version="1.0" encoding="utf-8"?>
<!-- Generator: Adobe Illustrator 19.1.1, SVG Export Plug-In . SVG Version: 6.00 Build 0)  -->
<svg version="1.1" id="Layer_1" xmlns="http://www.w3.org/2000/svg" xmlns:xlink="http://www.w3.org/1999/xlink" x="0px" y="0px"
	 viewBox="-189.3 343.7 144.7 106.3" style="enable-background:new -189.3 343.7 144.7 106.3;" xml:space="preserve">
<style type="text/css">
	.st0{fill:#FFFFFF;}
</style>
<g>
	<path class="st0" d="M-131.6,363.5c-0.9,1.5-1.8,3-2.8,4.6c-6.5-3.5-13.1-3.6-19.5,0.2c-4.1,2.5-6.8,6.1-8.1,10.8
		c-2.9,10.7,3.7,20.6,13.3,23c5.8,1.5,11.2,0.4,16-3.3c4.7-3.7,7.1-8.6,7.3-14.7c1.9,0,3.6,0,5.4,0c0.7,6.9-4,17.9-14.9,22.4
		c-10.5,4.3-22.9,0.7-29.3-9c-6.6-10-5.1-22.9,3.7-31.2C-152.2,358.6-139.9,358.2-131.6,363.5z"/>
	<path class="st0" d="M-65.8,381.1c-1.8,0-3.6,0-5.3,0c-0.2-12.4-11.7-20.7-23-17.9c-10.6,2.6-16.6,13.6-13.2,23.8
		c3.4,10.2,15.5,16.1,26.6,10.3c0.4,0.8,0.9,1.6,1.3,2.4c0.4,0.8,0.9,1.5,1.3,2.3c-7,4.4-18.8,4.7-27.3-2.7c-8.7-7.5-10.8-20-5.2-30
		c5.5-9.8,17.4-14.5,28.2-11C-70.9,362-65.5,372.6-65.8,381.1z"/>
	<path class="st0" d="M-109,428.1c1.9-3.9,3.7-7.6,5.5-11.3c0.1,0,0.2,0,0.3,0c0.7,4.5,1.3,9.1,2,13.7c-0.5,0-0.9,0-1.4,0
		c-0.4-3.1-0.9-6.3-1.4-9.8c-1.7,3.5-3.3,6.7-4.9,9.9c-0.1,0-0.2,0-0.3,0c-1.6-3.2-3.2-6.4-5-9.9c-0.5,3.4-0.9,6.6-1.3,9.8
		c-0.4,0-0.9,0-1.4,0c0.7-4.6,1.3-9.1,1.9-13.6c0.1,0,0.2-0.1,0.3-0.1C-112.7,420.6-110.9,424.3-109,428.1z"/>
	<path class="st0" d="M-166.7,430.6c0-4.6,0-9.1,0-13.9c2.3,0.2,4.7,0.1,6.9,0.5c3.3,0.7,5.3,4.2,4.6,7.9c-0.6,3.4-2.7,5.3-6.1,5.5
		C-163,430.7-164.8,430.6-166.7,430.6z M-165.3,429.2c1.4,0,2.7,0.1,4,0c2.7-0.2,4.3-1.7,4.8-4.2c0.4-2.6-0.7-5-2.8-6
		c-1.9-0.8-3.9-0.6-5.9-0.7C-165.3,421.9-165.3,425.5-165.3,429.2z"/>
	<path class="st0" d="M-152.3,416.9c1.9,0,3.7-0.1,5.5,0c1.8,0.1,3.1,1.6,3.2,3.4c0.1,1.8-1,3.3-2.9,3.7c-0.6,0.1-1.1,0.2-1.8,0.3
		c1.6,2.1,3.2,4.1,4.8,6.2c-0.6,0-1.1,0-1.7,0c-1.4-1.8-2.9-3.8-4.5-5.7c-0.3-0.3-0.7-0.5-1.2-0.9c0,2.4,0,4.5,0,6.6
		c-0.5,0-0.9,0-1.4,0C-152.3,426-152.3,421.5-152.3,416.9z M-150.9,423c1.5-0.1,2.9-0.1,4.2-0.3c1-0.2,1.6-1.1,1.5-2.2
		c0-1-0.7-1.9-1.8-2c-1.3-0.1-2.6-0.2-4-0.2C-150.9,419.8-150.9,421.3-150.9,423z"/>
	<path class="st0" d="M-75.2,430.6c-0.7,0-1.2,0-1.7,0c-1.5-1.9-3-3.8-4.5-5.7c-0.2-0.3-0.7-0.5-1.2-0.9c0,2.4,0,4.5,0,6.6
		c-0.5,0-0.9,0-1.3,0c0-4.5,0-9.1,0-13.6c1.9,0,3.7-0.1,5.6,0c1.8,0.2,3,1.6,3,3.4c0,1.9-1,3.3-2.9,3.6c-0.5,0.1-1.1,0.2-1.8,0.3
		C-78.5,426.4-76.9,428.5-75.2,430.6z M-82.6,423c1.5-0.1,2.8-0.1,4.2-0.3c1.1-0.2,1.6-1.2,1.6-2.3c-0.1-1.1-0.8-1.9-1.8-2
		c-1.3-0.1-2.6-0.1-3.9-0.2C-82.6,419.8-82.6,421.3-82.6,423z"/>
	<path class="st0" d="M-139.2,422.5c2.1,0,4.2,0,6.3,0c0,0.5,0,0.9,0,1.3c-2.1,0-4.2,0-6.4,0c0,1.8,0,3.5,0,5.4c2.1,0,4.2,0,6.4,0
		c0,0.5,0,0.9,0,1.3c-2.6,0-5.1,0-7.8,0c0-4.5,0-9.1,0-13.7c2.6,0,5.2,0,7.8,0c0,0.4,0,0.8,0,1.3c-2.1,0-4.2,0-6.4,0
		C-139.2,419.6-139.2,421-139.2,422.5z"/>
	<path class="st0" d="M-118.3,430.6c-0.6,0-1,0-1.5,0c-0.7-1.5-1.4-3-2.1-4.4c-2,0-3.9,0-5.9,0c-0.7,1.5-1.4,3-2.1,4.4
		c-0.5,0-1,0-1.6,0c2.2-4.6,4.4-9.2,6.5-13.7c0.1,0,0.2,0,0.3-0.1C-122.6,421.4-120.4,425.9-118.3,430.6z M-122.6,424.7
		c-0.8-1.7-1.5-3.2-2.3-4.9c-0.8,1.7-1.5,3.3-2.3,4.9C-125.6,424.7-124.2,424.7-122.6,424.7z"/>
	<path class="st0" d="M-92.8,416.8c2.1,4.6,4.3,9.1,6.4,13.8c-0.5,0-1,0-1.5,0c-0.7-1.4-1.4-2.9-2.1-4.4c-2,0-3.9,0-5.9,0
		c-0.7,1.5-1.4,2.9-2.1,4.4c-0.5,0-1,0-1.6,0c2.2-4.6,4.4-9.2,6.5-13.8C-93,416.8-92.9,416.8-92.8,416.8z M-93,419.8
		c-0.8,1.7-1.5,3.3-2.3,4.9c1.6,0,3,0,4.6,0C-91.4,423-92.2,421.5-93,419.8z"/>
	<path class="st0" d="M-66.2,416.9c0,0.4,0,0.8,0,1.2c-1,0-1.9,0-3,0c0,4.2,0,8.3,0,12.4c-0.5,0-0.9,0-1.5,0c0-4.1,0-8.2,0-12.4
		c-1.1,0-2,0-3,0c0-0.5,0-0.8,0-1.3C-71.2,416.9-68.8,416.9-66.2,416.9z"/>
	<path class="st0" d="M-122.6,356.5c-1.6,0-2.8-1.2-2.8-2.8c0-1.5,1.3-2.8,2.8-2.8c1.5,0,2.7,1.3,2.7,2.8
		C-119.8,355.3-121,356.5-122.6,356.5z"/>
	<path class="st0" d="M-119.8,370.4c0,1.6-1.3,2.8-2.8,2.7c-1.5,0-2.7-1.3-2.7-2.8c0-1.5,1.3-2.8,2.8-2.8
		C-121,367.5-119.8,368.8-119.8,370.4z"/>
	<path class="st0" d="M-119.8,378.6c0,1.6-1.2,2.8-2.8,2.7c-1.5,0-2.7-1.2-2.7-2.8c0-1.6,1.2-2.8,2.8-2.8
		C-121,375.8-119.8,377.1-119.8,378.6z"/>
	<path class="st0" d="M-122.5,359.3c1.6,0,2.7,1.2,2.7,2.8c0,1.5-1.2,2.7-2.8,2.7c-1.5,0-2.8-1.3-2.8-2.8
		C-125.4,360.4-124.1,359.2-122.5,359.3z"/>
	<path class="st0" d="M-71.2,386.6c0-1.6,1.2-2.8,2.7-2.8c1.5,0,2.8,1.2,2.8,2.8c0,1.5-1.2,2.7-2.7,2.7
		C-70,389.4-71.2,388.2-71.2,386.6z"/>
	<path class="st0" d="M-68.5,400.2c1.5,0,2.8,1.3,2.8,2.8c0,1.4-1.3,2.8-2.7,2.8c-1.6,0-2.8-1.3-2.8-2.9
		C-71.2,401.4-69.9,400.2-68.5,400.2z"/>
	<path class="st0" d="M-68.6,397.5c-1.6,0-2.7-1.2-2.7-2.8c0-1.5,1.3-2.7,2.9-2.7c1.5,0,2.7,1.4,2.6,2.9
		C-65.8,396.5-67,397.6-68.6,397.5z"/>
	<path class="st0" d="M-96,439c-0.1,2.7-2.3,4.2-5.1,3.6c-2.1-0.4-3.5-2.1-3.4-4c0.1-1.9,1.7-3.5,3.8-3.7c1.5-0.2,2.9,0.3,4.2,1.4
		c-0.2,0.2-0.3,0.4-0.5,0.5c-2.2-1.5-4-1.6-5.5-0.4c-1,0.8-1.4,2.2-0.9,3.4c0.5,1.3,2.1,2.2,3.7,2.1c1.5-0.1,2.4-0.8,2.8-2.2
		c-0.8,0-1.5,0-2.4,0c0-0.3,0-0.5-0.1-0.8C-98.3,439-97.1,439-96,439z"/>
	<path class="st0" d="M-87.6,442.5c-0.4,0-0.6,0-0.9-0.1c0-2.4,0-4.8,0-7.5c1.9,2,3.5,3.8,5.4,5.7c0-2,0-3.7,0-5.5
		c0.3,0,0.6,0,0.8,0c0,2.4,0,4.8,0,7.5c-1.8-1.9-3.5-3.7-5.3-5.6C-87.6,439-87.6,440.7-87.6,442.5z"/>
	<path class="st0" d="M-152.3,442.5c-0.4,0-0.7,0-1,0c-1-1.1-1.9-2.3-2.9-3.4c-0.1,0-0.2,0.1-0.3,0.1c0,1.1,0,2.1,0,3.2
		c-0.4,0-0.6,0-0.9,0.1c0-2.5,0-4.9,0-7.4c1,0,2-0.1,3,0c1.2,0.1,2,0.8,2,1.9c0,1.1-0.6,1.8-1.9,2c-0.2,0-0.4,0.1-0.8,0.2
		C-154.1,440.3-153.2,441.4-152.3,442.5z M-156.5,438.4c0.9-0.1,1.7,0,2.4-0.2c0.4-0.1,0.9-0.8,0.9-1.1c0-0.4-0.6-0.9-1-1
		c-0.7-0.2-1.5,0-2.2,0C-156.5,436.8-156.5,437.5-156.5,438.4z"/>
	<path class="st0" d="M-150.6,435.1c1.5,0,3,0,4.5,0c0,0.2,0,0.4,0,0.8c-1.3,0-2.5,0-3.7,0c0,0.8,0,1.5,0,2.2c1.2,0,2.4,0,3.7,0
		c0,0.3,0,0.5,0,0.8c-1.2,0-2.4,0-3.6,0c0,0.9,0,1.8,0,2.7c1.2,0,2.4,0,3.6,0c0,0.3,0.1,0.5,0.1,0.8c-1.5,0-3,0-4.6,0
		C-150.6,440-150.6,437.7-150.6,435.1z"/>
	<path class="st0" d="M-159.6,440.8c0.2,0.1,0.4,0.3,0.6,0.4c-1.3,1.6-3.9,2.1-5.8,1c-1.6-0.9-2.4-2.8-1.8-4.5
		c0.5-1.5,1.6-2.3,3.1-2.6c1.7-0.3,3.2,0,4.5,1.4c-0.2,0.2-0.4,0.3-0.6,0.5c-1.9-1.8-4.4-1.4-5.6-0.1c-1,1.1-1,3,0,4.1
		C-163.8,442.4-161.6,442.3-159.6,440.8z"/>
	<path class="st0" d="M-72.8,436.5c-0.2,0.2-0.4,0.3-0.6,0.4c-2.1-1.5-4.2-1.6-5.6-0.1c-1,1.1-1,2.9,0,4.1c1.3,1.5,3.5,1.4,5.6-0.1
		c0.2,0.1,0.4,0.2,0.5,0.3c-0.1,0.7-1.7,1.5-3,1.6c-2.4,0.1-4.2-0.9-4.7-2.9c-0.5-1.7,0.3-3.4,1.9-4.3
		C-76.7,434.5-74.2,434.9-72.8,436.5z"/>
	<path class="st0" d="M-120.6,439c0,0.9,0,1.8,0,2.7c1.2,0,2.4,0,3.6,0c0,0.3,0.1,0.5,0.1,0.8c-1.6,0-3,0-4.6,0c0-2.4,0-4.8,0-7.3
		c1.5,0,3,0,4.6,0c0,0.2,0,0.4,0,0.7c-1.3,0-2.4,0-3.7,0c0,0.8,0,1.5,0,2.2c1.2,0,2.4,0,3.7,0c0,0.3,0,0.5,0,0.8
		C-118.1,439-119.4,439-120.6,439z"/>
	<path class="st0" d="M-94.5,435.2c1.6,0,3.1,0,4.6,0c0,0.2,0,0.4,0,0.7c-1.2,0-2.4,0-3.7,0c0,0.8,0,1.5,0,2.3c1.2,0,2.4,0,3.7,0
		c0,0.3,0,0.5,0,0.8c-1.2,0-2.4,0-3.7,0c0,0.9,0,1.8,0,2.7c1.2,0,2.4,0,3.6,0c0,0.3,0.1,0.5,0.1,0.8c-1.6,0-3,0-4.6,0
		C-94.5,440-94.5,437.7-94.5,435.2z"/>
	<path class="st0" d="M-112.1,442.5c-0.3,0-0.5,0-0.9,0c1.3-2.5,2.5-5,3.9-7.6c1.3,2.6,2.5,5,3.8,7.5c-0.3,0-0.5,0.1-0.8,0.1
		c-0.4-0.8-0.8-1.5-1.2-2.3c-1.1,0-2.3,0-3.5,0C-111.3,441-111.7,441.7-112.1,442.5z M-109.2,436.7c-0.5,1-0.9,1.8-1.3,2.6
		c0.9,0,1.7,0,2.6,0C-108.3,438.4-108.7,437.7-109.2,436.7z"/>
	<path class="st0" d="M-137.7,442.5c-0.4,0-0.6,0-0.9,0c-0.4-0.8-0.8-1.5-1.2-2.2c-1.1,0-2.3,0-3.5,0c-0.4,0.7-0.8,1.4-1.2,2.2
		c-0.2,0-0.5,0-0.9,0c1.3-2.5,2.5-5,3.9-7.6C-140.2,437.5-139,439.9-137.7,442.5z M-141.5,436.7c-0.5,1-0.9,1.8-1.3,2.6
		c0.9,0,1.7,0,2.6,0C-140.6,438.5-141,437.7-141.5,436.7z"/>
	<path class="st0" d="M-129.8,435.2c0.2,0,0.4-0.1,0.5-0.1c0.1,0,0.3,0,0.4,0c0.8,1.8,1.7,3.6,2.6,5.6c0.9-1.9,1.8-3.7,2.7-5.6
		c0.3,0,0.6,0,0.9,0c-1.2,2.5-2.3,4.9-3.6,7.6C-127.5,440.1-128.6,437.7-129.8,435.2z"/>
	<path class="st0" d="M-71.9,435.2c0.4,0,0.7,0,1,0c0.6,0.9,1.3,1.9,2,2.9c0.7-1,1.3-2,2-2.9c0.2,0,0.5,0,1,0
		c-1.5,2.3-3.5,4.3-2.4,7.3c-0.5,0-0.7,0-1.2,0C-68.5,439.5-70.3,437.4-71.9,435.2z"/>
	<path class="st0" d="M-135.5,436c-0.6,0-1.1,0-1.7,0c0-0.3-0.1-0.5-0.1-0.8c1.5,0,2.9,0,4.4,0c0,0.2,0,0.5,0,0.8
		c-0.6,0-1.1,0-1.6,0c0,2.2,0,4.3,0,6.5c-0.3,0-0.6,0.1-0.9,0.1C-135.5,440.3-135.5,438.2-135.5,436z"/>
	<path class="st0" d="M-131.1,442.5c-0.3,0-0.5,0-0.8,0c0-2.4,0-4.8,0-7.3c0.3,0,0.5,0,0.8,0C-131.1,437.6-131.1,440-131.1,442.5z"
		/>
</g>
</svg>
