<?xml version="1.0" encoding="utf-8"?>
<!-- Generator: Adobe Illustrator 19.1.1, SVG Export Plug-In . SVG Version: 6.00 Build 0)  -->
<svg version="1.1" id="Layer_1" xmlns="http://www.w3.org/2000/svg" xmlns:xlink="http://www.w3.org/1999/xlink" x="0px" y="0px"
	 viewBox="-276 357 57.7 80" style="enable-background:new -276 357 57.7 80;" xml:space="preserve">
<style type="text/css">
	.st0{fill:#FFFFFF;}
</style>
<path class="st0" d="M-253.3,404.4c-0.6-1.5-0.6-3.2-0.4-4.4c0-0.3-3.2-1.9-3.3-1.8c-1.6,0.8-2.7,1.7-2.9,2
	c-0.5,3.2,0.4,5.5,0.6,5.8c1.2,1.5,2.7,2.1,3.2,2.3l3.7-2.4C-252.8,405.5-253,404.7-253.3,404.4 M-258.8,391.2
	c0.3-0.8,1.4-3.3,0-8.5c-0.8-3.1-1.2-5.3-0.6-7.3c-0.9,1.7-1.5,3.6-1.7,6.1c-0.5,4.7,1.8,7.5,1.5,11.3
	C-259.5,393-259,392-258.8,391.2z M-238,406.2l-4-0.9c-1.2,1.5-1.6,1.9-3.7,2.8l0.7,4c1.3,0.2,3.3,0.4,4,0.1c0,0,0.1,0,0.2-0.1
	c0.6-0.3,1.7-1,2.9-2.2C-237.5,408.2-237.8,406.7-238,406.2z M-237.8,410.6L-237.8,410.6c-0.4,0.5-0.8,0.8-1.2,1.1
	c-0.6,0.6-1.2,1.1-1.5,1.2c0,0.1,0,0.2,0,0.3c0,0.2-0.1,0.4-0.1,0.7c1.2-0.9,2.2-1.9,3.1-3.1C-237.7,410.7-237.8,410.7-237.8,410.6z
	 M-260.3,405.8L-260.3,405.8c-0.3-0.8-0.9-4.1-0.3-6c-0.2-0.8-0.2-2.1-0.2-2.1c-0.4,1-1.1,2.2-1.1,5.5c0,1.6,0.5,3.6,1.1,5
	c0-0.2,0.1-0.4,0.1-0.5c0.2-0.7,0.4-1.2,0.5-1.5l0,0C-260.3,406.1-260.3,405.9-260.3,405.8z M-254.5,412.8L-254.5,412.8
	c0.3,0.2,2.3,1.7,5.5,1.9c0.2-0.1,0.7-0.4,1.3-0.8s1.3-0.9,1.8-1.4l-0.8-4.3c-0.1,0-0.2,0-0.3,0c-0.7,0-1.5-0.1-2.2-0.3
	c-0.9-0.3-1.8-0.8-2.5-1.4l-3.9,2.5c0,1.1,0.3,2.2,0.6,2.9C-254.8,412.4-254.5,412.7-254.5,412.8z M-245.3,413.1L-245.3,413.1
	c-0.3,0.4-0.8,0.7-1.2,1c-0.6,0.5-1.2,0.8-1.6,1.1c0.3,0.3,0.8,0.6,1.6,1c1.8-0.2,3.4-0.8,4.9-1.7c0.1-0.3,0.2-0.6,0.2-0.9
	c0-0.1,0-0.2,0.1-0.3C-242.7,413.6-244.5,413.2-245.3,413.1z M-256,411.5L-256,411.5c-0.2-0.7-0.4-1.5-0.4-2.4
	c-0.6-0.2-1.9-0.9-3.1-2.1c-0.2,0.4-0.3,1-0.4,1.7c0,0.3-0.1,0.7,0,1c0.7,1.2,1.5,2.3,2.6,3.2c1,0,1.6,0,2-0.1
	C-255.5,412.5-255.8,412-256,411.5z M-249,415.5c0.2,0.2,0.5,0.5,1.1,0.8c-0.2,0-0.3,0-0.5,0c-3,0-5.8-1-8-2.6
	c0.9,0,1.4-0.1,1.6-0.2C-254.3,414-252.2,415.3-249,415.5z M-252,380.2c-1.7-4.8-4.7-9.3-1.4-14.4c-5.1,5-5.6,9.3-4,16.7
	c1.2,5.4,0.3,7.3-0.8,9.7c-0.2,0.5-2.7,4.5-1.9,6.8c0.6-0.5,1.7-1.4,3.3-1.8c0.2-0.1,2.2,0.7,3.5,1.5c1.1-3.2,2.6-3.9,3.1-8.1
	C-249.8,385.8-251.2,382.3-252,380.2z M-240,390.9L-240,390.9L-240,390.9 M-245,379.5c-2.8-6-6.9-12.4-2.8-19
	c-6.7,4.8-4.7,12.8-2.8,19.8c0.4,1.3,1.7,5.7,1.5,10.3c-0.5,5.4-2.2,6.1-3,8.7c-0.4,1.3-0.4,3,0.2,4.4c0.7,1.6,1.9,2.4,3.3,2.8
	c2.7,0.7,5.2-0.6,6.3-4C-239.3,394.2-243.5,382.7-245,379.5z M-247.8,397.1l1.2,0.1V396l0.8,0.9l0.8-0.8l-0.1,1.1h1.2l-0.9,0.8
	l0.8,0.8l-1.2-0.1v1.2l-0.8-0.9l-0.8,0.8l0.1-1.1h-1.2l0.9-0.8L-247.8,397.1z M-244,403.1c-0.9,1.9-3.2,2.8-5.1,1.9
	c-1.9-0.9-2.8-3.2-1.9-5.1c0.5-1,1.3-1.7,2.2-2c-0.5,0.3-0.9,0.8-1.2,1.4c-0.7,1.6,0,3.5,1.6,4.2s3.5,0,4.3-1.6
	c0.3-0.6,0.3-1.2,0.3-1.8C-243.5,401-243.5,402.1-244,403.1z M-239.5,402.9L-239.5,402.9L-239.5,402.9L-239.5,402.9L-239.5,402.9
	 M-232.5,395.4c-0.3-4.6-2.2-10.2-5.5-15.2c-6.6-10.1-6.7-11.1-5.6-17.2c-3.6,5.7-2.8,11.3-0.2,17.2c2.9,6.3,5.1,16.4,2.1,24.1
	l4.2,1.1c0,0,1,2.1,0.4,4.6C-234.7,407.5-232.1,402.2-232.5,395.4z M-263.3,422.4L-263.3,422.4c0-0.1,0-0.2-0.1-0.2
	c0,0-0.1-0.1-0.2-0.1c-0.1,0-0.2,0.1-0.3,0.3l-1.1,5.1h2.8L-263.3,422.4z M-257.8,433.1c0,0.2-0.1,0.3-0.3,0.3h-2.6
	c-0.1,0-0.2,0-0.2-0.1c-0.1-0.1-0.1-0.1-0.1-0.2l-0.7-3h-3.8l-0.7,3c0,0.1-0.1,0.2-0.1,0.2c-0.1,0.1-0.1,0.1-0.2,0.1h-2.6
	c-0.2,0-0.3-0.1-0.3-0.3l0,0c0,0,0,0,0-0.1l2.8-11.5c0.1-0.4,0.3-0.8,0.5-1.1c0.2-0.3,0.5-0.5,0.7-0.6c0.3-0.1,0.6-0.2,0.9-0.3
	c0.3,0,0.6-0.1,1-0.1c0.3,0,0.6,0,1,0.1c0.3,0,0.6,0.1,0.9,0.3c0.3,0.1,0.5,0.4,0.7,0.6c0.2,0.3,0.4,0.6,0.5,1.1L-257.8,433.1
	L-257.8,433.1L-257.8,433.1z M-247.8,422.1c-0.1,0.1-0.2,0.1-0.3,0.1h-3.8c-0.4,0-0.7,0.1-0.9,0.3c-0.2,0.2-0.3,0.5-0.3,1v1.7h4.8
	c0.1,0,0.2,0,0.3,0.1s0.1,0.2,0.1,0.3v1.8c0,0.1,0,0.2-0.1,0.3s-0.2,0.1-0.3,0.1h-4.8v5.4c0,0.1,0,0.2-0.1,0.3s-0.2,0.1-0.3,0.1
	h-2.4c-0.1,0-0.2,0-0.3-0.1s-0.1-0.2-0.1-0.3v-9.6c0-0.8,0.1-1.5,0.4-2c0.2-0.5,0.6-0.9,1-1.2c0.4-0.3,0.9-0.5,1.5-0.6
	s1.1-0.1,1.7-0.1c0.5,0,0.9,0,1.3,0c0.4,0,0.7,0,1,0.1c0.3,0,0.5,0,0.7,0.1c0.2,0,0.4,0.1,0.5,0.1c0.2,0,0.4,0.2,0.4,0.4
	L-247.8,422.1C-247.7,421.9-247.7,422-247.8,422.1 M-237,422.1c-0.1,0.1-0.2,0.1-0.3,0.1h-3.8c-0.4,0-0.7,0.1-0.9,0.3
	c-0.2,0.2-0.3,0.5-0.3,1v1.7h4.8c0.1,0,0.2,0,0.3,0.1s0.1,0.2,0.1,0.3v1.8c0,0.1,0,0.2-0.1,0.3s-0.2,0.1-0.3,0.1h-4.8v5.4
	c0,0.1,0,0.2-0.1,0.3c-0.1,0.1-0.2,0.1-0.3,0.1h-2.4c-0.1,0-0.2,0-0.3-0.1s-0.1-0.2-0.1-0.3v-9.6c0-0.8,0.1-1.5,0.4-2
	c0.2-0.5,0.6-0.9,1-1.2c0.4-0.3,0.9-0.5,1.5-0.6s1.1-0.1,1.7-0.1c0.5,0,0.9,0,1.3,0c0.4,0,0.7,0,1,0.1c0.3,0,0.5,0,0.7,0.1
	c0.2,0,0.4,0.1,0.5,0.1c0.2,0,0.4,0.2,0.4,0.4L-237,422.1C-236.8,421.9-236.8,422-237,422.1 M-230.3,422.4L-230.3,422.4
	c0-0.1,0-0.2-0.1-0.2c0,0-0.1-0.1-0.2-0.1c-0.1,0-0.2,0.1-0.3,0.3l-1.1,5.1h2.8L-230.3,422.4z M-224.8,433.1c0,0.2-0.1,0.3-0.3,0.3
	h-2.6c-0.1,0-0.2,0-0.2-0.1c-0.1-0.1-0.1-0.1-0.1-0.2l-0.7-3h-3.8l-0.7,3c0,0.1-0.1,0.2-0.1,0.2c-0.1,0.1-0.1,0.1-0.2,0.1h-2.6
	c-0.2,0-0.3-0.1-0.3-0.3l0,0c0,0,0,0,0-0.1l2.8-11.5c0.1-0.4,0.3-0.8,0.5-1.1c0.2-0.3,0.5-0.5,0.7-0.6c0.3-0.1,0.6-0.2,0.9-0.3
	c0.3,0,0.6-0.1,1-0.1c0.3,0,0.6,0,1,0.1c0.3,0,0.6,0.1,0.9,0.3c0.3,0.1,0.5,0.4,0.7,0.6c0.2,0.3,0.4,0.6,0.5,1.1L-224.8,433.1
	L-224.8,433.1L-224.8,433.1z"/>
</svg>
