<?xml version="1.0" encoding="utf-8"?>
<!-- Generator: Adobe Illustrator 19.1.1, SVG Export Plug-In . SVG Version: 6.00 Build 0)  -->
<svg version="1.1" id="Layer_1" xmlns="http://www.w3.org/2000/svg" xmlns:xlink="http://www.w3.org/1999/xlink" x="0px" y="0px"
	 viewBox="-211 343.7 188 106.3" style="enable-background:new -211 343.7 188 106.3;" xml:space="preserve">
<style type="text/css">
	.st0{fill:#FFFFFF;}
</style>
<g>
	<path class="st0" d="M-103.8,347.7c2,2.2,4.1,4.4,6.1,6.6c0.2,0.3,0.5,0.5,0.7,0.8c0,7,0,14,0,21.1c-1.1-1.6-2.2-3.1-3.1-4.7
		c-2.2-3.6-4.4-7.2-6.5-10.8c-0.6-0.9-1.2-1.7-2.1-2.4c-1.4-1.2-2.8-2.4-4.2-3.5c-0.2-0.1-0.3-0.2-0.6-0.2c0.5,0.6,1,1.1,1.4,1.6
		c1.3,1.4,2.6,2.8,3.8,4.3c0.2,0.3,0.4,0.6,0.6,0.9c1.7,3.8,3.4,7.7,5.1,11.5c0.2,0.4,0.5,0.8,0.8,1.2c1.2,1.3,2.5,2.6,3.7,3.8
		c-5.3,0-10.5,0-15.9,0c-1.4-1.8-2.8-3.7-4.4-5.4c-0.8-0.9-1.1-1.9-1.1-3.1c0.1-4.9,0-9.8,0.1-14.7c0-1.9-0.7-3.3-2.2-4.4
		c-1.1-0.8-2.4-1.5-3.6-2.2c-0.3-0.2-0.5-0.3-0.8-0.4C-118.6,347.7-111.2,347.7-103.8,347.7z"/>
	<path class="st0" d="M-42.5,420.6c-0.8,0-1.6-0.2-2.4,0c-1.8,0.3-3,1.6-3,3.4c-0.1,2.8-0.1,5.5-0.1,8.3c0,0.9,0,1.9,0,2.9
		c-2.1,0-4.1,0-6.3,0c0-6.7,0-13.4,0-20.3c1.6,0,3.4,0,5.2,0c0.1,1.1,0.2,2.2,0.3,3.5c0.2-0.3,0.3-0.5,0.4-0.6
		c1.1-2.3,2.9-3.5,5.5-3.2c0.1,0,0.2,0,0.3,0C-42.5,416.5-42.5,418.5-42.5,420.6z"/>
	<path class="st0" d="M-80.7,378.8c-1.8,1.5-3.6,3-5.5,4.5c-0.2,0.2-0.4,0.5-0.5,0.7c-3,5.3-6.1,10.4-9.5,15.4
		c-0.2,0.2-0.3,0.4-0.6,0.8c0-7.2,0-14.2,0-21.3c2.2-2.4,4.5-4.9,6.8-7.3c7.4,0,14.7,0,22,0c0,0,0,0.1,0.1,0.1
		c-0.4,0.2-0.9,0.4-1.3,0.7c-1.2,0.8-2.5,1.5-3.6,2.4c-1.1,0.9-1.6,2-1.6,3.5c0.1,5.3,0,10.7,0,16c0,0.4-0.2,0.9-0.4,1.3
		c-1.6,2.1-3.3,4.2-4.9,6.3c-5.4,0-10.7,0-16,0c0-0.1-0.1-0.1-0.1-0.2c0.6-0.6,1.2-1.2,1.9-1.8c1.9-1.5,3.1-3.5,4-5.7
		c1.2-3,2.5-5.8,3.8-8.7c0.2-0.4,0.5-0.9,0.8-1.2c1.4-1.6,2.8-3.2,4.3-4.8C-81,379.2-80.9,379-80.7,378.8c0-0.1,0.1-0.1,0.1-0.2
		c0,0,0,0,0,0C-80.6,378.7-80.7,378.7-80.7,378.8z"/>
	<path class="st0" d="M-90.6,435.1c-2.1,0-4.2,0-6.3,0c0-9.1,0-18.2,0-27.4c2-0.6,4.1-1.1,6.3-1.8c0,3.7,0,7.3,0,11.1
		c0.4-0.4,0.6-0.6,0.8-0.9c1.8-1.8,4-2.2,6.3-1.6c2.4,0.7,3.5,2.6,4,4.8c0.3,1.3,0.4,2.6,0.4,3.9c0.1,3.7,0,7.4,0,11
		c0,0.2,0,0.4-0.1,0.6c-2.1,0-4.1,0-6.3,0c0-0.3,0-0.5,0-0.8c0-3.6,0-7.2,0-10.8c0-0.7-0.1-1.5-0.3-2.2c-0.3-1.1-1.1-1.7-2.2-1.7
		c-1.1,0-2.1,0.6-2.5,1.6c-0.2,0.6-0.3,1.4-0.3,2c0,3.7,0,7.4,0,11C-90.6,434.5-90.6,434.7-90.6,435.1z"/>
	<path class="st0" d="M-140.9,401.6c-1.3,0-2.6,0-3.9,0c0-0.3,0-0.6,0-0.9c0-3.8,0-7.6,0-11.3c0-0.9-0.2-1.8-0.5-2.7
		c-0.4-1.1-1.3-1.9-2.5-2c-1.5-0.2-2.8,0.5-3.7,1.7c-0.7,1-1,2.1-1,3.3c0,3.7,0,7.3,0,11c0,0.3,0,0.6,0,0.9c-1.3,0-2.5,0-3.9,0
		c0-6.6,0-13.1,0-19.7c1,0,2.1,0,3.3,0c0.1,0.9,0.2,1.8,0.3,3c0.3-0.3,0.5-0.5,0.6-0.7c1.3-1.8,3-2.7,5.2-2.8c2.2,0,4,0.8,5.1,2.9
		c0.1,0.2,0.2,0.4,0.3,0.6c0,0,0.1,0.1,0.2,0.1c0.1-0.2,0.3-0.3,0.4-0.5c1.4-2,3.3-3.1,5.7-3.1c2.2,0,4.4,1,5.5,4
		c0.4,1.1,0.6,2.3,0.6,3.4c0.1,4,0,8,0,11.9c0,0.2,0,0.5,0,0.8c-1.3,0-2.6,0-3.9,0c0-0.3,0-0.6,0-0.9c0-3.7,0-7.4,0-11
		c0-0.9-0.2-1.9-0.5-2.8c-0.9-2.6-4.1-3-6-0.9c-0.9,1-1.2,2.3-1.2,3.6c0,3.7,0,7.4,0,11.1C-140.9,401-140.9,401.3-140.9,401.6z"/>
	<path class="st0" d="M-116.4,419.9c-0.3-1.4-0.5-2.7-0.8-4.1c1.5-0.7,3-1,4.6-1.2c1.9-0.2,3.9-0.2,5.8,0.3c2.7,0.8,4.7,2.5,5.6,5.2
		c1.4,4.2,1.2,8.3-1.5,12c-2.9,4-9.3,4.7-12.7,1.4c-1.7-1.7-2.5-3.8-2.7-6.2c-0.1-1.4,0-2.9,0-4.5c4,0,7.7,0,11.5,0
		c0.2-1.4-0.7-2.8-2.2-3.3c-1.9-0.7-3.8-0.5-5.7-0.1C-115.1,419.5-115.7,419.7-116.4,419.9z M-112.4,427.1c-0.2,1.3,0.5,3,1.4,3.6
		c0.9,0.6,2.1,0.5,2.9-0.1c1-0.7,1.7-2.5,1.4-3.5C-108.5,427.1-110.5,427.1-112.4,427.1z"/>
	<path class="st0" d="M-73.8,419.8c-0.3-1.3-0.5-2.7-0.8-4.2c1.2-0.3,2.4-0.7,3.6-0.9c2.1-0.4,4.2-0.5,6.3,0c3,0.7,5.1,2.4,6.1,5.3
		c1.4,4.2,1.1,8.3-1.5,11.9c-2.9,4.1-9.3,4.7-12.7,1.4c-1.6-1.6-2.3-3.6-2.6-5.7c-0.2-1.6-0.2-3.2,0.1-4.9c1.9,0,3.8,0,5.8,0
		c1.9,0,3.8,0,5.6,0c0.1-1.9-1.2-3.3-3.2-3.6c-2-0.3-3.9,0-5.7,0.5c-0.2,0-0.4,0.1-0.6,0.2C-73.6,419.8-73.7,419.8-73.8,419.8z
		 M-69.9,427.1c0,1.4,0.3,2.7,1.5,3.6c0.9,0.6,1.8,0.6,2.7,0.1c1.3-0.8,1.6-2.2,1.8-3.7C-65.9,427.1-67.8,427.1-69.9,427.1z"/>
	<path class="st0" d="M-128.1,435.5c1,1.7,1.9,3.3,2.8,4.9c-0.2,0.9-0.4,1.7-0.6,2.6c-1.6,0.9-3.2,1.8-5,2.9
		c0.2-0.3,0.2-0.5,0.3-0.6c0.4-0.7,0.5-1.4,0-2.1c-0.5-0.7-0.8-1.6-1.3-2.2c-0.9-1.1-0.6-2.3-0.3-3.6c1-0.6,2-1.2,3-1.8
		c-1.9-0.3-3.8-0.5-5.5-1.5c0.3-1.5,0.7-2.9,1-4.3c1.3,0.4,2.6,0.8,3.9,1c0.7,0.1,1.4,0.1,2.1-0.1c0.4-0.1,0.9-0.6,1.1-1
		c0.3-0.6,0-1.2-0.5-1.6c-0.4-0.3-0.9-0.5-1.3-0.8c-1.1-0.6-2.3-1.1-3.3-1.8c-4.1-2.8-2.8-7.9,0.3-9.9c2.1-1.4,4.4-1.5,6.8-1.2
		c1.1,0.1,2.1,0.5,3.2,0.8c-0.4,1.5-0.7,3-1.1,4.4c-0.9-0.3-1.7-0.6-2.5-0.7c-0.6-0.1-1.3-0.1-2-0.1c-0.7,0.1-1.2,0.4-1.4,1.1
		c-0.2,0.7,0.2,1.3,0.8,1.6c1,0.5,2,1,3,1.5c1.8,0.9,3.3,2.1,3.8,4.2c0.9,3.7-1.1,6.9-4.9,7.8C-126.4,435.3-127.2,435.4-128.1,435.5
		z M-128.7,435.5C-128.7,435.5-128.7,435.6-128.7,435.5c0.1,0.1,0.2,0.1,0.2,0.1c0,0,0,0,0,0C-128.5,435.5-128.6,435.5-128.7,435.5z
		"/>
	<path class="st0" d="M-177.3,390.9c4.2,0,8.4,0,12.5,0c0.6-1.9-0.9-4.9-2.8-5.7c-2.2-1-4.4-0.7-6.6-0.2c-0.5,0.1-0.9,0.3-1.6,0.5
		c-0.2-0.9-0.4-1.8-0.6-2.7c3.3-1.3,6.5-1.8,9.8-0.7c2.8,0.9,4.6,3,5.3,5.8c1,3.9,0.7,7.6-1.7,10.9c-2.8,3.9-8.9,4.5-12.1,1.1
		c-1.3-1.4-1.9-3.2-2.2-5c-0.1-0.9-0.1-1.9-0.2-2.8C-177.5,391.6-177.4,391.3-177.3,390.9z M-164.8,393.7c-2.9,0-5.9,0-8.8,0
		c-0.3,1.7,0.6,4,2,4.9c0.9,0.5,1.8,0.8,2.8,0.6C-166.4,398.7-164.6,396.2-164.8,393.7z"/>
	<path class="st0" d="M-116,401.6c-0.2-1.4-0.1-2.5,0.8-3.6c3.1-4.1,6.1-8.3,9.1-12.4c0.1-0.1,0.1-0.2,0.3-0.5c-3.2,0-6.3,0-9.5,0
		c0-1.2,0-2.1,0-3.2c4.8,0,9.5,0,14.2,0c0.1,1.3,0.2,2.4-0.7,3.5c-2.7,3.6-5.2,7.2-7.9,10.9c-0.5,0.7-1,1.3-1.6,2.1
		c3.5,0,6.9,0,10.3,0c0,1.2,0,2.2,0,3.3C-105.9,401.6-110.9,401.6-116,401.6z"/>
	<path class="st0" d="M-180.3,398.6c0,1,0,2,0,3c-0.4,0.1-0.8,0.3-1.2,0.3c-1.2,0-2.5,0.1-3.7-0.2c-2.1-0.5-3.1-2.1-3.3-4.1
		c-0.2-1.9-0.1-3.9-0.2-5.9c0-2,0-3.9,0-5.9c0-0.3,0-0.6,0-1c-0.9,0-1.8,0-2.7,0c0-1,0-2,0-3c0.9,0,1.8,0,2.7,0c0-1.3,0-2.4,0-3.6
		c1.3-0.4,2.6-0.8,4-1.2c0,1.7,0,3.2,0,4.9c1.6,0,3.1,0,4.7,0c0,1,0,2,0,3c-1.6,0-3.1,0-4.7,0c0,0.3-0.1,0.5-0.1,0.7
		c0,3.3,0,6.5,0,9.8c0,0.6,0.1,1.3,0.3,1.9c0.4,1.2,1.6,1.8,3.1,1.5C-181,398.7-180.7,398.7-180.3,398.6z"/>
	<path class="st0" d="M-119.8,401.6c-1.3,0-2.6,0-4,0c0-6.6,0-13.1,0-19.7c1.3,0,2.6,0,4,0C-119.8,388.5-119.8,395-119.8,401.6z"/>
	<path class="st0" d="M-119.4,376.2c0,1.4-0.9,2.4-2.3,2.4c-1.3,0-2.4-1-2.4-2.3c0-1.3,1-2.3,2.3-2.3
		C-120.3,373.9-119.4,374.8-119.4,376.2z"/>
</g>
</svg>
